<?xml version="1.0" encoding="UTF-8"?>
<svg width="141px" height="391px" viewBox="0 0 141 391" version="1.1" xmlns="http://www.w3.org/2000/svg" xmlns:xlink="http://www.w3.org/1999/xlink">
    <!-- Generator: sketchtool 59.1 (101010) - https://sketch.com -->
    <title>F392DCA2-6E3D-4137-969E-D7434BB99E7A</title>
    <desc>Created with sketchtool.</desc>
    <g id="Full-landing" stroke="none" stroke-width="1" fill="none" fill-rule="evenodd">
        <g id="landing-green-v1.3-2" transform="translate(-650.000000, -2887.000000)" fill="#E7EDF1">
            <g id="Group-54" transform="translate(5.000000, 2238.000000)">
                <g id="Medium-dots" transform="translate(645.000000, 649.000000)">
                    <path d="M3,385 C4.65685425,385 6,386.343146 6,388 C6,389.656854 4.65685425,391 3,391 C1.34314575,391 0,389.656854 0,388 C0,386.343146 1.34314575,385 3,385 Z M48,385 C49.6568542,385 51,386.343146 51,388 C51,389.656854 49.6568542,391 48,391 C46.3431458,391 45,389.656854 45,388 C45,386.343146 46.3431458,385 48,385 Z M93,385 C94.6568542,385 96,386.343146 96,388 C96,389.656854 94.6568542,391 93,391 C91.3431458,391 90,389.656854 90,388 C90,386.343146 91.3431458,385 93,385 Z M138,385 C139.656854,385 141,386.343146 141,388 C141,389.656854 139.656854,391 138,391 C136.343146,391 135,389.656854 135,388 C135,386.343146 136.343146,385 138,385 Z M3,350 C4.65685425,350 6,351.343146 6,353 C6,354.656854 4.65685425,356 3,356 C1.34314575,356 0,354.656854 0,353 C0,351.343146 1.34314575,350 3,350 Z M48,350 C49.6568542,350 51,351.343146 51,353 C51,354.656854 49.6568542,356 48,356 C46.3431458,356 45,354.656854 45,353 C45,351.343146 46.3431458,350 48,350 Z M93,350 C94.6568542,350 96,351.343146 96,353 C96,354.656854 94.6568542,356 93,356 C91.3431458,356 90,354.656854 90,353 C90,351.343146 91.3431458,350 93,350 Z M138,350 C139.656854,350 141,351.343146 141,353 C141,354.656854 139.656854,356 138,356 C136.343146,356 135,354.656854 135,353 C135,351.343146 136.343146,350 138,350 Z M3,315 C4.65685425,315 6,316.343146 6,318 C6,319.656854 4.65685425,321 3,321 C1.34314575,321 0,319.656854 0,318 C0,316.343146 1.34314575,315 3,315 Z M48,315 C49.6568542,315 51,316.343146 51,318 C51,319.656854 49.6568542,321 48,321 C46.3431458,321 45,319.656854 45,318 C45,316.343146 46.3431458,315 48,315 Z M93,315 C94.6568542,315 96,316.343146 96,318 C96,319.656854 94.6568542,321 93,321 C91.3431458,321 90,319.656854 90,318 C90,316.343146 91.3431458,315 93,315 Z M138,315 C139.656854,315 141,316.343146 141,318 C141,319.656854 139.656854,321 138,321 C136.343146,321 135,319.656854 135,318 C135,316.343146 136.343146,315 138,315 Z M3,280 C4.65685425,280 6,281.343146 6,283 C6,284.656854 4.65685425,286 3,286 C1.34314575,286 0,284.656854 0,283 C0,281.343146 1.34314575,280 3,280 Z M48,280 C49.6568542,280 51,281.343146 51,283 C51,284.656854 49.6568542,286 48,286 C46.3431458,286 45,284.656854 45,283 C45,281.343146 46.3431458,280 48,280 Z M93,280 C94.6568542,280 96,281.343146 96,283 C96,284.656854 94.6568542,286 93,286 C91.3431458,286 90,284.656854 90,283 C90,281.343146 91.3431458,280 93,280 Z M138,280 C139.656854,280 141,281.343146 141,283 C141,284.656854 139.656854,286 138,286 C136.343146,286 135,284.656854 135,283 C135,281.343146 136.343146,280 138,280 Z M3,245 C4.65685425,245 6,246.343146 6,248 C6,249.656854 4.65685425,251 3,251 C1.34314575,251 0,249.656854 0,248 C0,246.343146 1.34314575,245 3,245 Z M48,245 C49.6568542,245 51,246.343146 51,248 C51,249.656854 49.6568542,251 48,251 C46.3431458,251 45,249.656854 45,248 C45,246.343146 46.3431458,245 48,245 Z M93,245 C94.6568542,245 96,246.343146 96,248 C96,249.656854 94.6568542,251 93,251 C91.3431458,251 90,249.656854 90,248 C90,246.343146 91.3431458,245 93,245 Z M138,245 C139.656854,245 141,246.343146 141,248 C141,249.656854 139.656854,251 138,251 C136.343146,251 135,249.656854 135,248 C135,246.343146 136.343146,245 138,245 Z M93,210 C94.6568542,210 96,211.343146 96,213 C96,214.656854 94.6568542,216 93,216 C91.3431458,216 90,214.656854 90,213 C90,211.343146 91.3431458,210 93,210 Z M138,210 C139.656854,210 141,211.343146 141,213 C141,214.656854 139.656854,216 138,216 C136.343146,216 135,214.656854 135,213 C135,211.343146 136.343146,210 138,210 Z M3,210 C4.65685425,210 6,211.343146 6,213 C6,214.656854 4.65685425,216 3,216 C1.34314575,216 0,214.656854 0,213 C0,211.343146 1.34314575,210 3,210 Z M48,210 C49.6568542,210 51,211.343146 51,213 C51,214.656854 49.6568542,216 48,216 C46.3431458,216 45,214.656854 45,213 C45,211.343146 46.3431458,210 48,210 Z M93,175 C94.6568542,175 96,176.343146 96,178 C96,179.656854 94.6568542,181 93,181 C91.3431458,181 90,179.656854 90,178 C90,176.343146 91.3431458,175 93,175 Z M138,175 C139.656854,175 141,176.343146 141,178 C141,179.656854 139.656854,181 138,181 C136.343146,181 135,179.656854 135,178 C135,176.343146 136.343146,175 138,175 Z M3,175 C4.65685425,175 6,176.343146 6,178 C6,179.656854 4.65685425,181 3,181 C1.34314575,181 0,179.656854 0,178 C0,176.343146 1.34314575,175 3,175 Z M48,175 C49.6568542,175 51,176.343146 51,178 C51,179.656854 49.6568542,181 48,181 C46.3431458,181 45,179.656854 45,178 C45,176.343146 46.3431458,175 48,175 Z M3,140 C4.65685425,140 6,141.343146 6,143 C6,144.656854 4.65685425,146 3,146 C1.34314575,146 0,144.656854 0,143 C0,141.343146 1.34314575,140 3,140 Z M138,140 C139.656854,140 141,141.343146 141,143 C141,144.656854 139.656854,146 138,146 C136.343146,146 135,144.656854 135,143 C135,141.343146 136.343146,140 138,140 Z M48,140 C49.6568542,140 51,141.343146 51,143 C51,144.656854 49.6568542,146 48,146 C46.3431458,146 45,144.656854 45,143 C45,141.343146 46.3431458,140 48,140 Z M93,140 C94.6568542,140 96,141.343146 96,143 C96,144.656854 94.6568542,146 93,146 C91.3431458,146 90,144.656854 90,143 C90,141.343146 91.3431458,140 93,140 Z M48,105 C49.6568542,105 51,106.343146 51,108 C51,109.656854 49.6568542,111 48,111 C46.3431458,111 45,109.656854 45,108 C45,106.343146 46.3431458,105 48,105 Z M138,105 C139.656854,105 141,106.343146 141,108 C141,109.656854 139.656854,111 138,111 C136.343146,111 135,109.656854 135,108 C135,106.343146 136.343146,105 138,105 Z M93,105 C94.6568542,105 96,106.343146 96,108 C96,109.656854 94.6568542,111 93,111 C91.3431458,111 90,109.656854 90,108 C90,106.343146 91.3431458,105 93,105 Z M3,105 C4.65685425,105 6,106.343146 6,108 C6,109.656854 4.65685425,111 3,111 C1.34314575,111 0,109.656854 0,108 C0,106.343146 1.34314575,105 3,105 Z M3,70 C4.65685425,70 6,71.3431458 6,73 C6,74.6568542 4.65685425,76 3,76 C1.34314575,76 0,74.6568542 0,73 C0,71.3431458 1.34314575,70 3,70 Z M48,70 C49.6568542,70 51,71.3431458 51,73 C51,74.6568542 49.6568542,76 48,76 C46.3431458,76 45,74.6568542 45,73 C45,71.3431458 46.3431458,70 48,70 Z M93,70 C94.6568542,70 96,71.3431458 96,73 C96,74.6568542 94.6568542,76 93,76 C91.3431458,76 90,74.6568542 90,73 C90,71.3431458 91.3431458,70 93,70 Z M138,70 C139.656854,70 141,71.3431458 141,73 C141,74.6568542 139.656854,76 138,76 C136.343146,76 135,74.6568542 135,73 C135,71.3431458 136.343146,70 138,70 Z M3,35 C4.65685425,35 6,36.3431458 6,38 C6,39.6568542 4.65685425,41 3,41 C1.34314575,41 0,39.6568542 0,38 C0,36.3431458 1.34314575,35 3,35 Z M48,35 C49.6568542,35 51,36.3431458 51,38 C51,39.6568542 49.6568542,41 48,41 C46.3431458,41 45,39.6568542 45,38 C45,36.3431458 46.3431458,35 48,35 Z M93,35 C94.6568542,35 96,36.3431458 96,38 C96,39.6568542 94.6568542,41 93,41 C91.3431458,41 90,39.6568542 90,38 C90,36.3431458 91.3431458,35 93,35 Z M138,35 C139.656854,35 141,36.3431458 141,38 C141,39.6568542 139.656854,41 138,41 C136.343146,41 135,39.6568542 135,38 C135,36.3431458 136.343146,35 138,35 Z M3,0 C4.65685425,0 6,1.34314575 6,3 C6,4.65685425 4.65685425,6 3,6 C1.34314575,6 0,4.65685425 0,3 C0,1.34314575 1.34314575,0 3,0 Z M48,0 C49.6568542,0 51,1.34314575 51,3 C51,4.65685425 49.6568542,6 48,6 C46.3431458,6 45,4.65685425 45,3 C45,1.34314575 46.3431458,0 48,0 Z M93,0 C94.6568542,0 96,1.34314575 96,3 C96,4.65685425 94.6568542,6 93,6 C91.3431458,6 90,4.65685425 90,3 C90,1.34314575 91.3431458,0 93,0 Z M138,0 C139.656854,0 141,1.34314575 141,3 C141,4.65685425 139.656854,6 138,6 C136.343146,6 135,4.65685425 135,3 C135,1.34314575 136.343146,0 138,0 Z" id="Combined-Shape"></path>
                </g>
            </g>
        </g>
    </g>
</svg>