<?xml version="1.0" encoding="UTF-8"?>
<svg width="44px" height="129px" viewBox="0 0 44 129" version="1.1" xmlns="http://www.w3.org/2000/svg" xmlns:xlink="http://www.w3.org/1999/xlink">
    <!-- Generator: sketchtool 59.1 (101010) - https://sketch.com -->
    <title>9174F443-1EB0-45E6-A6DF-54BFD2AA787B</title>
    <desc>Created with sketchtool.</desc>
    <g id="Full-landing" stroke="none" stroke-width="1" fill="none" fill-rule="evenodd" opacity="0.329241071">
        <g id="landing-green-v1.3-2" transform="translate(-1389.000000, -1457.000000)" fill="#B9CAD5">
            <g id="Small-dots-group" transform="translate(1389.000000, 1457.000000)">
                <g id="Group-33" transform="translate(0.000000, 70.000000)">
                    <circle id="Oval" cx="1.5" cy="15.5" r="1.5"></circle>
                    <circle id="Oval" cx="15.5" cy="15.5" r="1.5"></circle>
                    <circle id="Oval" cx="28.5" cy="15.5" r="1.5"></circle>
                    <circle id="Oval" cx="42.5" cy="15.5" r="1.5"></circle>
                    <circle id="Oval" cx="1.5" cy="29.5" r="1.5"></circle>
                    <circle id="Oval" cx="15.5" cy="29.5" r="1.5"></circle>
                    <circle id="Oval" cx="28.5" cy="29.5" r="1.5"></circle>
                    <circle id="Oval" cx="42.5" cy="29.5" r="1.5"></circle>
                    <circle id="Oval" cx="1.5" cy="43.5" r="1.5"></circle>
                    <circle id="Oval" cx="15.5" cy="43.5" r="1.5"></circle>
                    <circle id="Oval" cx="28.5" cy="43.5" r="1.5"></circle>
                    <circle id="Oval" cx="42.5" cy="43.5" r="1.5"></circle>
                    <circle id="Oval" cx="1.5" cy="57.5" r="1.5"></circle>
                    <circle id="Oval" cx="15.5" cy="57.5" r="1.5"></circle>
                    <circle id="Oval" cx="28.5" cy="57.5" r="1.5"></circle>
                    <circle id="Oval" cx="42.5" cy="57.5" r="1.5"></circle>
                    <circle id="Oval" cx="1.5" cy="1.5" r="1.5"></circle>
                    <circle id="Oval" cx="15.5" cy="1.5" r="1.5"></circle>
                    <circle id="Oval" cx="28.5" cy="1.5" r="1.5"></circle>
                    <circle id="Oval" cx="42.5" cy="1.5" r="1.5"></circle>
                </g>
                <g id="small-dots">
                    <circle id="Oval" cx="1.5" cy="15.5" r="1.5"></circle>
                    <circle id="Oval" cx="15.5" cy="15.5" r="1.5"></circle>
                    <circle id="Oval" cx="28.5" cy="15.5" r="1.5"></circle>
                    <circle id="Oval" cx="42.5" cy="15.5" r="1.5"></circle>
                    <circle id="Oval" cx="1.5" cy="29.5" r="1.5"></circle>
                    <circle id="Oval" cx="15.5" cy="29.5" r="1.5"></circle>
                    <circle id="Oval" cx="28.5" cy="29.5" r="1.5"></circle>
                    <circle id="Oval" cx="42.5" cy="29.5" r="1.5"></circle>
                    <circle id="Oval" cx="1.5" cy="43.5" r="1.5"></circle>
                    <circle id="Oval" cx="15.5" cy="43.5" r="1.5"></circle>
                    <circle id="Oval" cx="28.5" cy="43.5" r="1.5"></circle>
                    <circle id="Oval" cx="42.5" cy="43.5" r="1.5"></circle>
                    <circle id="Oval" cx="1.5" cy="57.5" r="1.5"></circle>
                    <circle id="Oval" cx="15.5" cy="57.5" r="1.5"></circle>
                    <circle id="Oval" cx="28.5" cy="57.5" r="1.5"></circle>
                    <circle id="Oval" cx="42.5" cy="57.5" r="1.5"></circle>
                    <circle id="Oval" cx="1.5" cy="1.5" r="1.5"></circle>
                    <circle id="Oval" cx="15.5" cy="1.5" r="1.5"></circle>
                    <circle id="Oval" cx="28.5" cy="1.5" r="1.5"></circle>
                    <circle id="Oval" cx="42.5" cy="1.5" r="1.5"></circle>
                </g>
            </g>
        </g>
    </g>
</svg>