<?xml version="1.0" encoding="UTF-8"?>
<svg width="73px" height="67px" viewBox="0 0 73 67" version="1.1" xmlns="http://www.w3.org/2000/svg" xmlns:xlink="http://www.w3.org/1999/xlink">
    <!-- Generator: sketchtool 59.1 (101010) - https://sketch.com -->
    <title>A06A4695-CB36-4B61-B0B4-762D148F8062</title>
    <desc>Created with sketchtool.</desc>
    <g id="Full-landing" stroke="none" stroke-width="1" fill="none" fill-rule="evenodd">
        <g id="landing-green-v1.3-2" transform="translate(-172.000000, -3596.000000)">
            <g id="Group-55" transform="translate(-24.000000, 3470.000000)">
                <g id="mobile-accounts" transform="translate(195.000000, 0.000000)">
                    <g id="icon/wire-money" transform="translate(0.694829, 126.000000)">
                        <path d="M20.0104258,42.2507685 L20.0104258,62.1113565 C20.0104258,63.92087 22.2916837,64.6919337 23.361194,63.2435928 L32.926218,50.3112487 L35.8419586,48.7959353 L67.4128057,3.52058266 L67.4128057,0.51736512 L62.8703967,2.87515509 L20,40.6220301 L20.0104258,42.2507685 Z" id="Path" fill="#676099" fill-rule="nonzero"></path>
                        <path d="M65.7892613,0.208500674 C65.7039536,0.242720733 6.12563181,29.8800379 6.04322228,29.9214556 C4.71975555,30.5845166 4.63835409,32.4499517 5.89743051,33.2286791 L20.1195,42 L67.7299174,0.51736512 C67.2345782,0.0872783239 66.5232605,-0.0963230269 65.7892613,0.208500674 Z" id="Path" fill="#9D98EC" fill-rule="nonzero"></path>
                        <path d="M67.6496825,0.448339913 C67.6218452,0.421692557 67.5769609,0.542370695 67.5475771,0.51736512 L67.1693247,1.04273479 L33,50.266352 L55.3047747,63.7174573 C56.466467,64.4172346 57.9699395,63.7500404 58.2177689,62.453918 L68.205749,2.3062741 C68.3317902,1.66383287 68.1017811,0.879622946 67.6496825,0.448339913 Z" id="Path" fill="#9D98EC" fill-rule="nonzero"></path>
                        <line x1="15.5" y1="17.5" x2="38.5" y2="6.5" id="Path-19" stroke-opacity="0.424661276" stroke="#9D98EC" stroke-linecap="round"></line>
                        <line x1="72" y1="12" x2="70" y2="26.5660195" id="Path-20" stroke="#D6D4F7" stroke-linecap="round"></line>
                        <line x1="11.4251597" y1="44.0753245" x2="0.305171078" y2="52.6372844" id="Path-21" stroke="#D6D4F7" stroke-linecap="round"></line>
                        <line x1="11.0782383" y1="57.632612" x2="1.90864907" y2="65.5080292" id="Path-24" stroke="#D6D4F7" stroke-linecap="round"></line>
                        <line x1="14.0782383" y1="49.632612" x2="8.09328315" y2="54.5778927" id="Path-24" stroke="#D6D4F7" stroke-linecap="round"></line>
                    </g>
                </g>
            </g>
        </g>
    </g>
</svg>