<?xml version="1.0" encoding="UTF-8"?>
<svg width="24px" height="30px" viewBox="0 0 24 30" version="1.1" xmlns="http://www.w3.org/2000/svg" xmlns:xlink="http://www.w3.org/1999/xlink">
    <!-- Generator: sketchtool 59.1 (101010) - https://sketch.com -->
    <title>3D393176-6358-4FF5-800C-589828E586A8</title>
    <desc>Created with sketchtool.</desc>
    <g id="Full-landing" stroke="none" stroke-width="1" fill="none" fill-rule="evenodd">
        <g id="landing-green-v1.3-2" transform="translate(-545.000000, -5581.000000)" fill="#B3AFE3" fill-rule="nonzero">
            <g id="Group-51" transform="translate(0.000000, 5058.000000)">
                <g id="Group-52" transform="translate(473.000000, 181.000000)">
                    <g id="Group-50" transform="translate(47.000000, 325.000000)">
                        <g id="Group-49">
                            <g id="apple-logo" transform="translate(25.000000, 17.000000)">
                                <path d="M20.0440682,15.9380571 C20.0854875,20.4780068 23.9571077,21.9887877 24,22.0080709 C23.9672636,22.1146195 23.3813797,24.1610815 21.9602466,26.2749307 C20.7317395,28.1024604 19.4567112,29.9232955 17.4481649,29.9610065 C15.4745673,29.9980196 14.8399455,28.7698129 12.5835647,28.7698129 C10.3278654,28.7698129 9.62277178,29.9232924 7.75454181,29.9980196 C5.81578507,30.0726921 4.33944217,28.0217883 3.10072574,26.2009533 C0.569558735,22.4763737 -1.36477658,15.6761665 1.23254681,11.0859158 C2.52284167,8.80637858 4.8286961,7.36288047 7.33149492,7.32586465 C9.23530448,7.28890246 11.0322744,8.62949699 12.1960973,8.62949699 C13.3591823,8.62949699 15.5428833,7.01731459 17.8385275,7.25408395 C18.7995626,7.29479558 21.497204,7.64920206 23.2294336,10.2298971 C23.0898586,10.3179642 20.0105953,12.1424929 20.0440682,15.9380614 M16.3349196,4.78994961 C17.3642185,3.5218329 18.0569961,1.75649717 17.8679989,0 C16.3843418,0.0606917774 14.5902669,1.00627713 13.5260727,2.27369615 C12.5723503,3.39605473 11.7371039,5.19246121 11.9624678,6.9141935 C13.6161779,7.04441766 15.30557,6.05887275 16.3349196,4.78995167" id="Shape"></path>
                            </g>
                        </g>
                    </g>
                </g>
            </g>
        </g>
    </g>
</svg>