<?xml version="1.0" encoding="UTF-8"?>
<svg width="97px" height="69px" viewBox="0 0 97 69" version="1.1" xmlns="http://www.w3.org/2000/svg" xmlns:xlink="http://www.w3.org/1999/xlink">
    <!-- Generator: sketchtool 59.1 (101010) - https://sketch.com -->
    <title>13B22932-DE47-4AB7-8214-CBC152AF1818</title>
    <desc>Created with sketchtool.</desc>
    <defs>
        <path d="M4,0.677859792 L60,0.677859792 C62.209139,0.677859792 64,2.46872079 64,4.67785979 L64,31 C64,33.209139 62.209139,35 60,35 L4,35 C1.790861,35 2.705415e-16,33.209139 0,31 L0,4.67785979 C-2.705415e-16,2.46872079 1.790861,0.677859792 4,0.677859792 Z" id="path-1"></path>
    </defs>
    <g id="Full-landing" stroke="none" stroke-width="1" fill="none" fill-rule="evenodd">
        <g id="landing-green-v1.3-2" transform="translate(-176.000000, -3921.000000)">
            <g id="Group-55" transform="translate(-24.000000, 3470.000000)">
                <g id="mobile-accounts" transform="translate(195.000000, 0.000000)">
                    <g id="icon/fast-transfer" transform="translate(5.842201, 451.000000)">
                        <g id="pay" transform="translate(31.852628, 34.000000)">
                            <mask id="mask-2" fill="white">
                                <use xlink:href="#path-1"></use>
                            </mask>
                            <use id="Path" fill-opacity="0.804769449" fill="#34B083" fill-rule="nonzero" xlink:href="#path-1"></use>
                            <path d="M64,12.6047898 L64,21.9634986 C55.7806101,21.9634986 52.1091334,27 52.1091334,35 L12.8908666,35 C12.8908666,27 8.81411059,21.9634986 -4.54747351e-13,21.9634986 L-4.54747351e-13,12.6047898 C9.58724814,12.6047898 12.8908666,8.10519134 12.8908666,0.677859792 L52.1091334,0.677859792 C52.1091334,8.67785979 56.0371538,12.6047898 64,12.6047898 Z" id="Path" fill="#60D0A7" fill-rule="nonzero" mask="url(#mask-2)"></path>
                            <path d="M31.5792351,26.9336496 C30.4249736,26.7599352 29.3982416,26.3007462 28.497268,25.5560827 C27.9717985,25.1211894 27.5348913,24.5769654 27.1853655,23.9221959 C26.760857,23.127726 27.0920799,22.1285648 27.9074433,21.7859953 C28.5563095,21.5132759 29.3161738,21.7446926 29.6780983,22.3618037 C29.79441,22.5604212 29.9284343,22.7499277 30.0795806,22.9303234 C30.4946425,23.4296004 30.9941336,23.773992 31.5792351,23.9634986 L31.5792351,19.4505698 L31.3731802,19.3546017 C30.80402,19.1329033 30.2679231,18.8723319 29.7684319,18.5704576 C29.2683502,18.2710129 28.8290814,17.9217619 28.4523964,17.525742 C28.0739403,17.1303292 27.773419,16.6832881 27.5514229,16.1834037 C27.3270652,15.6847342 27.2148862,15.1265402 27.2148862,14.5082143 C27.2148862,13.9384798 27.3158473,13.4003298 27.5154077,12.8931567 C27.7173296,12.386591 28.0042713,11.9352981 28.3833179,11.5392781 C28.7600027,11.1438653 29.2169841,10.814051 29.757214,10.5534795 C30.2956726,10.2916931 30.9026194,10.1222305 31.5798255,10.0432695 L31.5798255,9.05686354 C31.5798255,8.47315906 32.0397589,8 32.6077384,8 C33.1757177,8 33.6356511,8.47315906 33.6356511,9.05686354 L33.6356511,10.0900387 C34.2520446,10.184792 34.7875511,10.3518251 35.2403995,10.5893156 C35.6956096,10.8268062 36.0846932,11.1037773 36.4194587,11.409296 C36.5481691,11.5265228 36.6727467,11.6662232 36.7902394,11.8180713 C37.3735696,12.5688089 37.0771811,13.6918783 36.2240312,14.0836467 C35.6389297,14.3521143 34.9658565,14.1838665 34.5354438,13.69613 C34.3099052,13.4404176 34.0123359,13.1889569 33.6356511,13.0122057 L33.6356511,17.264563 C34.2992778,17.5500377 34.8973683,17.8434083 35.4375982,18.1440678 C35.9760568,18.4453346 36.4377616,18.7848673 36.8233026,19.1657025 C37.2088437,19.5453231 37.4999183,19.9771793 37.6994787,20.4594493 C37.9014006,20.9435414 38,21.5017354 38,22.1346387 C38,22.8471106 37.8813266,23.4812287 37.6433892,24.0345635 C37.4036806,24.5891133 37.085447,25.0647017 36.6839646,25.4601145 C36.2830727,25.856742 35.8190065,26.1738012 35.2876327,26.4112918 C34.7562592,26.6487823 34.2048113,26.815208 33.6356511,26.9093539 L33.6356511,27.9425291 C33.6356511,28.5268411 33.1757177,29 32.6077384,29 C32.0397589,29 31.5798255,28.5268411 31.5798255,27.9425291 L31.5798255,26.9336496 L31.5792351,26.9336496 Z M30.0577353,14.5088217 C30.0577353,14.8896569 30.1764087,15.2182565 30.4137556,15.4946203 C30.6534641,15.7728061 31.0413668,16.0540291 31.5798255,16.3388963 L31.5798255,12.8706832 C31.1175305,12.9976283 30.7502922,13.202927 30.4722068,13.4877944 C30.1941212,13.7732689 30.0577353,14.1134089 30.0577353,14.5088217 Z M35.0449722,22.1595419 C35.0449722,21.7477295 34.9369261,21.4063748 34.7196534,21.1379071 C34.5047422,20.8676173 34.1434082,20.5991496 33.6350608,20.3294673 L33.6350608,23.9634986 C34.0518938,23.8219761 34.3902016,23.5954186 34.6523461,23.286863 C34.9127192,22.9777001 35.0449722,22.6017239 35.0449722,22.1595419 Z" id="Shape" fill="#4AB68E" fill-rule="nonzero" mask="url(#mask-2)"></path>
                        </g>
                        <g id="Group-41" transform="translate(40.852628, 0.000000)" fill-rule="nonzero">
                            <g id="Group-43" transform="translate(0.000000, 7.000000)">
                                <path d="M18,9 C18,13.9705077 13.9706421,18 8.99969977,18 C4.02935787,18 0,13.9705077 0,9 C0,4.02949229 4.02935787,0 8.99969977,0 C13.9706421,0 18,4.02949229 18,9 Z" id="Path" fill="#60D0A7"></path>
                                <path d="M16,9 C16,12.8656514 12.8661752,16 8.99966269,16 C5.13382482,16 2,12.8656514 2,9 C2,5.13434841 5.13382482,2 8.99966269,2 C12.8661752,2 16,5.13434841 16,9 Z" id="Path" fill="#4AB68E"></path>
                                <g id="Shape-2" transform="translate(7.000000, 5.000000)" fill="#64E3B4">
                                    <path d="M1.66523818,7.21244946 C1.24552019,7.14605176 0.872009679,6.97129681 0.54427873,6.68772329 C0.353458969,6.52219012 0.19429984,6.31515845 0.0672292732,6.06524485 C-0.08679569,5.76276647 0.0334293234,5.38190198 0.32992735,5.25141204 C0.565671141,5.14766567 0.842488145,5.23573486 0.973837238,5.4708933 C1.01619413,5.5465129 1.06496865,5.6189048 1.11973308,5.68760806 C1.27076319,5.8780403 1.45217037,6.00945238 1.66523818,6.08138321 L1.66523818,4.36195962 L1.59036502,4.32553308 C1.3832869,4.24161383 1.18818862,4.14201729 1.00678144,4.02720464 C0.824946441,3.91285306 0.664931672,3.77959648 0.528020594,3.62927954 C0.390253767,3.47850142 0.281152724,3.30789629 0.200289645,3.11792499 C0.118998747,2.92749274 0.0783532436,2.71492793 0.0783532436,2.47976938 C0.0783532436,2.26259367 0.114720221,2.05740638 0.187454287,1.86420751 C0.261043991,1.6714697 0.365010869,1.49902019 0.502777587,1.34870313 C0.639688665,1.19792512 0.806121167,1.07250726 1.00250302,0.972910715 C1.19845695,0.873314174 1.41922617,0.808760742 1.66523818,0.778328525 L1.66523818,0.402997056 C1.66523818,0.180288213 1.83252644,0 2.03917662,0 C2.24539888,0 2.41268713,0.180288213 2.41268713,0.402997056 L2.41268713,0.796311263 C2.63687902,0.832276621 2.83197731,0.895907804 2.9962706,0.986743509 C3.16184746,1.07711815 3.30303696,1.1827089 3.42497347,1.29890486 C3.4720366,1.34363105 3.51738845,1.3971182 3.55974523,1.45429388 C3.7719574,1.74063402 3.66456786,2.16853027 3.35395079,2.3174639 C3.1413108,2.41982707 2.89658225,2.35573482 2.73999015,2.16991347 C2.6578435,2.07262249 2.55002603,1.97671471 2.41268713,1.90939477 L2.41268713,3.52922194 C2.65399291,3.63804026 2.87176706,3.7500864 3.06814892,3.86489917 C3.26367502,3.97925075 3.43181902,4.10881844 3.57215288,4.25360224 C3.71205881,4.39838616 3.81816489,4.56299708 3.89089896,4.74651299 C3.96406073,4.93095103 4,5.14397691 4,5.38466861 C4,5.65625359 3.95678736,5.89786742 3.8703623,6.10858785 C3.78308148,6.31976935 3.66713489,6.50097981 3.52123905,6.65175782 C3.3753431,6.80253594 3.20677138,6.92334292 3.01338449,7.01417862 C2.82042541,7.10455326 2.61976514,7.16772326 2.41268713,7.20368874 L2.41268713,7.59746389 C2.41268713,7.81971179 2.24539888,8 2.03917662,8 C1.83252644,8 1.66523818,7.81971179 1.66523818,7.59746389 L1.66523818,7.21244946 Z M1.11203189,2.47930831 C1.11203189,2.62409223 1.15524442,2.7495101 1.24166959,2.85510084 C1.3289504,2.96069159 1.46971208,3.06812684 1.66566611,3.1764841 L1.66566611,1.85498561 C1.49752211,1.90340056 1.36403381,1.98178667 1.26306189,2.09014405 C1.16166215,2.19896249 1.11203189,2.32853018 1.11203189,2.47930831 Z M2.92567585,5.39389039 C2.92567585,5.23711818 2.88631392,5.1070893 2.80716212,5.00472625 C2.72886618,4.90190201 2.59794491,4.79953884 2.41268713,4.6967146 L2.41268713,6.08138321 C2.56414496,6.02743511 2.68736493,5.9412103 2.78277486,5.82363114 C2.87775698,5.7055908 2.92567585,5.56219019 2.92567585,5.39389039 Z" id="Shape"></path>
                                </g>
                            </g>
                            <g id="Group-43" transform="translate(26.000000, 0.000000)">
                                <path d="M18,9 C18,13.9705077 13.9706421,18 8.99969977,18 C4.02935787,18 0,13.9705077 0,9 C0,4.02949229 4.02935787,0 8.99969977,0 C13.9706421,0 18,4.02949229 18,9 Z" id="Path" fill="#60D0A7"></path>
                                <path d="M16,9 C16,12.8656514 12.8661752,16 8.99966269,16 C5.13382482,16 2,12.8656514 2,9 C2,5.13434841 5.13382482,2 8.99966269,2 C12.8661752,2 16,5.13434841 16,9 Z" id="Path" fill="#4AB68E"></path>
                                <g id="Shape-2" transform="translate(7.000000, 5.000000)" fill="#64E3B4">
                                    <path d="M1.66523818,7.21244946 C1.24552019,7.14605176 0.872009679,6.97129681 0.54427873,6.68772329 C0.353458969,6.52219012 0.19429984,6.31515845 0.0672292732,6.06524485 C-0.08679569,5.76276647 0.0334293234,5.38190198 0.32992735,5.25141204 C0.565671141,5.14766567 0.842488145,5.23573486 0.973837238,5.4708933 C1.01619413,5.5465129 1.06496865,5.6189048 1.11973308,5.68760806 C1.27076319,5.8780403 1.45217037,6.00945238 1.66523818,6.08138321 L1.66523818,4.36195962 L1.59036502,4.32553308 C1.3832869,4.24161383 1.18818862,4.14201729 1.00678144,4.02720464 C0.824946441,3.91285306 0.664931672,3.77959648 0.528020594,3.62927954 C0.390253767,3.47850142 0.281152724,3.30789629 0.200289645,3.11792499 C0.118998747,2.92749274 0.0783532436,2.71492793 0.0783532436,2.47976938 C0.0783532436,2.26259367 0.114720221,2.05740638 0.187454287,1.86420751 C0.261043991,1.6714697 0.365010869,1.49902019 0.502777587,1.34870313 C0.639688665,1.19792512 0.806121167,1.07250726 1.00250302,0.972910715 C1.19845695,0.873314174 1.41922617,0.808760742 1.66523818,0.778328525 L1.66523818,0.402997056 C1.66523818,0.180288213 1.83252644,0 2.03917662,0 C2.24539888,0 2.41268713,0.180288213 2.41268713,0.402997056 L2.41268713,0.796311263 C2.63687902,0.832276621 2.83197731,0.895907804 2.9962706,0.986743509 C3.16184746,1.07711815 3.30303696,1.1827089 3.42497347,1.29890486 C3.4720366,1.34363105 3.51738845,1.3971182 3.55974523,1.45429388 C3.7719574,1.74063402 3.66456786,2.16853027 3.35395079,2.3174639 C3.1413108,2.41982707 2.89658225,2.35573482 2.73999015,2.16991347 C2.6578435,2.07262249 2.55002603,1.97671471 2.41268713,1.90939477 L2.41268713,3.52922194 C2.65399291,3.63804026 2.87176706,3.7500864 3.06814892,3.86489917 C3.26367502,3.97925075 3.43181902,4.10881844 3.57215288,4.25360224 C3.71205881,4.39838616 3.81816489,4.56299708 3.89089896,4.74651299 C3.96406073,4.93095103 4,5.14397691 4,5.38466861 C4,5.65625359 3.95678736,5.89786742 3.8703623,6.10858785 C3.78308148,6.31976935 3.66713489,6.50097981 3.52123905,6.65175782 C3.3753431,6.80253594 3.20677138,6.92334292 3.01338449,7.01417862 C2.82042541,7.10455326 2.61976514,7.16772326 2.41268713,7.20368874 L2.41268713,7.59746389 C2.41268713,7.81971179 2.24539888,8 2.03917662,8 C1.83252644,8 1.66523818,7.81971179 1.66523818,7.59746389 L1.66523818,7.21244946 Z M1.11203189,2.47930831 C1.11203189,2.62409223 1.15524442,2.7495101 1.24166959,2.85510084 C1.3289504,2.96069159 1.46971208,3.06812684 1.66566611,3.1764841 L1.66566611,1.85498561 C1.49752211,1.90340056 1.36403381,1.98178667 1.26306189,2.09014405 C1.16166215,2.19896249 1.11203189,2.32853018 1.11203189,2.47930831 Z M2.92567585,5.39389039 C2.92567585,5.23711818 2.88631392,5.1070893 2.80716212,5.00472625 C2.72886618,4.90190201 2.59794491,4.79953884 2.41268713,4.6967146 L2.41268713,6.08138321 C2.56414496,6.02743511 2.68736493,5.9412103 2.78277486,5.82363114 C2.87775698,5.7055908 2.92567585,5.56219019 2.92567585,5.39389039 Z" id="Shape"></path>
                                </g>
                            </g>
                        </g>
                        <line x1="23.2725841" y1="42" x2="4" y2="42" id="Path-25" stroke-opacity="0.565231643" stroke="#60D0A7" stroke-linecap="round"></line>
                        <line x1="26.2725841" y1="51" x2="11.6208601" y2="51" id="Path-25" stroke-opacity="0.565231643" stroke="#60D0A7" stroke-linecap="round"></line>
                        <line x1="19.2725841" y1="59" x2="0" y2="59" id="Path-25" stroke-opacity="0.565231643" stroke="#60D0A7" stroke-linecap="round"></line>
                    </g>
                </g>
            </g>
        </g>
    </g>
</svg>