<?xml version="1.0" encoding="UTF-8"?>
<svg width="524px" height="593px" viewBox="0 0 524 593" version="1.1" xmlns="http://www.w3.org/2000/svg" xmlns:xlink="http://www.w3.org/1999/xlink">
    <!-- Generator: sketchtool 59.1 (101010) - https://sketch.com -->
    <title>7914BAE2-7F18-4E20-BEC3-AD0EF51EFFCB</title>
    <desc>Created with sketchtool.</desc>
    <defs>
        <path d="M374,0 C387.807119,-2.53632657e-15 399,11.1928813 399,25 L399,394 L399,394 C390.715729,394 384,400.715729 384,409 C384,417.284271 390.715729,424 399,424 L399,508 C399,521.807119 387.807119,533 374,533 L25,533 C11.1928813,533 1.69088438e-15,521.807119 0,508 L0,424 C8.28427125,424 15,417.284271 15,409 C15,400.715729 8.28427125,394 0,394 L0,25 C-1.69088438e-15,11.1928813 11.1928813,2.53632657e-15 25,0 L374,0 Z" id="path-1"></path>
        <filter x="-10.5%" y="-7.9%" width="124.1%" height="118.0%" filterUnits="objectBoundingBox" id="filter-2">
            <feOffset dx="6" dy="6" in="SourceAlpha" result="shadowOffsetOuter1"></feOffset>
            <feGaussianBlur stdDeviation="15" in="shadowOffsetOuter1" result="shadowBlurOuter1"></feGaussianBlur>
            <feColorMatrix values="0 0 0 0 0.823529412   0 0 0 0 0.843137255   0 0 0 0 0.905882353  0 0 0 0.3 0" type="matrix" in="shadowBlurOuter1"></feColorMatrix>
        </filter>
        <path d="M24,0 C10.7665297,0 0,10.7665297 0,24 C0,37.2334703 10.7665297,48 24,48 C37.2334703,48 48,37.2334703 48,24 C48,10.7665297 37.2334703,0 24,0 Z" id="path-3"></path>
        <filter x="-42.7%" y="-32.3%" width="185.4%" height="185.4%" filterUnits="objectBoundingBox" id="filter-4">
            <feOffset dx="0" dy="5" in="SourceAlpha" result="shadowOffsetOuter1"></feOffset>
            <feGaussianBlur stdDeviation="6" in="shadowOffsetOuter1" result="shadowBlurOuter1"></feGaussianBlur>
            <feColorMatrix values="0 0 0 0 0.376370087   0 0 0 0 0.815217391   0 0 0 0 0.652989478  0 0 0 0.35 0" type="matrix" in="shadowBlurOuter1"></feColorMatrix>
        </filter>
        <rect id="path-5" x="0" y="0" width="363" height="82" rx="10"></rect>
        <filter x="-6.5%" y="-26.2%" width="112.9%" height="157.3%" filterUnits="objectBoundingBox" id="filter-6">
            <feOffset dx="0" dy="2" in="SourceAlpha" result="shadowOffsetOuter1"></feOffset>
            <feGaussianBlur stdDeviation="7.5" in="shadowOffsetOuter1" result="shadowBlurOuter1"></feGaussianBlur>
            <feColorMatrix values="0 0 0 0 0.823529412   0 0 0 0 0.866666667   0 0 0 0 0.905882353  0 0 0 0.3 0" type="matrix" in="shadowBlurOuter1"></feColorMatrix>
        </filter>
        <rect id="path-7" x="0" y="0" width="363" height="82" rx="10"></rect>
        <filter x="-6.5%" y="-26.2%" width="112.9%" height="157.3%" filterUnits="objectBoundingBox" id="filter-8">
            <feOffset dx="0" dy="2" in="SourceAlpha" result="shadowOffsetOuter1"></feOffset>
            <feGaussianBlur stdDeviation="7.5" in="shadowOffsetOuter1" result="shadowBlurOuter1"></feGaussianBlur>
            <feColorMatrix values="0 0 0 0 0.823529412   0 0 0 0 0.866666667   0 0 0 0 0.905882353  0 0 0 0.3 0" type="matrix" in="shadowBlurOuter1"></feColorMatrix>
        </filter>
    </defs>
    <g id="Full-landing" stroke="none" stroke-width="1" fill="none" fill-rule="evenodd">
        <g id="landing-green-v1.3-2" transform="translate(-826.000000, -2497.000000)">
            <g id="Group-54" transform="translate(5.000000, 2238.000000)">
                <g id="Invoicing" transform="translate(836.000000, 283.000000)">
                    <g id="Group-33" opacity="0.329241071" transform="translate(445.000000, 504.000000)" fill="#B9CAD5">
                        <circle id="Oval" cx="1.5" cy="15.5" r="1.5"></circle>
                        <circle id="Oval" cx="15.5" cy="15.5" r="1.5"></circle>
                        <circle id="Oval" cx="28.5" cy="15.5" r="1.5"></circle>
                        <circle id="Oval" cx="42.5" cy="15.5" r="1.5"></circle>
                        <circle id="Oval" cx="1.5" cy="29.5" r="1.5"></circle>
                        <circle id="Oval" cx="15.5" cy="29.5" r="1.5"></circle>
                        <circle id="Oval" cx="28.5" cy="29.5" r="1.5"></circle>
                        <circle id="Oval" cx="42.5" cy="29.5" r="1.5"></circle>
                        <circle id="Oval" cx="1.5" cy="43.5" r="1.5"></circle>
                        <circle id="Oval" cx="15.5" cy="43.5" r="1.5"></circle>
                        <circle id="Oval" cx="28.5" cy="43.5" r="1.5"></circle>
                        <circle id="Oval" cx="42.5" cy="43.5" r="1.5"></circle>
                        <circle id="Oval" cx="1.5" cy="57.5" r="1.5"></circle>
                        <circle id="Oval" cx="15.5" cy="57.5" r="1.5"></circle>
                        <circle id="Oval" cx="28.5" cy="57.5" r="1.5"></circle>
                        <circle id="Oval" cx="42.5" cy="57.5" r="1.5"></circle>
                        <circle id="Oval" cx="55.5" cy="15.5" r="1.5"></circle>
                        <circle id="Oval" cx="1.5" cy="1.5" r="1.5"></circle>
                        <circle id="Oval" cx="15.5" cy="1.5" r="1.5"></circle>
                        <circle id="Oval" cx="28.5" cy="1.5" r="1.5"></circle>
                        <circle id="Oval" cx="42.5" cy="1.5" r="1.5"></circle>
                        <circle id="Oval" cx="55.5" cy="1.5" r="1.5"></circle>
                        <circle id="Oval" cx="55.5" cy="29.5" r="1.5"></circle>
                        <circle id="Oval" cx="55.5" cy="43.5" r="1.5"></circle>
                        <circle id="Oval" cx="55.5" cy="57.5" r="1.5"></circle>
                    </g>
                    <g id="Group-35" transform="translate(74.000000, 0.000000)">
                        <g id="Combined-Shape">
                            <use fill="black" fill-opacity="1" filter="url(#filter-2)" xlink:href="#path-1"></use>
                            <use fill="#FFFFFF" fill-rule="evenodd" xlink:href="#path-1"></use>
                        </g>
                        <text id="Invoice-n°52" font-family="Axiforma-Book, Axiforma" font-size="20" font-weight="300" fill="#93A9B7">
                            <tspan x="141" y="60">Invoice n°52</tspan>
                        </text>
                        <g id="Group-37" transform="translate(74.000000, 447.000000)">
                            <text id="Payment-received!" font-family="Axiforma-Book, Axiforma" font-size="20" font-weight="300" fill="#04004D">
                                <tspan x="67" y="30">Payment received!</tspan>
                            </text>
                            <g id="check" fill-rule="nonzero">
                                <g id="Path">
                                    <use fill="black" fill-opacity="1" filter="url(#filter-4)" xlink:href="#path-3"></use>
                                    <use fill="#0ACE8B" xlink:href="#path-3"></use>
                                </g>
                                <path d="M37.2689676,19.2031603 L21.980368,34.2593024 C21.5150538,34.7175417 20.8701356,34.9805578 20.2122776,34.9805578 L20.2122776,36 L20.1900212,34.9805578 C19.5233641,34.9749508 18.8758579,34.7007209 18.4131317,34.2282094 L10.6999923,26.3550572 C9.74244917,25.3779218 9.77091667,23.816646 10.7631384,22.873662 C11.2315581,22.4281657 11.8480089,22.1834996 12.4986206,22.1834996 C13.1833934,22.1834996 13.8226181,22.4505935 14.2982841,22.935848 L20.2443682,29.0050972 L33.7338218,15.7212554 C34.2058647,15.2563897 34.8337025,15 35.5019123,15 C36.1696045,15 36.7974423,15.25588 37.2694852,15.7207456 C38.2435912,16.6810602 38.2435912,18.2433554 37.2689676,19.2031603 Z" id="Path" stroke="#0ACE8B" fill="#FFFFFF"></path>
                            </g>
                        </g>
                        <text id="$5,780.70" font-family="Axiforma-Regular, Axiforma" font-size="35" font-weight="normal" fill="#93A9B7">
                            <tspan x="120" y="368">$5,780.70</tspan>
                        </text>
                        <rect id="Rectangle" fill-opacity="0.0940504808" fill="#93A9B7" x="45" y="101" width="310" height="7" rx="3.5"></rect>
                        <rect id="Rectangle" fill-opacity="0.0940504808" fill="#93A9B7" x="45" y="126" width="310" height="7" rx="3.5"></rect>
                        <rect id="Rectangle" fill-opacity="0.0940504808" fill="#93A9B7" x="45" y="221" width="310" height="7" rx="3.5"></rect>
                        <rect id="Rectangle" fill-opacity="0.0940504808" fill="#93A9B7" x="45" y="246" width="310" height="7" rx="3.5"></rect>
                        <rect id="Rectangle" fill-opacity="0.0940504808" fill="#93A9B7" x="45" y="271" width="310" height="7" rx="3.5"></rect>
                        <rect id="Rectangle" fill-opacity="0.0940504808" fill="#93A9B7" x="45" y="196" width="310" height="7" rx="3.5"></rect>
                        <line x1="15" y1="409.5" x2="384" y2="409.5" id="Path-15" stroke="#DFE5E9" stroke-linecap="round" stroke-dasharray="10"></line>
                        <line x1="45" y1="312.5" x2="355" y2="312.5" id="Path-16" stroke-opacity="0.852764423" stroke="#E8ECEF" stroke-linecap="round"></line>
                    </g>
                    <g id="Group-24" transform="translate(0.000000, 123.000000)">
                        <g id="Rectangle">
                            <use fill="black" fill-opacity="1" filter="url(#filter-6)" xlink:href="#path-5"></use>
                            <use fill="#FFFFFF" fill-rule="evenodd" xlink:href="#path-5"></use>
                        </g>
                        <g id="Group-17" transform="translate(39.000000, 25.000000)">
                            <rect id="Rectangle" fill="#FFF7EA" x="0" y="0" width="35" height="35" rx="8"></rect>
                            <path d="M25,7 C26.1045695,7 27,7.8954305 27,9 L27,27.3594875 C27,27.5251729 26.8656854,27.6594875 26.7,27.6594875 C26.629819,27.6594875 26.5618592,27.6348827 26.5079447,27.5899539 L24.1920553,25.6600461 C24.0808015,25.5673346 23.9191985,25.5673346 23.8079447,25.6600461 L21.1920553,27.8399539 C21.0808015,27.9326654 20.9191985,27.9326654 20.8079447,27.8399539 L18.1920553,25.6600461 C18.0808015,25.5673346 17.9191985,25.5673346 17.8079447,25.6600461 L15.1920553,27.8399539 C15.0808015,27.9326654 14.9191985,27.9326654 14.8079447,27.8399539 L12.1920553,25.6600461 C12.0808015,25.5673346 11.9191985,25.5673346 11.8079447,25.6600461 L9.49205532,27.5899539 C9.36477225,27.6960231 9.17560284,27.6788259 9.06953362,27.5515428 C9.02460487,27.4976283 9,27.4296685 9,27.3594875 L9,9 C9,7.8954305 9.8954305,7 11,7 L25,7 Z M18.16,10.6 L17.627,10.6 C17.5316662,10.6 17.4493337,10.6346663 17.38,10.704 C17.3106663,10.7733337 17.276,10.8556662 17.276,10.951 L17.276,10.951 L17.276,11.809 C16.8599979,11.8610003 16.4960016,11.9649992 16.184,12.121 C15.8719984,12.2770008 15.6141677,12.4676655 15.4105,12.693 C15.2068323,12.9183345 15.0530005,13.1696653 14.949,13.447 C14.8449995,13.7243347 14.793,14.0059986 14.793,14.292 C14.793,14.5866681 14.8341663,14.8596654 14.9165,15.111 C14.9988337,15.3623346 15.1353324,15.591999 15.326,15.8 C15.5166676,16.008001 15.7636652,16.1921659 16.067,16.3525 C16.3703349,16.5128341 16.7386645,16.6493328 17.172,16.762 C17.4103345,16.822667 17.6362091,16.8817085 17.8496252,16.939125 L17.8496252,16.939125 L18.4525,17.1065 C18.8295019,17.2148339 19.1479987,17.3339993 19.408,17.464 C19.6680013,17.5940006 19.8673326,17.7391659 20.006,17.8995 C20.1446674,18.0598341 20.214,18.2526655 20.214,18.478 C20.214,18.7033345 20.1533339,18.9069991 20.032,19.089 C19.9106661,19.2710009 19.746001,19.4269993 19.538,19.557 C19.329999,19.6870006 19.0895014,19.7866663 18.8165,19.856 C18.5434986,19.9253337 18.2553349,19.96 17.952,19.96 C17.5966649,19.96 17.2890013,19.9166671 17.029,19.83 C16.7689987,19.7433329 16.5480009,19.6371673 16.366,19.5115 C16.1839991,19.3858327 16.0388339,19.2515007 15.9305,19.1085 C15.8221661,18.9654993 15.7420003,18.8333339 15.69,18.712 L15.69,18.712 L15.6497812,18.6291248 C15.6083437,18.5543747 15.5632502,18.5040001 15.5145,18.478 C15.4494997,18.4433332 15.3736671,18.426 15.287,18.426 L15.287,18.426 L14.754,18.426 C14.6759996,18.426 14.6088336,18.4541664 14.5525,18.5105 C14.4961664,18.5668336 14.468,18.6339996 14.468,18.712 C14.4766667,18.9546679 14.5503326,19.2038321 14.689,19.4595 C14.8276674,19.7151679 15.0204988,19.9513322 15.2675,20.168 C15.5145012,20.3846677 15.8069983,20.5753325 16.145,20.74 C16.4830017,20.9046675 16.8599979,21.017333 17.276,21.078 L17.276,21.078 L17.276,21.949 C17.276,22.0443338 17.3106663,22.1266663 17.38,22.196 C17.4493337,22.2653337 17.5316662,22.3 17.627,22.3 L17.627,22.3 L18.16,22.3 C18.2553338,22.3 18.3376663,22.2653337 18.407,22.196 C18.4763337,22.1266663 18.511,22.0443338 18.511,21.949 L18.511,21.949 L18.511,21.104 C18.9530022,21.0606664 19.3559982,20.9653341 19.72,20.818 C20.0840018,20.6706659 20.3938321,20.4843345 20.6495,20.259 C20.9051679,20.0336655 21.1023326,19.7693348 21.241,19.466 C21.3796674,19.1626651 21.449,18.8333351 21.449,18.478 C21.449,18.1573317 21.3991672,17.8691679 21.2995,17.6135 C21.1998328,17.3578321 21.0416678,17.132501 20.825,16.9375 C20.6083323,16.742499 20.328835,16.5670008 19.9865,16.411 C19.644165,16.2549992 19.2260025,16.1120006 18.732,15.982 L18.732,15.982 L17.93796,15.76204 L17.497,15.631 C17.1589983,15.5269995 16.8795011,15.4121673 16.6585,15.2865 C16.4374989,15.1608327 16.2771672,15.0200008 16.1775,14.864 C16.0778328,14.7079992 16.028,14.5173345 16.028,14.292 C16.028,14.0666655 16.0799995,13.8695008 16.184,13.7005 C16.2880005,13.5314992 16.4266658,13.3906672 16.6,13.278 C16.7733342,13.1653328 16.9704989,13.0808336 17.1915,13.0245 C17.4125011,12.9681664 17.6443321,12.94 17.887,12.94 C18.2076683,12.94 18.4893321,12.9854995 18.732,13.0765 C18.9746679,13.1675005 19.1804992,13.2758327 19.3495,13.4015 C19.5185008,13.5271673 19.6528328,13.657166 19.7525,13.7915 C19.8521672,13.925834 19.9236665,14.0363329 19.967,14.123 L19.967,14.123 L20.0120938,14.2058752 C20.0567813,14.2806253 20.1002498,14.3309999 20.1425,14.357 C20.1988336,14.3916668 20.2746662,14.409 20.37,14.409 L20.37,14.409 L20.903,14.409 C20.9810004,14.409 21.050333,14.3808336 21.111,14.3245 C21.171667,14.2681664 21.1976667,14.2010004 21.189,14.123 C21.1803333,13.9323324 21.1153339,13.7156679 20.994,13.473 C20.8726661,13.2303321 20.6993345,12.9963345 20.474,12.771 C20.2486655,12.5456655 19.971335,12.3463342 19.642,12.173 C19.312665,11.9996658 18.9356688,11.882667 18.511,11.822 L18.511,11.822 L18.511,10.951 C18.511,10.8556662 18.4763337,10.7733337 18.407,10.704 C18.3376663,10.6346663 18.2553338,10.6 18.16,10.6 L18.16,10.6 Z" id="Combined-Shape" fill="#FFC8A4"></path>
                        </g>
                        <text id="Alison-Levy" font-family="Axiforma-Book, Axiforma" font-size="12" font-weight="300" fill="#04004D">
                            <tspan x="87" y="33">Alison Levy</tspan>
                        </text>
                        <text id="$2,360.50" font-family="Axiforma-Book, Axiforma" font-size="14" font-weight="300" fill="#04004D">
                            <tspan x="258.62" y="58">$2,360.50</tspan>
                        </text>
                        <g id="Group-36" transform="translate(272.000000, 21.000000)">
                            <rect id="Rectangle" fill-opacity="0.511609484" fill="#CAEBFF" x="0" y="0" width="52" height="17" rx="2"></rect>
                            <text id="Draft" font-family="Axiforma-Book, Axiforma" font-size="12" font-weight="300" fill="#54B4F0">
                                <tspan x="10" y="13">Draft</tspan>
                            </text>
                        </g>
                        <text id="Invoice-n°61" font-family="Axiforma-Book, Axiforma" font-size="12" font-weight="300" fill="#93A9B7">
                            <tspan x="87" y="57">Invoice n°61</tspan>
                        </text>
                    </g>
                    <g id="Group-24" transform="translate(0.000000, 220.000000)">
                        <g id="Rectangle">
                            <use fill="black" fill-opacity="1" filter="url(#filter-8)" xlink:href="#path-7"></use>
                            <use fill="#FFFFFF" fill-rule="evenodd" xlink:href="#path-7"></use>
                        </g>
                        <g id="Group-17" transform="translate(39.000000, 24.000000)">
                            <rect id="Rectangle" fill="#FFF7EA" x="0" y="0" width="35" height="35" rx="8"></rect>
                            <path d="M25,7 C26.1045695,7 27,7.8954305 27,9 L27,27.3594875 C27,27.5251729 26.8656854,27.6594875 26.7,27.6594875 C26.629819,27.6594875 26.5618592,27.6348827 26.5079447,27.5899539 L24.1920553,25.6600461 C24.0808015,25.5673346 23.9191985,25.5673346 23.8079447,25.6600461 L21.1920553,27.8399539 C21.0808015,27.9326654 20.9191985,27.9326654 20.8079447,27.8399539 L18.1920553,25.6600461 C18.0808015,25.5673346 17.9191985,25.5673346 17.8079447,25.6600461 L15.1920553,27.8399539 C15.0808015,27.9326654 14.9191985,27.9326654 14.8079447,27.8399539 L12.1920553,25.6600461 C12.0808015,25.5673346 11.9191985,25.5673346 11.8079447,25.6600461 L9.49205532,27.5899539 C9.36477225,27.6960231 9.17560284,27.6788259 9.06953362,27.5515428 C9.02460487,27.4976283 9,27.4296685 9,27.3594875 L9,9 C9,7.8954305 9.8954305,7 11,7 L25,7 Z M18.16,10.6 L17.627,10.6 C17.5316662,10.6 17.4493337,10.6346663 17.38,10.704 C17.3106663,10.7733337 17.276,10.8556662 17.276,10.951 L17.276,10.951 L17.276,11.809 C16.8599979,11.8610003 16.4960016,11.9649992 16.184,12.121 C15.8719984,12.2770008 15.6141677,12.4676655 15.4105,12.693 C15.2068323,12.9183345 15.0530005,13.1696653 14.949,13.447 C14.8449995,13.7243347 14.793,14.0059986 14.793,14.292 C14.793,14.5866681 14.8341663,14.8596654 14.9165,15.111 C14.9988337,15.3623346 15.1353324,15.591999 15.326,15.8 C15.5166676,16.008001 15.7636652,16.1921659 16.067,16.3525 C16.3703349,16.5128341 16.7386645,16.6493328 17.172,16.762 C17.4103345,16.822667 17.6362091,16.8817085 17.8496252,16.939125 L17.8496252,16.939125 L18.4525,17.1065 C18.8295019,17.2148339 19.1479987,17.3339993 19.408,17.464 C19.6680013,17.5940006 19.8673326,17.7391659 20.006,17.8995 C20.1446674,18.0598341 20.214,18.2526655 20.214,18.478 C20.214,18.7033345 20.1533339,18.9069991 20.032,19.089 C19.9106661,19.2710009 19.746001,19.4269993 19.538,19.557 C19.329999,19.6870006 19.0895014,19.7866663 18.8165,19.856 C18.5434986,19.9253337 18.2553349,19.96 17.952,19.96 C17.5966649,19.96 17.2890013,19.9166671 17.029,19.83 C16.7689987,19.7433329 16.5480009,19.6371673 16.366,19.5115 C16.1839991,19.3858327 16.0388339,19.2515007 15.9305,19.1085 C15.8221661,18.9654993 15.7420003,18.8333339 15.69,18.712 L15.69,18.712 L15.6497812,18.6291248 C15.6083437,18.5543747 15.5632502,18.5040001 15.5145,18.478 C15.4494997,18.4433332 15.3736671,18.426 15.287,18.426 L15.287,18.426 L14.754,18.426 C14.6759996,18.426 14.6088336,18.4541664 14.5525,18.5105 C14.4961664,18.5668336 14.468,18.6339996 14.468,18.712 C14.4766667,18.9546679 14.5503326,19.2038321 14.689,19.4595 C14.8276674,19.7151679 15.0204988,19.9513322 15.2675,20.168 C15.5145012,20.3846677 15.8069983,20.5753325 16.145,20.74 C16.4830017,20.9046675 16.8599979,21.017333 17.276,21.078 L17.276,21.078 L17.276,21.949 C17.276,22.0443338 17.3106663,22.1266663 17.38,22.196 C17.4493337,22.2653337 17.5316662,22.3 17.627,22.3 L17.627,22.3 L18.16,22.3 C18.2553338,22.3 18.3376663,22.2653337 18.407,22.196 C18.4763337,22.1266663 18.511,22.0443338 18.511,21.949 L18.511,21.949 L18.511,21.104 C18.9530022,21.0606664 19.3559982,20.9653341 19.72,20.818 C20.0840018,20.6706659 20.3938321,20.4843345 20.6495,20.259 C20.9051679,20.0336655 21.1023326,19.7693348 21.241,19.466 C21.3796674,19.1626651 21.449,18.8333351 21.449,18.478 C21.449,18.1573317 21.3991672,17.8691679 21.2995,17.6135 C21.1998328,17.3578321 21.0416678,17.132501 20.825,16.9375 C20.6083323,16.742499 20.328835,16.5670008 19.9865,16.411 C19.644165,16.2549992 19.2260025,16.1120006 18.732,15.982 L18.732,15.982 L17.93796,15.76204 L17.497,15.631 C17.1589983,15.5269995 16.8795011,15.4121673 16.6585,15.2865 C16.4374989,15.1608327 16.2771672,15.0200008 16.1775,14.864 C16.0778328,14.7079992 16.028,14.5173345 16.028,14.292 C16.028,14.0666655 16.0799995,13.8695008 16.184,13.7005 C16.2880005,13.5314992 16.4266658,13.3906672 16.6,13.278 C16.7733342,13.1653328 16.9704989,13.0808336 17.1915,13.0245 C17.4125011,12.9681664 17.6443321,12.94 17.887,12.94 C18.2076683,12.94 18.4893321,12.9854995 18.732,13.0765 C18.9746679,13.1675005 19.1804992,13.2758327 19.3495,13.4015 C19.5185008,13.5271673 19.6528328,13.657166 19.7525,13.7915 C19.8521672,13.925834 19.9236665,14.0363329 19.967,14.123 L19.967,14.123 L20.0120938,14.2058752 C20.0567813,14.2806253 20.1002498,14.3309999 20.1425,14.357 C20.1988336,14.3916668 20.2746662,14.409 20.37,14.409 L20.37,14.409 L20.903,14.409 C20.9810004,14.409 21.050333,14.3808336 21.111,14.3245 C21.171667,14.2681664 21.1976667,14.2010004 21.189,14.123 C21.1803333,13.9323324 21.1153339,13.7156679 20.994,13.473 C20.8726661,13.2303321 20.6993345,12.9963345 20.474,12.771 C20.2486655,12.5456655 19.971335,12.3463342 19.642,12.173 C19.312665,11.9996658 18.9356688,11.882667 18.511,11.822 L18.511,11.822 L18.511,10.951 C18.511,10.8556662 18.4763337,10.7733337 18.407,10.704 C18.3376663,10.6346663 18.2553338,10.6 18.16,10.6 L18.16,10.6 Z" id="Combined-Shape" fill="#FFC8A4"></path>
                        </g>
                        <text id="Killian-Roberts" font-family="Axiforma-Book, Axiforma" font-size="12" font-weight="300" fill="#04004D">
                            <tspan x="87" y="33">Killian Roberts</tspan>
                        </text>
                        <text id="$455.80" font-family="Axiforma-Book, Axiforma" font-size="14" font-weight="300" fill="#04004D">
                            <tspan x="270.478" y="54">$455.80</tspan>
                        </text>
                        <g id="Group-36" transform="translate(249.000000, 17.000000)">
                            <rect id="Rectangle" fill="#FFF9E6" x="0" y="0" width="75" height="17" rx="2"></rect>
                            <text id="Due-soon" font-family="Axiforma-Book, Axiforma" font-size="12" font-weight="300" fill="#FF9D42">
                                <tspan x="10" y="13">Due soon</tspan>
                            </text>
                        </g>
                        <text id="Invoice-n°48" font-family="Axiforma-Book, Axiforma" font-size="12" font-weight="300" fill="#93A9B7">
                            <tspan x="87" y="54">Invoice n°48</tspan>
                        </text>
                    </g>
                    <g id="Group-33" opacity="0.329241071" transform="translate(38.000000, 43.000000)" fill="#B9CAD5">
                        <circle id="Oval" cx="1.5" cy="15.5" r="1.5"></circle>
                        <circle id="Oval" cx="15.5" cy="15.5" r="1.5"></circle>
                        <circle id="Oval" cx="28.5" cy="15.5" r="1.5"></circle>
                        <circle id="Oval" cx="42.5" cy="15.5" r="1.5"></circle>
                        <circle id="Oval" cx="1.5" cy="29.5" r="1.5"></circle>
                        <circle id="Oval" cx="15.5" cy="29.5" r="1.5"></circle>
                        <circle id="Oval" cx="28.5" cy="29.5" r="1.5"></circle>
                        <circle id="Oval" cx="42.5" cy="29.5" r="1.5"></circle>
                        <circle id="Oval" cx="1.5" cy="43.5" r="1.5"></circle>
                        <circle id="Oval" cx="15.5" cy="43.5" r="1.5"></circle>
                        <circle id="Oval" cx="28.5" cy="43.5" r="1.5"></circle>
                        <circle id="Oval" cx="42.5" cy="43.5" r="1.5"></circle>
                        <circle id="Oval" cx="1.5" cy="57.5" r="1.5"></circle>
                        <circle id="Oval" cx="15.5" cy="57.5" r="1.5"></circle>
                        <circle id="Oval" cx="28.5" cy="57.5" r="1.5"></circle>
                        <circle id="Oval" cx="42.5" cy="57.5" r="1.5"></circle>
                        <circle id="Oval" cx="55.5" cy="15.5" r="1.5"></circle>
                        <circle id="Oval" cx="1.5" cy="1.5" r="1.5"></circle>
                        <circle id="Oval" cx="15.5" cy="1.5" r="1.5"></circle>
                        <circle id="Oval" cx="28.5" cy="1.5" r="1.5"></circle>
                        <circle id="Oval" cx="42.5" cy="1.5" r="1.5"></circle>
                        <circle id="Oval" cx="55.5" cy="1.5" r="1.5"></circle>
                        <circle id="Oval" cx="55.5" cy="29.5" r="1.5"></circle>
                        <circle id="Oval" cx="55.5" cy="43.5" r="1.5"></circle>
                        <circle id="Oval" cx="55.5" cy="57.5" r="1.5"></circle>
                    </g>
                </g>
            </g>
        </g>
    </g>
</svg>