<?xml version="1.0" encoding="UTF-8"?>
<svg width="524px" height="593px" viewBox="0 0 524 593" version="1.1" xmlns="http://www.w3.org/2000/svg" xmlns:xlink="http://www.w3.org/1999/xlink">
    <!-- Generator: sketchtool 59.1 (101010) - https://sketch.com -->
    <title>0E9FFD21-D7D0-4107-909F-C13C5F4EEE1B</title>
    <desc>Created with sketchtool.</desc>
    <defs>
        <path d="M374,0 C387.807119,-2.53632657e-15 399,11.1928813 399,25 L399,394 L399,394 C390.715729,394 384,400.715729 384,409 C384,417.284271 390.715729,424 399,424 L399,508 C399,521.807119 387.807119,533 374,533 L25,533 C11.1928813,533 1.69088438e-15,521.807119 0,508 L0,424 C8.28427125,424 15,417.284271 15,409 C15,400.715729 8.28427125,394 0,394 L0,25 C-1.69088438e-15,11.1928813 11.1928813,2.53632657e-15 25,0 L374,0 Z" id="path-1"></path>
        <filter x="-10.5%" y="-7.9%" width="124.1%" height="118.0%" filterUnits="objectBoundingBox" id="filter-2">
            <feOffset dx="6" dy="6" in="SourceAlpha" result="shadowOffsetOuter1"></feOffset>
            <feGaussianBlur stdDeviation="15" in="shadowOffsetOuter1" result="shadowBlurOuter1"></feGaussianBlur>
            <feColorMatrix values="0 0 0 0 0.823529412   0 0 0 0 0.843137255   0 0 0 0 0.905882353  0 0 0 0.3 0" type="matrix" in="shadowBlurOuter1"></feColorMatrix>
        </filter>
        <path d="M24,0 C10.7665297,0 0,10.7665297 0,24 C0,37.2334703 10.7665297,48 24,48 C37.2334703,48 48,37.2334703 48,24 C48,10.7665297 37.2334703,0 24,0 Z" id="path-3"></path>
        <filter x="-42.7%" y="-32.3%" width="185.4%" height="185.4%" filterUnits="objectBoundingBox" id="filter-4">
            <feOffset dx="0" dy="5" in="SourceAlpha" result="shadowOffsetOuter1"></feOffset>
            <feGaussianBlur stdDeviation="6" in="shadowOffsetOuter1" result="shadowBlurOuter1"></feGaussianBlur>
            <feColorMatrix values="0 0 0 0 0.376370087   0 0 0 0 0.815217391   0 0 0 0 0.652989478  0 0 0 0.35 0" type="matrix" in="shadowBlurOuter1"></feColorMatrix>
        </filter>
        <rect id="path-5" x="0" y="0" width="363" height="82" rx="10"></rect>
        <filter x="-6.5%" y="-26.2%" width="112.9%" height="157.3%" filterUnits="objectBoundingBox" id="filter-6">
            <feOffset dx="0" dy="2" in="SourceAlpha" result="shadowOffsetOuter1"></feOffset>
            <feGaussianBlur stdDeviation="7.5" in="shadowOffsetOuter1" result="shadowBlurOuter1"></feGaussianBlur>
            <feColorMatrix values="0 0 0 0 0.823529412   0 0 0 0 0.866666667   0 0 0 0 0.905882353  0 0 0 0.3 0" type="matrix" in="shadowBlurOuter1"></feColorMatrix>
        </filter>
        <rect id="path-7" x="0" y="0" width="363" height="82" rx="10"></rect>
        <filter x="-6.5%" y="-26.2%" width="112.9%" height="157.3%" filterUnits="objectBoundingBox" id="filter-8">
            <feOffset dx="0" dy="2" in="SourceAlpha" result="shadowOffsetOuter1"></feOffset>
            <feGaussianBlur stdDeviation="7.5" in="shadowOffsetOuter1" result="shadowBlurOuter1"></feGaussianBlur>
            <feColorMatrix values="0 0 0 0 0.823529412   0 0 0 0 0.866666667   0 0 0 0 0.905882353  0 0 0 0.3 0" type="matrix" in="shadowBlurOuter1"></feColorMatrix>
        </filter>
    </defs>
    <g id="Full-landing" stroke="none" stroke-width="1" fill="none" fill-rule="evenodd">
        <g id="landing-green-v1.3-2" transform="translate(-826.000000, -2497.000000)">
            <g id="Group-54" transform="translate(5.000000, 2238.000000)">
                <g id="Invoicing" transform="translate(836.000000, 283.000000)">
                    <g id="Group-33" opacity="0.329241071" transform="translate(445.000000, 504.000000)" fill="#B9CAD5">
                        <circle id="Oval" cx="1.5" cy="15.5" r="1.5"></circle>
                        <circle id="Oval" cx="15.5" cy="15.5" r="1.5"></circle>
                        <circle id="Oval" cx="28.5" cy="15.5" r="1.5"></circle>
                        <circle id="Oval" cx="42.5" cy="15.5" r="1.5"></circle>
                        <circle id="Oval" cx="1.5" cy="29.5" r="1.5"></circle>
                        <circle id="Oval" cx="15.5" cy="29.5" r="1.5"></circle>
                        <circle id="Oval" cx="28.5" cy="29.5" r="1.5"></circle>
                        <circle id="Oval" cx="42.5" cy="29.5" r="1.5"></circle>
                        <circle id="Oval" cx="1.5" cy="43.5" r="1.5"></circle>
                        <circle id="Oval" cx="15.5" cy="43.5" r="1.5"></circle>
                        <circle id="Oval" cx="28.5" cy="43.5" r="1.5"></circle>
                        <circle id="Oval" cx="42.5" cy="43.5" r="1.5"></circle>
                        <circle id="Oval" cx="1.5" cy="57.5" r="1.5"></circle>
                        <circle id="Oval" cx="15.5" cy="57.5" r="1.5"></circle>
                        <circle id="Oval" cx="28.5" cy="57.5" r="1.5"></circle>
                        <circle id="Oval" cx="42.5" cy="57.5" r="1.5"></circle>
                        <circle id="Oval" cx="55.5" cy="15.5" r="1.5"></circle>
                        <circle id="Oval" cx="1.5" cy="1.5" r="1.5"></circle>
                        <circle id="Oval" cx="15.5" cy="1.5" r="1.5"></circle>
                        <circle id="Oval" cx="28.5" cy="1.5" r="1.5"></circle>
                        <circle id="Oval" cx="42.5" cy="1.5" r="1.5"></circle>
                        <circle id="Oval" cx="55.5" cy="1.5" r="1.5"></circle>
                        <circle id="Oval" cx="55.5" cy="29.5" r="1.5"></circle>
                        <circle id="Oval" cx="55.5" cy="43.5" r="1.5"></circle>
                        <circle id="Oval" cx="55.5" cy="57.5" r="1.5"></circle>
                    </g>
                    <g id="Group-35" transform="translate(74.000000, 0.000000)">
                        <g id="Combined-Shape">
                            <use fill="black" fill-opacity="1" filter="url(#filter-2)" xlink:href="#path-1"></use>
                            <use fill="#FFFFFF" fill-rule="evenodd" xlink:href="#path-1"></use>
                        </g>
                        <path d="M142.9,60 L144.74,60 L144.74,45.22 L142.9,45.22 L142.9,60 Z M149.94,60 L149.94,54.04 C149.94,53.06 150.22,52.24 150.78,51.62 C151.34,51 152.06,50.68 152.96,50.68 C154.62,50.68 155.76,51.88 155.76,54.04 L155.76,60 L157.54,60 L157.54,53.52 C157.54,52.06 157.14,50.96 156.32,50.18 C155.5,49.4 154.5,49.02 153.3,49.02 C151.72,49.02 150.58,49.62 149.9,50.82 L149.9,49.3 L148.16,49.3 L148.16,60 L149.94,60 Z M164.16,57.46 L160.8,49.3 L158.82,49.3 L163.54,59.98 L164.74,59.98 L169.46,49.3 L167.5,49.3 L164.16,57.46 Z M170.14,54.64 C170.14,56.22 170.66,57.56 171.72,58.64 C172.78,59.72 174.12,60.26 175.74,60.26 C177.36,60.26 178.7,59.72 179.76,58.64 C180.82,57.56 181.34,56.22 181.34,54.64 C181.34,53.08 180.8,51.76 179.74,50.68 C178.68,49.58 177.36,49.04 175.74,49.04 C174.12,49.04 172.78,49.58 171.72,50.68 C170.66,51.76 170.14,53.08 170.14,54.64 Z M179.54,54.64 C179.54,55.74 179.18,56.68 178.44,57.46 C177.7,58.24 176.8,58.62 175.74,58.62 C174.68,58.62 173.78,58.24 173.04,57.46 C172.3,56.68 171.94,55.74 171.94,54.64 C171.94,53.56 172.3,52.64 173.04,51.86 C173.78,51.08 174.68,50.68 175.74,50.68 C176.8,50.68 177.7,51.08 178.44,51.86 C179.18,52.64 179.54,53.56 179.54,54.64 Z M184.62,47.74 C185.34,47.74 185.92,47.16 185.92,46.42 C185.92,45.68 185.34,45.12 184.62,45.12 C183.84,45.12 183.28,45.68 183.28,46.42 C183.28,47.16 183.84,47.74 184.62,47.74 Z M185.48,49.3 L183.7,49.3 L183.7,60 L185.48,60 L185.48,49.3 Z M193.48,60.24 C195.56,60.24 197.48,59.12 198.36,57.5 L196.88,56.64 C196.58,57.2 196.1,57.66 195.46,58.04 C194.82,58.42 194.16,58.6 193.48,58.6 C192.38,58.6 191.46,58.22 190.72,57.48 C190,56.72 189.64,55.78 189.64,54.66 C189.64,53.52 190.02,52.58 190.76,51.82 C191.5,51.06 192.44,50.68 193.58,50.68 C194.96,50.68 196.2,51.46 196.94,52.68 L198.42,51.82 C197.6,50.14 195.68,49.04 193.58,49.04 C191.9,49.04 190.52,49.56 189.44,50.62 C188.38,51.68 187.84,53.02 187.84,54.66 C187.84,56.28 188.36,57.62 189.42,58.68 C190.48,59.72 191.82,60.24 193.48,60.24 Z M210.34,54.46 C210.34,52.8 209.86,51.48 208.9,50.5 C207.94,49.52 206.7,49.04 205.2,49.04 C203.62,49.04 202.32,49.56 201.32,50.62 C200.32,51.68 199.82,53 199.82,54.62 C199.82,57.42 201.48,60.24 205.5,60.24 C207.28,60.24 209.04,59.56 210.08,58.74 L209.32,57.36 C208.3,58.08 206.82,58.58 205.54,58.58 C203.22,58.58 202,57.26 201.7,55.4 L210.28,55.4 L210.325,54.8025 C210.335,54.645 210.34,54.53 210.34,54.46 Z M205.2,50.66 C206.98,50.66 208.36,51.88 208.46,53.8 L201.7,53.8 C202,51.94 203.36,50.66 205.2,50.66 Z M219.38,60 L219.38,54.04 C219.38,53.06 219.66,52.24 220.22,51.62 C220.78,51 221.5,50.68 222.4,50.68 C224.06,50.68 225.2,51.88 225.2,54.04 L225.2,60 L226.98,60 L226.98,53.52 C226.98,52.06 226.58,50.96 225.76,50.18 C224.94,49.4 223.94,49.02 222.74,49.02 C221.16,49.02 220.02,49.62 219.34,50.82 L219.34,49.3 L217.6,49.3 L217.6,60 L219.38,60 Z M229.16,46.42 C229.16,47.18 229.44,47.82 229.98,48.36 C230.54,48.9 231.22,49.16 232,49.16 C232.78,49.16 233.46,48.9 234,48.36 C234.54,47.82 234.82,47.18 234.82,46.42 C234.82,45.64 234.54,45 234,44.46 C233.46,43.92 232.78,43.64 232,43.64 C231.22,43.64 230.54,43.92 229.98,44.46 C229.44,45 229.16,45.64 229.16,46.42 Z M230.86,47.56 C230.24,46.94 230.24,45.9 230.86,45.26 C231.5,44.62 232.5,44.62 233.12,45.26 C233.76,45.9 233.76,46.94 233.12,47.56 C232.5,48.18 231.5,48.18 230.86,47.56 Z M241.26,50.34 C240.36,50.34 239.56,50.54 238.82,50.96 L239.34,46.86 L245.22,46.86 L245.22,45.22 L237.9,45.22 L237.04,52.6 L238.3,53.26 C239.04,52.46 239.96,52.06 241.06,52.06 C242,52.06 242.78,52.36 243.4,52.98 C244.02,53.6 244.34,54.36 244.34,55.28 C244.34,56.22 244.02,57 243.38,57.62 C242.76,58.24 241.94,58.54 240.96,58.54 C239.68,58.54 238.44,58.02 237.22,57 L236.32,58.44 C237.74,59.64 239.3,60.24 241.02,60.24 C242.52,60.24 243.76,59.78 244.74,58.84 C245.72,57.9 246.22,56.72 246.22,55.26 C246.22,53.84 245.74,52.66 244.8,51.74 C243.86,50.8 242.68,50.34 241.26,50.34 Z M255,53.48 L250.66,58.28 L257.14,58.28 L257.14,60 L247.98,60 L247.98,58.46 L253.122187,52.9275 C253.48125,52.5375 253.77,52.215 253.98,51.96 C254.56,51.24 255.16,50.14 255.16,49.24 C255.16,48.48 254.9,47.86 254.36,47.38 C253.82,46.9 253.16,46.66 252.38,46.66 C251.12,46.66 249.92,47.22 248.78,48.34 L247.74,47.02 C249.16,45.64 250.7,44.96 252.4,44.96 C253.74,44.96 254.82,45.36 255.66,46.18 C256.52,46.98 256.94,48.04 256.94,49.38 C256.94,50.68 256.3,52.06 255,53.48 Z" id="Invoicen°52" fill="#93A9B7" fill-rule="nonzero"></path>
                        <g id="Group-37" transform="translate(74.000000, 447.000000)" fill-rule="nonzero">
                            <path d="M68.9,15.22 L68.9,30 L70.74,30 L70.74,24.26 L73.58,24.26 C75.16,24.26 76.36,23.82 77.2,22.94 C78.06,22.04 78.48,20.98 78.48,19.74 C78.48,18.52 78.08,17.46 77.26,16.56 C76.46,15.66 75.3,15.22 73.76,15.22 L68.9,15.22 Z M70.74,22.52 L70.74,16.98 L73.88,16.98 C75.64,16.98 76.62,18.2 76.62,19.7 C76.62,21.24 75.6,22.52 73.6,22.52 L70.74,22.52 Z M88.86,20.88 C87.88,19.66 86.6,19.04 85.04,19.04 C83.5,19.04 82.22,19.56 81.2,20.62 C80.18,21.66 79.68,22.98 79.68,24.58 C79.68,26.2 80.18,27.54 81.2,28.64 C82.22,29.72 83.5,30.26 85.04,30.26 C86.62,30.26 87.88,29.66 88.86,28.46 L88.86,30 L90.58,30 L90.58,19.3 L88.86,19.3 L88.86,20.88 Z M89,24.64 C89,25.76 88.64,26.7 87.94,27.48 C87.24,28.24 86.34,28.62 85.22,28.62 C84.1,28.62 83.2,28.24 82.5,27.48 C81.82,26.7 81.48,25.76 81.48,24.66 C81.48,23.54 81.82,22.6 82.5,21.84 C83.2,21.06 84.1,20.68 85.22,20.68 C86.34,20.68 87.24,21.06 87.94,21.84 C88.64,22.6 89,23.54 89,24.64 Z M97.84,27.5 L94.44,19.3 L92.38,19.3 L97.02,29.94 L96.6,30.98 C96.08,32.24 95.38,32.88 94.48,32.88 C94.12,32.88 93.68,32.78 93.18,32.56 L92.98,34.14 C93.4,34.4 93.94,34.54 94.64,34.54 C96.24,34.54 97.36,33.64 98.24,31.3 L102.76,19.3 L100.78,19.3 L97.84,27.5 Z M116.84,19.02 C115.16,19.02 113.66,19.82 112.94,21.02 C112.32,19.76 111,19.02 109.54,19.02 C108.12,19.02 106.96,19.74 106.32,20.88 L106.32,19.3 L104.58,19.3 L104.58,30 L106.36,30 L106.36,24 C106.36,22 107.56,20.68 109.3,20.68 C110.96,20.68 111.96,21.9 111.96,23.96 L111.96,30 L113.74,30 L113.74,23.96 C113.74,22.02 114.92,20.68 116.66,20.68 C118.28,20.68 119.3,21.84 119.3,23.92 L119.3,30 L121.08,30 L121.08,23.66 C121.08,22.24 120.7,21.12 119.94,20.28 C119.18,19.44 118.14,19.02 116.84,19.02 Z M133.84,24.46 C133.84,22.8 133.36,21.48 132.4,20.5 C131.44,19.52 130.2,19.04 128.7,19.04 C127.12,19.04 125.82,19.56 124.82,20.62 C123.82,21.68 123.32,23 123.32,24.62 C123.32,27.42 124.98,30.24 129,30.24 C130.78,30.24 132.54,29.56 133.58,28.74 L132.82,27.36 C131.8,28.08 130.32,28.58 129.04,28.58 C126.72,28.58 125.5,27.26 125.2,25.4 L133.78,25.4 L133.825,24.8025 C133.835,24.645 133.84,24.53 133.84,24.46 Z M128.7,20.66 C130.48,20.66 131.86,21.88 131.96,23.8 L125.2,23.8 C125.5,21.94 126.86,20.66 128.7,20.66 Z M137.94,30 L137.94,24.04 C137.94,23.06 138.22,22.24 138.78,21.62 C139.34,21 140.06,20.68 140.96,20.68 C142.62,20.68 143.76,21.88 143.76,24.04 L143.76,30 L145.54,30 L145.54,23.52 C145.54,22.06 145.14,20.96 144.32,20.18 C143.5,19.4 142.5,19.02 141.3,19.02 C139.72,19.02 138.58,19.62 137.9,20.82 L137.9,19.3 L136.16,19.3 L136.16,30 L137.94,30 Z M154.48,27.98 C153.8,28.4 153.16,28.62 152.54,28.62 C151.36,28.62 150.78,27.9 150.78,26.46 L150.78,20.84 L154.6,20.84 L154.6,19.3 L150.78,19.3 L150.78,15.52 L149.02,15.52 L149.02,19.3 L147.1,19.3 L147.1,20.84 L149,20.84 L149,26.28 C149,28.82 150.14,30.26 152.38,30.26 C153.48,30.26 154.42,29.96 155.18,29.36 L154.48,27.98 Z M163.48,30 L163.48,24.24 C163.48,21.94 164.72,20.74 166.46,20.74 C166.8,20.74 167.18,20.8 167.56,20.92 L167.72,19.18 C167.3,19.08 166.9,19.02 166.48,19.02 C165.04,19.02 164,19.64 163.38,20.9 L163.38,19.3 L161.7,19.3 L161.7,30 L163.48,30 Z M178.72,24.46 C178.72,22.8 178.24,21.48 177.28,20.5 C176.32,19.52 175.08,19.04 173.58,19.04 C172,19.04 170.7,19.56 169.7,20.62 C168.7,21.68 168.2,23 168.2,24.62 C168.2,27.42 169.86,30.24 173.88,30.24 C175.66,30.24 177.42,29.56 178.46,28.74 L177.7,27.36 C176.68,28.08 175.2,28.58 173.92,28.58 C171.6,28.58 170.38,27.26 170.08,25.4 L178.66,25.4 L178.705,24.8025 C178.715,24.645 178.72,24.53 178.72,24.46 Z M173.58,20.66 C175.36,20.66 176.74,21.88 176.84,23.8 L170.08,23.8 C170.38,21.94 171.74,20.66 173.58,20.66 Z M186,30.24 C188.08,30.24 190,29.12 190.88,27.5 L189.4,26.64 C189.1,27.2 188.62,27.66 187.98,28.04 C187.34,28.42 186.68,28.6 186,28.6 C184.9,28.6 183.98,28.22 183.24,27.48 C182.52,26.72 182.16,25.78 182.16,24.66 C182.16,23.52 182.54,22.58 183.28,21.82 C184.02,21.06 184.96,20.68 186.1,20.68 C187.48,20.68 188.72,21.46 189.46,22.68 L190.94,21.82 C190.12,20.14 188.2,19.04 186.1,19.04 C184.42,19.04 183.04,19.56 181.96,20.62 C180.9,21.68 180.36,23.02 180.36,24.66 C180.36,26.28 180.88,27.62 181.94,28.68 C183,29.72 184.34,30.24 186,30.24 Z M202.86,24.46 C202.86,22.8 202.38,21.48 201.42,20.5 C200.46,19.52 199.22,19.04 197.72,19.04 C196.14,19.04 194.84,19.56 193.84,20.62 C192.84,21.68 192.34,23 192.34,24.62 C192.34,27.42 194,30.24 198.02,30.24 C199.8,30.24 201.56,29.56 202.6,28.74 L201.84,27.36 C200.82,28.08 199.34,28.58 198.06,28.58 C195.74,28.58 194.52,27.26 194.22,25.4 L202.8,25.4 L202.845,24.8025 C202.855,24.645 202.86,24.53 202.86,24.46 Z M197.72,20.66 C199.5,20.66 200.88,21.88 200.98,23.8 L194.22,23.8 C194.52,21.94 195.88,20.66 197.72,20.66 Z M206.1,17.74 C206.82,17.74 207.4,17.16 207.4,16.42 C207.4,15.68 206.82,15.12 206.1,15.12 C205.32,15.12 204.76,15.68 204.76,16.42 C204.76,17.16 205.32,17.74 206.1,17.74 Z M206.96,19.3 L205.18,19.3 L205.18,30 L206.96,30 L206.96,19.3 Z M214.08,27.46 L210.72,19.3 L208.74,19.3 L213.46,29.98 L214.66,29.98 L219.38,19.3 L217.42,19.3 L214.08,27.46 Z M230.6,24.46 C230.6,22.8 230.12,21.48 229.16,20.5 C228.2,19.52 226.96,19.04 225.46,19.04 C223.88,19.04 222.58,19.56 221.58,20.62 C220.58,21.68 220.08,23 220.08,24.62 C220.08,27.42 221.74,30.24 225.76,30.24 C227.54,30.24 229.3,29.56 230.34,28.74 L229.58,27.36 C228.56,28.08 227.08,28.58 225.8,28.58 C223.48,28.58 222.26,27.26 221.96,25.4 L230.54,25.4 L230.585,24.8025 C230.595,24.645 230.6,24.53 230.6,24.46 Z M225.46,20.66 C227.24,20.66 228.62,21.88 228.72,23.8 L221.96,23.8 C222.26,21.94 223.62,20.66 225.46,20.66 Z M241.42,20.9 C240.44,19.66 239.18,19.04 237.6,19.04 C236.08,19.04 234.8,19.58 233.78,20.68 C232.76,21.76 232.24,23.08 232.24,24.64 C232.24,26.22 232.74,27.54 233.76,28.64 C234.78,29.72 236.08,30.26 237.64,30.26 C239.22,30.26 240.48,29.68 241.42,28.5 L241.42,30 L243.2,30 L243.2,14.86 L241.42,14.86 L241.42,20.9 Z M241.56,24.64 C241.56,25.76 241.22,26.7 240.52,27.48 C239.82,28.24 238.92,28.62 237.8,28.62 C236.68,28.62 235.78,28.24 235.08,27.48 C234.38,26.7 234.04,25.76 234.04,24.64 C234.04,23.54 234.38,22.6 235.08,21.84 C235.78,21.06 236.68,20.68 237.8,20.68 C238.92,20.68 239.82,21.06 240.52,21.84 C241.22,22.6 241.56,23.54 241.56,24.64 Z M248.54,26.48 L248.64,15.22 L246.64,15.22 L246.72,26.48 L248.54,26.48 Z M246.42,29 C246.42,28.34 246.96,27.8 247.66,27.8 C248.36,27.8 248.88,28.34 248.88,29 C248.88,29.72 248.36,30.24 247.66,30.24 C246.96,30.24 246.42,29.72 246.42,29 Z" id="Paymentreceived!" fill="#04004D"></path>
                            <g id="check">
                                <g id="Path">
                                    <use fill="black" fill-opacity="1" filter="url(#filter-4)" xlink:href="#path-3"></use>
                                    <use fill="#0ACE8B" xlink:href="#path-3"></use>
                                </g>
                                <path d="M37.2689676,19.2031603 L21.980368,34.2593024 C21.5150538,34.7175417 20.8701356,34.9805578 20.2122776,34.9805578 L20.2122776,36 L20.1900212,34.9805578 C19.5233641,34.9749508 18.8758579,34.7007209 18.4131317,34.2282094 L10.6999923,26.3550572 C9.74244917,25.3779218 9.77091667,23.816646 10.7631384,22.873662 C11.2315581,22.4281657 11.8480089,22.1834996 12.4986206,22.1834996 C13.1833934,22.1834996 13.8226181,22.4505935 14.2982841,22.935848 L20.2443682,29.0050972 L33.7338218,15.7212554 C34.2058647,15.2563897 34.8337025,15 35.5019123,15 C36.1696045,15 36.7974423,15.25588 37.2694852,15.7207456 C38.2435912,16.6810602 38.2435912,18.2433554 37.2689676,19.2031603 Z" id="Path" stroke="#0ACE8B" fill="#FFFFFF"></path>
                            </g>
                        </g>
                        <path d="M138.305,361 C138.305,358.515 137.115,356.52 134.7,355.05 L134.42365,354.886667 C133.771956,354.512556 132.775,354.007 131.41,353.37 L130.173815,352.75506 C129.306972,352.315398 128.731471,352.002941 128.435,351.83 C126.93,350.885 126.195,349.765 126.195,348.435 C126.195,346.335 127.945,344.97 130.22,344.97 C132.25,344.97 133.965,345.88 135.365,347.735 L137.745,345.495 C136.24,343.465 134.28,342.24 131.795,341.785 L131.795,338.495 L129.205,338.495 L129.205,341.715 C125.11,342.135 122.45,344.97 122.45,348.645 C122.45,351.13 123.745,353.16 126.3,354.77 L126.629545,354.971429 C127.275651,355.354852 128.155,355.817308 129.31,356.38 L131.254141,357.282686 C131.519922,357.409219 131.711875,357.504375 131.83,357.57 C133.615,358.585 134.49,359.775 134.49,361.21 C134.49,363.31 132.705,365.06 129.8,365.06 C127.07,365.06 125.04,363.695 123.71,360.93 L121.085,363.065 C122.59,366.25 125.565,368.105 128.925,368.385 L128.925,371.92 L131.515,371.92 L131.515,368.28 C133.51,367.965 135.155,367.16 136.415,365.865 C137.675,364.57 138.305,362.925 138.305,361 Z M149.75,351.13 C148.245,351.13 146.845,351.48 145.55,352.145 L146.425,345.25 L156.68,345.25 L156.68,342.135 L143.73,342.135 L142.26,355.05 L144.57,356.38 C145.865,355.015 147.475,354.315 149.33,354.315 C150.94,354.315 152.27,354.84 153.32,355.89 C154.37,356.905 154.895,358.2 154.895,359.74 C154.895,361.315 154.37,362.61 153.285,363.66 C152.2,364.675 150.835,365.2 149.12,365.2 C146.88,365.2 144.71,364.325 142.61,362.575 L140.965,365.305 C143.45,367.37 146.215,368.42 149.26,368.42 C151.92,368.42 154.125,367.615 155.84,365.97 C157.555,364.325 158.43,362.225 158.43,359.705 C158.43,357.22 157.59,355.19 155.945,353.58 C154.3,351.935 152.235,351.13 149.75,351.13 Z M163.96,364.22 C162.735,364.22 161.685,365.235 161.685,366.39 C161.685,367.475 162.56,368.385 163.645,368.385 L163.785,368.385 C163.715,368.525 163.645,368.665 163.54,368.77 C163.225,369.26 162.35,370.03 160.95,371.08 L162.035,372.585 C164.94,370.73 166.375,368.805 166.375,366.81 C166.375,365.305 165.36,364.22 163.96,364.22 Z M168.335,345.25 L180.655,345.25 L170.785,368 L174.53,368 L184.61,344.2 L184.61,342.135 L168.335,342.135 L168.335,345.25 Z M195.95,368.42 C198.645,368.42 200.885,367.72 202.6,366.32 C204.315,364.92 205.19,363.17 205.19,361.035 C205.19,358.13 203.195,355.47 200.08,354.35 L200.08,354.245 C202.6,353.09 204.105,350.955 204.105,348.47 C204.105,346.51 203.335,344.9 201.83,343.605 C200.325,342.31 198.365,341.68 195.95,341.68 C193.535,341.68 191.54,342.31 190.035,343.605 C188.53,344.9 187.76,346.51 187.76,348.47 C187.76,350.885 189.23,353.09 191.75,354.245 L191.75,354.315 C188.67,355.47 186.675,358.13 186.675,361.035 C186.675,363.17 187.55,364.92 189.265,366.32 C190.98,367.72 193.22,368.42 195.95,368.42 Z M200.745,348.785 C200.745,351.13 198.855,352.915 195.915,352.915 C192.975,352.915 191.05,351.13 191.05,348.785 C191.05,346.37 193.01,344.62 195.95,344.62 C198.785,344.62 200.745,346.37 200.745,348.785 Z M195.95,365.375 C192.485,365.375 190.105,363.38 190.105,360.58 C190.105,357.885 192.415,355.925 195.95,355.925 C199.45,355.925 201.725,357.885 201.725,360.58 C201.725,363.38 199.345,365.375 195.95,365.375 Z M218.77,368.42 C226.26,368.42 228.85,361.315 228.85,355.05 C228.85,348.785 226.26,341.68 218.77,341.68 C215.165,341.68 212.4,343.395 210.86,346.055 C209.355,348.715 208.655,351.725 208.655,355.05 C208.655,358.375 209.355,361.385 210.86,364.045 C212.4,366.705 215.165,368.42 218.77,368.42 Z M225.315,355.05 C225.315,358.025 224.79,360.44 223.705,362.33 C222.62,364.22 220.975,365.165 218.77,365.165 C216.565,365.165 214.92,364.22 213.835,362.33 C212.75,360.44 212.225,358.025 212.225,355.05 C212.225,352.11 212.75,349.695 213.835,347.805 C214.92,345.88 216.565,344.935 218.77,344.935 C220.975,344.935 222.62,345.88 223.705,347.805 C224.79,349.695 225.315,352.11 225.315,355.05 Z M231.615,366.285 C231.615,367.58 232.595,368.56 233.855,368.56 C235.115,368.56 236.095,367.58 236.095,366.285 C236.095,365.06 235.115,364.115 233.855,364.115 C232.595,364.115 231.615,365.06 231.615,366.285 Z M237.985,345.25 L250.305,345.25 L240.435,368 L244.18,368 L254.26,344.2 L254.26,342.135 L237.985,342.135 L237.985,345.25 Z M266.44,368.42 C273.93,368.42 276.52,361.315 276.52,355.05 C276.52,348.785 273.93,341.68 266.44,341.68 C262.835,341.68 260.07,343.395 258.53,346.055 C257.025,348.715 256.325,351.725 256.325,355.05 C256.325,358.375 257.025,361.385 258.53,364.045 C260.07,366.705 262.835,368.42 266.44,368.42 Z M272.985,355.05 C272.985,358.025 272.46,360.44 271.375,362.33 C270.29,364.22 268.645,365.165 266.44,365.165 C264.235,365.165 262.59,364.22 261.505,362.33 C260.42,360.44 259.895,358.025 259.895,355.05 C259.895,352.11 260.42,349.695 261.505,347.805 C262.59,345.88 264.235,344.935 266.44,344.935 C268.645,344.935 270.29,345.88 271.375,347.805 C272.46,349.695 272.985,352.11 272.985,355.05 Z" id="$5,780.70" fill="#93A9B7" fill-rule="nonzero"></path>
                        <rect id="Rectangle" fill-opacity="0.0940504808" fill="#93A9B7" x="45" y="101" width="310" height="7" rx="3.5"></rect>
                        <rect id="Rectangle" fill-opacity="0.0940504808" fill="#93A9B7" x="45" y="126" width="310" height="7" rx="3.5"></rect>
                        <rect id="Rectangle" fill-opacity="0.0940504808" fill="#93A9B7" x="45" y="221" width="310" height="7" rx="3.5"></rect>
                        <rect id="Rectangle" fill-opacity="0.0940504808" fill="#93A9B7" x="45" y="246" width="310" height="7" rx="3.5"></rect>
                        <rect id="Rectangle" fill-opacity="0.0940504808" fill="#93A9B7" x="45" y="271" width="310" height="7" rx="3.5"></rect>
                        <rect id="Rectangle" fill-opacity="0.0940504808" fill="#93A9B7" x="45" y="196" width="310" height="7" rx="3.5"></rect>
                        <line x1="15" y1="409.5" x2="384" y2="409.5" id="Path-15" stroke="#DFE5E9" stroke-linecap="round" stroke-dasharray="10"></line>
                        <line x1="45" y1="312.5" x2="355" y2="312.5" id="Path-16" stroke-opacity="0.852764423" stroke="#E8ECEF" stroke-linecap="round"></line>
                    </g>
                    <g id="Group-24" transform="translate(0.000000, 123.000000)">
                        <g id="Rectangle">
                            <use fill="black" fill-opacity="1" filter="url(#filter-6)" xlink:href="#path-5"></use>
                            <use fill="#FFFFFF" fill-rule="evenodd" xlink:href="#path-5"></use>
                        </g>
                        <g id="Group-17" transform="translate(39.000000, 25.000000)">
                            <rect id="Rectangle" fill="#FFF7EA" x="0" y="0" width="35" height="35" rx="8"></rect>
                            <path d="M25,7 C26.1045695,7 27,7.8954305 27,9 L27,27.3594875 C27,27.5251729 26.8656854,27.6594875 26.7,27.6594875 C26.629819,27.6594875 26.5618592,27.6348827 26.5079447,27.5899539 L24.1920553,25.6600461 C24.0808015,25.5673346 23.9191985,25.5673346 23.8079447,25.6600461 L21.1920553,27.8399539 C21.0808015,27.9326654 20.9191985,27.9326654 20.8079447,27.8399539 L18.1920553,25.6600461 C18.0808015,25.5673346 17.9191985,25.5673346 17.8079447,25.6600461 L15.1920553,27.8399539 C15.0808015,27.9326654 14.9191985,27.9326654 14.8079447,27.8399539 L12.1920553,25.6600461 C12.0808015,25.5673346 11.9191985,25.5673346 11.8079447,25.6600461 L9.49205532,27.5899539 C9.36477225,27.6960231 9.17560284,27.6788259 9.06953362,27.5515428 C9.02460487,27.4976283 9,27.4296685 9,27.3594875 L9,9 C9,7.8954305 9.8954305,7 11,7 L25,7 Z M18.16,10.6 L17.627,10.6 C17.5316662,10.6 17.4493337,10.6346663 17.38,10.704 C17.3106663,10.7733337 17.276,10.8556662 17.276,10.951 L17.276,10.951 L17.276,11.809 C16.8599979,11.8610003 16.4960016,11.9649992 16.184,12.121 C15.8719984,12.2770008 15.6141677,12.4676655 15.4105,12.693 C15.2068323,12.9183345 15.0530005,13.1696653 14.949,13.447 C14.8449995,13.7243347 14.793,14.0059986 14.793,14.292 C14.793,14.5866681 14.8341663,14.8596654 14.9165,15.111 C14.9988337,15.3623346 15.1353324,15.591999 15.326,15.8 C15.5166676,16.008001 15.7636652,16.1921659 16.067,16.3525 C16.3703349,16.5128341 16.7386645,16.6493328 17.172,16.762 C17.4103345,16.822667 17.6362091,16.8817085 17.8496252,16.939125 L17.8496252,16.939125 L18.4525,17.1065 C18.8295019,17.2148339 19.1479987,17.3339993 19.408,17.464 C19.6680013,17.5940006 19.8673326,17.7391659 20.006,17.8995 C20.1446674,18.0598341 20.214,18.2526655 20.214,18.478 C20.214,18.7033345 20.1533339,18.9069991 20.032,19.089 C19.9106661,19.2710009 19.746001,19.4269993 19.538,19.557 C19.329999,19.6870006 19.0895014,19.7866663 18.8165,19.856 C18.5434986,19.9253337 18.2553349,19.96 17.952,19.96 C17.5966649,19.96 17.2890013,19.9166671 17.029,19.83 C16.7689987,19.7433329 16.5480009,19.6371673 16.366,19.5115 C16.1839991,19.3858327 16.0388339,19.2515007 15.9305,19.1085 C15.8221661,18.9654993 15.7420003,18.8333339 15.69,18.712 L15.69,18.712 L15.6497812,18.6291248 C15.6083437,18.5543747 15.5632502,18.5040001 15.5145,18.478 C15.4494997,18.4433332 15.3736671,18.426 15.287,18.426 L15.287,18.426 L14.754,18.426 C14.6759996,18.426 14.6088336,18.4541664 14.5525,18.5105 C14.4961664,18.5668336 14.468,18.6339996 14.468,18.712 C14.4766667,18.9546679 14.5503326,19.2038321 14.689,19.4595 C14.8276674,19.7151679 15.0204988,19.9513322 15.2675,20.168 C15.5145012,20.3846677 15.8069983,20.5753325 16.145,20.74 C16.4830017,20.9046675 16.8599979,21.017333 17.276,21.078 L17.276,21.078 L17.276,21.949 C17.276,22.0443338 17.3106663,22.1266663 17.38,22.196 C17.4493337,22.2653337 17.5316662,22.3 17.627,22.3 L17.627,22.3 L18.16,22.3 C18.2553338,22.3 18.3376663,22.2653337 18.407,22.196 C18.4763337,22.1266663 18.511,22.0443338 18.511,21.949 L18.511,21.949 L18.511,21.104 C18.9530022,21.0606664 19.3559982,20.9653341 19.72,20.818 C20.0840018,20.6706659 20.3938321,20.4843345 20.6495,20.259 C20.9051679,20.0336655 21.1023326,19.7693348 21.241,19.466 C21.3796674,19.1626651 21.449,18.8333351 21.449,18.478 C21.449,18.1573317 21.3991672,17.8691679 21.2995,17.6135 C21.1998328,17.3578321 21.0416678,17.132501 20.825,16.9375 C20.6083323,16.742499 20.328835,16.5670008 19.9865,16.411 C19.644165,16.2549992 19.2260025,16.1120006 18.732,15.982 L18.732,15.982 L17.93796,15.76204 L17.497,15.631 C17.1589983,15.5269995 16.8795011,15.4121673 16.6585,15.2865 C16.4374989,15.1608327 16.2771672,15.0200008 16.1775,14.864 C16.0778328,14.7079992 16.028,14.5173345 16.028,14.292 C16.028,14.0666655 16.0799995,13.8695008 16.184,13.7005 C16.2880005,13.5314992 16.4266658,13.3906672 16.6,13.278 C16.7733342,13.1653328 16.9704989,13.0808336 17.1915,13.0245 C17.4125011,12.9681664 17.6443321,12.94 17.887,12.94 C18.2076683,12.94 18.4893321,12.9854995 18.732,13.0765 C18.9746679,13.1675005 19.1804992,13.2758327 19.3495,13.4015 C19.5185008,13.5271673 19.6528328,13.657166 19.7525,13.7915 C19.8521672,13.925834 19.9236665,14.0363329 19.967,14.123 L19.967,14.123 L20.0120938,14.2058752 C20.0567813,14.2806253 20.1002498,14.3309999 20.1425,14.357 C20.1988336,14.3916668 20.2746662,14.409 20.37,14.409 L20.37,14.409 L20.903,14.409 C20.9810004,14.409 21.050333,14.3808336 21.111,14.3245 C21.171667,14.2681664 21.1976667,14.2010004 21.189,14.123 C21.1803333,13.9323324 21.1153339,13.7156679 20.994,13.473 C20.8726661,13.2303321 20.6993345,12.9963345 20.474,12.771 C20.2486655,12.5456655 19.971335,12.3463342 19.642,12.173 C19.312665,11.9996658 18.9356688,11.882667 18.511,11.822 L18.511,11.822 L18.511,10.951 C18.511,10.8556662 18.4763337,10.7733337 18.407,10.704 C18.3376663,10.6346663 18.2553338,10.6 18.16,10.6 L18.16,10.6 Z" id="Combined-Shape" fill="#FFC8A4"></path>
                        </g>
                        <path d="M94.884,33 L91.296,24.132 L90.768,24.132 L87.156,33 L88.38,33 L89.316,30.636 L92.724,30.636 L93.66,33 L94.884,33 Z M92.34,29.58 L89.7,29.58 L91.02,26.172 L92.34,29.58 Z M97.032,23.916 L95.964,23.916 L95.964,33 L97.032,33 L97.032,23.916 Z M99.408,25.644 C99.84,25.644 100.188,25.296 100.188,24.852 C100.188,24.408 99.84,24.072 99.408,24.072 C98.94,24.072 98.604,24.408 98.604,24.852 C98.604,25.296 98.94,25.644 99.408,25.644 Z M99.924,26.58 L98.856,26.58 L98.856,33 L99.924,33 L99.924,26.58 Z M103.488,33.144 C104.148,33.144 104.7,32.952 105.12,32.58 C105.54,32.208 105.756,31.752 105.756,31.212 C105.756,30.516 105.396,29.976 104.664,29.592 L104.448889,29.4844444 C104.282667,29.4053333 104.072,29.312 103.824,29.208 L103.092,28.872 C102.744,28.704 102.564,28.44 102.564,28.092 C102.564,27.648 102.9,27.276 103.512,27.276 C104.088,27.276 104.544,27.528 104.868,28.032 L105.588,27.396 C105.204,26.724 104.4,26.364 103.584,26.364 C102.972,26.364 102.468,26.532 102.096,26.868 C101.724,27.204 101.544,27.624 101.544,28.14 C101.544,28.812 101.868,29.328 102.504,29.676 L102.657096,29.7570962 C102.718111,29.7872536 102.789201,29.8206297 102.870647,29.8575044 L103.739685,30.237551 C103.897959,30.3100408 104.012571,30.3668571 104.088,30.408 C104.496,30.636 104.7,30.924 104.7,31.272 C104.7,31.764 104.232,32.196 103.524,32.196 C102.936,32.196 102.336,31.848 101.964,31.164 L101.148,31.728 C101.628,32.676 102.528,33.144 103.488,33.144 Z M106.716,29.784 C106.716,30.732 107.028,31.536 107.664,32.184 C108.3,32.832 109.104,33.156 110.076,33.156 C111.048,33.156 111.852,32.832 112.488,32.184 C113.124,31.536 113.436,30.732 113.436,29.784 C113.436,28.848 113.112,28.056 112.476,27.408 C111.84,26.748 111.048,26.424 110.076,26.424 C109.104,26.424 108.3,26.748 107.664,27.408 C107.028,28.056 106.716,28.848 106.716,29.784 Z M112.356,29.784 C112.356,30.444 112.14,31.008 111.696,31.476 C111.252,31.944 110.712,32.172 110.076,32.172 C109.44,32.172 108.9,31.944 108.456,31.476 C108.012,31.008 107.796,30.444 107.796,29.784 C107.796,29.136 108.012,28.584 108.456,28.116 C108.9,27.648 109.44,27.408 110.076,27.408 C110.712,27.408 111.252,27.648 111.696,28.116 C112.14,28.584 112.356,29.136 112.356,29.784 Z M115.92,33 L115.92,29.424 C115.92,28.836 116.088,28.344 116.424,27.972 C116.76,27.6 117.192,27.408 117.732,27.408 C118.728,27.408 119.412,28.128 119.412,29.424 L119.412,33 L120.48,33 L120.48,29.112 C120.48,28.236 120.24,27.576 119.748,27.108 C119.256,26.64 118.656,26.412 117.936,26.412 C116.988,26.412 116.304,26.772 115.896,27.492 L115.896,26.58 L114.852,26.58 L114.852,33 L115.92,33 Z M131.316,33 L131.316,31.92 L126.516,31.92 L126.516,24.132 L125.412,24.132 L125.412,33 L131.316,33 Z M138.18,29.676 C138.18,28.68 137.892,27.888 137.316,27.3 C136.74,26.712 135.996,26.424 135.096,26.424 C134.148,26.424 133.368,26.736 132.768,27.372 C132.168,28.008 131.868,28.8 131.868,29.772 C131.868,31.452 132.864,33.144 135.276,33.144 C136.344,33.144 137.4,32.736 138.024,32.244 L137.568,31.416 C136.956,31.848 136.068,32.148 135.3,32.148 C133.908,32.148 133.176,31.356 132.996,30.24 L138.144,30.24 L138.176,29.7955556 C138.178667,29.744 138.18,29.704 138.18,29.676 Z M135.096,27.396 C136.164,27.396 136.992,28.128 137.052,29.28 L132.996,29.28 C133.176,28.164 133.992,27.396 135.096,27.396 Z M141.756,31.476 L139.74,26.58 L138.552,26.58 L141.384,32.988 L142.104,32.988 L144.936,26.58 L143.76,26.58 L141.756,31.476 Z M148.536,31.5 L150.3,26.58 L151.488,26.58 L148.776,33.78 C148.248,35.184 147.576,35.724 146.616,35.724 C146.196,35.724 145.872,35.64 145.62,35.484 L145.74,34.536 C146.04,34.668 146.304,34.728 146.52,34.728 C147.06,34.728 147.48,34.344 147.792,33.588 L148.044,32.964 L145.26,26.58 L146.496,26.58 L148.536,31.5 Z" id="AlisonLevy" fill="#04004D" fill-rule="nonzero"></path>
                        <path d="M265.886,55.228 C265.886,54.234 265.396,53.436 264.43,52.848 L264.240376,52.7348093 C263.98321,52.5902963 263.600889,52.4015556 263.1,52.162 L262.392741,51.8094074 C262.153358,51.6866914 261.983111,51.5942222 261.882,51.532 C261.294,51.168 261,50.706 261,50.146 C261,49.264 261.728,48.69 262.68,48.69 C263.506,48.69 264.192,49.068 264.738,49.824 L265.662,49.012 C265.06,48.172 264.262,47.668 263.268,47.514 L263.268,46.198 L262.344,46.198 L262.344,47.486 C261.518,47.556 260.86,47.836 260.356,48.354 C259.866,48.872 259.614,49.488 259.614,50.23 C259.614,51.21 260.132,52.022 261.154,52.68 C261.42,52.848 261.812,53.058 262.344,53.31 L262.944252,53.5846228 C263.148395,53.6807407 263.294444,53.7533333 263.38,53.8 C264.108,54.206 264.472,54.696 264.472,55.298 C264.472,56.194 263.73,56.922 262.512,56.922 C261.504,56.922 260.608,56.376 260.062,55.242 L259.054,56.012 C259.656,57.3 260.874,58.042 262.218,58.154 L262.218,59.568 L263.142,59.568 L263.142,58.126 C263.954,58.014 264.612,57.692 265.116,57.174 C265.634,56.642 265.886,55.998 265.886,55.228 Z M272.06,53.436 C272.97,52.442 273.418,51.476 273.418,50.566 C273.418,49.628 273.124,48.886 272.522,48.326 C271.934,47.752 271.178,47.472 270.24,47.472 C269.05,47.472 267.972,47.948 266.978,48.914 L267.706,49.838 C268.504,49.054 269.344,48.662 270.226,48.662 C270.772,48.662 271.234,48.83 271.612,49.166 C271.99,49.502 272.172,49.936 272.172,50.468 C272.172,51.098 271.752,51.868 271.346,52.372 L271.154327,52.5965714 C271.046816,52.7191429 270.922041,52.8571429 270.781102,53.0105714 L267.146,56.922 L267.146,58 L273.558,58 L273.558,56.796 L269.022,56.796 L272.06,53.436 Z M275.91,56.558 C275.448,56.558 275.042,56.936 275.042,57.384 C275.042,57.818 275.378,58.154 275.784,58.154 L275.84,58.154 C275.714,58.406 275.35,58.756 274.748,59.204 L275.154,59.778 C276.274,59.064 276.834,58.322 276.834,57.552 C276.834,56.978 276.456,56.558 275.91,56.558 Z M281.342,58.168 C282.378,58.168 283.218,57.888 283.876,57.328 C284.534,56.768 284.856,56.054 284.856,55.172 C284.856,53.898 284.086,52.918 282.84,52.638 L282.84,52.582 C283.918,52.246 284.646,51.322 284.646,50.202 C284.646,49.432 284.352,48.788 283.764,48.27 C283.176,47.738 282.42,47.472 281.496,47.472 C280.334,47.472 279.158,47.934 278.43,48.676 L279.102,49.586 C279.886,48.97 280.656,48.662 281.412,48.662 C282.49,48.662 283.316,49.306 283.316,50.356 C283.316,51.378 282.49,52.092 281.314,52.092 L280.026,52.092 L280.026,53.254 L281.3,53.254 C282.602,53.254 283.512,54.024 283.512,55.144 C283.512,56.222 282.672,56.978 281.342,56.978 C280.558,56.978 279.704,56.684 278.794,56.096 L278.192,57.146 C279.2,57.832 280.25,58.168 281.342,58.168 Z M290.078,58.126 C291.1,58.126 291.926,57.804 292.584,57.146 C293.242,56.488 293.578,55.662 293.578,54.668 C293.578,53.702 293.27,52.904 292.654,52.274 C292.052,51.644 291.282,51.322 290.344,51.322 C289.098,51.322 288.118,51.952 287.67,52.862 L287.628,52.862 C287.628,51.952 287.866,50.972 288.328,50.09 C288.79,49.208 289.644,48.592 290.694,48.592 C291.394,48.592 292.052,48.83 292.682,49.306 L293.214,48.326 C292.5,47.752 291.632,47.472 290.61,47.472 C287.759026,47.472 286.423254,50.1302512 286.356628,52.9214149 L286.354,53.142 C286.298,55.872 287.628,58.126 290.078,58.126 Z M292.318,54.668 C292.318,55.312 292.108,55.858 291.674,56.306 C291.24,56.74 290.722,56.964 290.092,56.964 C289.462,56.964 288.944,56.74 288.524,56.306 C288.104,55.858 287.894,55.312 287.894,54.682 C287.894,54.038 288.104,53.506 288.524,53.086 C288.958,52.666 289.49,52.456 290.12,52.456 C290.75,52.456 291.268,52.666 291.688,53.086 C292.108,53.506 292.318,54.038 292.318,54.668 Z M300.816,57.692 C301.894,57.034 302.454,55.886 302.734,54.696 C303.014,53.506 303.014,52.134 302.734,50.944 C302.454,49.754 301.894,48.592 300.816,47.962 C300.27,47.64 299.64,47.472 298.926,47.472 C298.212,47.472 297.582,47.64 297.036,47.962 C295.958,48.592 295.398,49.754 295.118,50.944 C294.838,52.134 294.838,53.506 295.118,54.696 C295.398,55.886 295.958,57.034 297.036,57.692 C297.582,58.014 298.212,58.168 298.926,58.168 C299.64,58.168 300.27,58.014 300.816,57.692 Z M298.926,56.964 C297.096968,56.9369032 296.251286,55.1791093 296.236695,53.0355881 L296.238,52.82 C296.238,51.616 296.462,50.622 296.896,49.852 C297.344,49.068 298.016,48.676 298.926,48.676 C299.836,48.676 300.522,49.068 300.956,49.852 C301.404,50.622 301.628,51.616 301.628,52.82 C301.628,54.038 301.404,55.032 300.956,55.802 C300.522,56.572 299.836,56.964 298.926,56.964 Z M304.05,57.356 C304.05,57.86 304.428,58.224 304.918,58.224 C305.408,58.224 305.772,57.86 305.772,57.356 C305.772,56.894 305.408,56.516 304.918,56.516 C304.428,56.516 304.05,56.894 304.05,57.356 Z M310.476,51.238 C309.846,51.238 309.286,51.378 308.768,51.672 L309.132,48.802 L313.248,48.802 L313.248,47.654 L308.124,47.654 L307.522,52.82 L308.404,53.282 C308.922,52.722 309.566,52.442 310.336,52.442 C310.994,52.442 311.54,52.652 311.974,53.086 C312.408,53.52 312.632,54.052 312.632,54.696 C312.632,55.354 312.408,55.9 311.96,56.334 C311.526,56.768 310.952,56.978 310.266,56.978 C309.37,56.978 308.502,56.614 307.648,55.9 L307.018,56.908 C308.012,57.748 309.104,58.168 310.308,58.168 C311.358,58.168 312.226,57.846 312.912,57.188 C313.598,56.53 313.948,55.704 313.948,54.682 C313.948,53.688 313.612,52.862 312.954,52.218 C312.296,51.56 311.47,51.238 310.476,51.238 Z M321.144,57.692 C322.222,57.034 322.782,55.886 323.062,54.696 C323.342,53.506 323.342,52.134 323.062,50.944 C322.782,49.754 322.222,48.592 321.144,47.962 C320.598,47.64 319.968,47.472 319.254,47.472 C318.54,47.472 317.91,47.64 317.364,47.962 C316.286,48.592 315.726,49.754 315.446,50.944 C315.166,52.134 315.166,53.506 315.446,54.696 C315.726,55.886 316.286,57.034 317.364,57.692 C317.91,58.014 318.54,58.168 319.254,58.168 C319.968,58.168 320.598,58.014 321.144,57.692 Z M319.254,56.964 C317.424968,56.9369032 316.579286,55.1791093 316.564695,53.0355881 L316.566,52.82 C316.566,51.616 316.79,50.622 317.224,49.852 C317.672,49.068 318.344,48.676 319.254,48.676 C320.164,48.676 320.85,49.068 321.284,49.852 C321.732,50.622 321.956,51.616 321.956,52.82 C321.956,54.038 321.732,55.032 321.284,55.802 C320.85,56.572 320.164,56.964 319.254,56.964 Z" id="$2,360.50" fill="#04004D" fill-rule="nonzero"></path>
                        <g id="Group-36" transform="translate(272.000000, 21.000000)">
                            <rect id="Rectangle" fill-opacity="0.511609484" fill="#CAEBFF" x="0" y="0" width="52" height="17" rx="2"></rect>
                            <path d="M14.284,13 C15.58,13 16.6,12.604 17.344,11.812 C18.088,11.02 18.46,9.94 18.46,8.584 C18.46,7.216 18.1,6.136 17.368,5.332 C16.636,4.528 15.652,4.132 14.404,4.132 L11.14,4.132 L11.14,13 L14.284,13 Z M12.244,5.188 L14.332,5.188 C15.268,5.188 16,5.5 16.516,6.136 C17.044,6.76 17.308,7.564 17.308,8.548 C17.308,9.544 17.044,10.36 16.516,10.996 C15.988,11.632 15.256,11.944 14.32,11.944 L12.244,11.944 L12.244,5.188 Z M21.052,13 L21.052,9.544 C21.052,8.164 21.796,7.444 22.84,7.444 C23.044,7.444 23.272,7.48 23.5,7.552 L23.596,6.508 C23.344,6.448 23.104,6.412 22.852,6.412 C21.988,6.412 21.364,6.784 20.992,7.54 L20.992,6.58 L19.984,6.58 L19.984,13 L21.052,13 Z M29.38,7.528 C28.792,6.796 28.024,6.424 27.088,6.424 C26.164,6.424 25.396,6.736 24.784,7.372 C24.172,7.996 23.872,8.788 23.872,9.748 C23.872,10.72 24.172,11.524 24.784,12.184 C25.396,12.832 26.164,13.156 27.088,13.156 C28.036,13.156 28.792,12.796 29.38,12.076 L29.38,13 L30.412,13 L30.412,6.58 L29.38,6.58 L29.38,7.528 Z M29.464,9.784 C29.464,10.456 29.248,11.02 28.828,11.488 C28.408,11.944 27.868,12.172 27.196,12.172 C26.524,12.172 25.984,11.944 25.564,11.488 C25.156,11.02 24.952,10.456 24.952,9.796 C24.952,9.124 25.156,8.56 25.564,8.104 C25.984,7.636 26.524,7.408 27.196,7.408 C27.868,7.408 28.408,7.636 28.828,8.104 C29.248,8.56 29.464,9.124 29.464,9.784 Z M35.248,4.792 C35.524,4.792 35.836,4.864 36.184,5.008 L36.508,4.108 C36.1,3.892 35.644,3.784 35.128,3.784 C33.7,3.784 32.764,4.648 32.764,6.136 L32.764,6.58 L31.636,6.58 L31.636,7.504 L32.764,7.504 L32.764,13 L33.832,13 L33.832,7.504 L35.884,7.504 L35.884,6.58 L33.832,6.58 L33.832,6.16 C33.832,5.248 34.3,4.792 35.248,4.792 Z M40.6,11.788 L41.02,12.616 C40.564,12.976 40,13.156 39.34,13.156 C37.996,13.156 37.312,12.292 37.312,10.768 L37.312,7.504 L36.172,7.504 L36.172,6.58 L37.324,6.58 L37.324,4.312 L38.38,4.312 L38.38,6.58 L40.672,6.58 L40.672,7.504 L38.38,7.504 L38.38,10.876 C38.38,11.74 38.728,12.172 39.436,12.172 C39.808,12.172 40.192,12.04 40.6,11.788 Z" id="Draft" fill="#54B4F0" fill-rule="nonzero"></path>
                        </g>
                        <path d="M88.14,57 L89.244,57 L89.244,48.132 L88.14,48.132 L88.14,57 Z M92.364,57 L92.364,53.424 C92.364,52.836 92.532,52.344 92.868,51.972 C93.204,51.6 93.636,51.408 94.176,51.408 C95.172,51.408 95.856,52.128 95.856,53.424 L95.856,57 L96.924,57 L96.924,53.112 C96.924,52.236 96.684,51.576 96.192,51.108 C95.7,50.64 95.1,50.412 94.38,50.412 C93.432,50.412 92.748,50.772 92.34,51.492 L92.34,50.58 L91.296,50.58 L91.296,57 L92.364,57 Z M100.896,55.476 L98.88,50.58 L97.692,50.58 L100.524,56.988 L101.244,56.988 L104.076,50.58 L102.9,50.58 L100.896,55.476 Z M104.484,53.784 C104.484,54.732 104.796,55.536 105.432,56.184 C106.068,56.832 106.872,57.156 107.844,57.156 C108.816,57.156 109.62,56.832 110.256,56.184 C110.892,55.536 111.204,54.732 111.204,53.784 C111.204,52.848 110.88,52.056 110.244,51.408 C109.608,50.748 108.816,50.424 107.844,50.424 C106.872,50.424 106.068,50.748 105.432,51.408 C104.796,52.056 104.484,52.848 104.484,53.784 Z M110.124,53.784 C110.124,54.444 109.908,55.008 109.464,55.476 C109.02,55.944 108.48,56.172 107.844,56.172 C107.208,56.172 106.668,55.944 106.224,55.476 C105.78,55.008 105.564,54.444 105.564,53.784 C105.564,53.136 105.78,52.584 106.224,52.116 C106.668,51.648 107.208,51.408 107.844,51.408 C108.48,51.408 109.02,51.648 109.464,52.116 C109.908,52.584 110.124,53.136 110.124,53.784 Z M113.172,49.644 C113.604,49.644 113.952,49.296 113.952,48.852 C113.952,48.408 113.604,48.072 113.172,48.072 C112.704,48.072 112.368,48.408 112.368,48.852 C112.368,49.296 112.704,49.644 113.172,49.644 Z M113.688,50.58 L112.62,50.58 L112.62,57 L113.688,57 L113.688,50.58 Z M118.488,57.144 C119.736,57.144 120.888,56.472 121.416,55.5 L120.528,54.984 C120.348,55.32 120.06,55.596 119.676,55.824 C119.292,56.052 118.896,56.16 118.488,56.16 C117.828,56.16 117.276,55.932 116.832,55.488 C116.4,55.032 116.184,54.468 116.184,53.796 C116.184,53.112 116.412,52.548 116.856,52.092 C117.3,51.636 117.864,51.408 118.548,51.408 C119.376,51.408 120.12,51.876 120.564,52.608 L121.452,52.092 C120.96,51.084 119.808,50.424 118.548,50.424 C117.54,50.424 116.712,50.736 116.064,51.372 C115.428,52.008 115.104,52.812 115.104,53.796 C115.104,54.768 115.416,55.572 116.052,56.208 C116.688,56.832 117.492,57.144 118.488,57.144 Z M128.604,53.676 C128.604,52.68 128.316,51.888 127.74,51.3 C127.164,50.712 126.42,50.424 125.52,50.424 C124.572,50.424 123.792,50.736 123.192,51.372 C122.592,52.008 122.292,52.8 122.292,53.772 C122.292,55.452 123.288,57.144 125.7,57.144 C126.768,57.144 127.824,56.736 128.448,56.244 L127.992,55.416 C127.38,55.848 126.492,56.148 125.724,56.148 C124.332,56.148 123.6,55.356 123.42,54.24 L128.568,54.24 L128.6,53.7955556 C128.602667,53.744 128.604,53.704 128.604,53.676 Z M125.52,51.396 C126.588,51.396 127.416,52.128 127.476,53.28 L123.42,53.28 C123.6,52.164 124.416,51.396 125.52,51.396 Z M134.028,57 L134.028,53.424 C134.028,52.836 134.196,52.344 134.532,51.972 C134.868,51.6 135.3,51.408 135.84,51.408 C136.836,51.408 137.52,52.128 137.52,53.424 L137.52,57 L138.588,57 L138.588,53.112 C138.588,52.236 138.348,51.576 137.856,51.108 C137.364,50.64 136.764,50.412 136.044,50.412 C135.096,50.412 134.412,50.772 134.004,51.492 L134.004,50.58 L132.96,50.58 L132.96,57 L134.028,57 Z M139.896,48.852 C139.896,49.308 140.064,49.692 140.388,50.016 C140.724,50.34 141.132,50.496 141.6,50.496 C142.068,50.496 142.476,50.34 142.8,50.016 C143.124,49.692 143.292,49.308 143.292,48.852 C143.292,48.384 143.124,48 142.8,47.676 C142.476,47.352 142.068,47.184 141.6,47.184 C141.132,47.184 140.724,47.352 140.388,47.676 C140.064,48 139.896,48.384 139.896,48.852 Z M140.916,49.536 C140.544,49.164 140.544,48.54 140.916,48.156 C141.3,47.772 141.9,47.772 142.272,48.156 C142.656,48.54 142.656,49.164 142.272,49.536 C141.9,49.908 141.3,49.908 140.916,49.536 Z M147.6,57.108 C148.476,57.108 149.184,56.832 149.748,56.268 C150.312,55.704 150.6,54.996 150.6,54.144 C150.6,53.316 150.336,52.632 149.808,52.092 C149.292,51.552 148.632,51.276 147.828,51.276 C146.76,51.276 145.92,51.816 145.536,52.596 L145.5,52.596 C145.5,51.816 145.704,50.976 146.1,50.22 C146.496,49.464 147.228,48.936 148.128,48.936 C148.728,48.936 149.292,49.14 149.832,49.548 L150.288,48.708 C149.676,48.216 148.932,47.976 148.056,47.976 C145.621765,47.976 144.476242,50.2368997 144.410964,52.6191564 L144.408,52.836 C144.36,55.176 145.5,57.108 147.6,57.108 Z M149.52,54.144 C149.52,54.696 149.34,55.164 148.968,55.548 C148.596,55.92 148.152,56.112 147.612,56.112 C147.072,56.112 146.628,55.92 146.268,55.548 C145.908,55.164 145.728,54.696 145.728,54.156 C145.728,53.604 145.908,53.148 146.268,52.788 C146.64,52.428 147.096,52.248 147.636,52.248 C148.176,52.248 148.62,52.428 148.98,52.788 C149.34,53.148 149.52,53.604 149.52,54.144 Z M151.02,50.232 L153.492,48.132 L154.392,48.132 L154.392,57 L153.276,57 L153.276,49.62 L151.644,51 L151.02,50.232 Z" id="Invoicen°61" fill="#93A9B7" fill-rule="nonzero"></path>
                    </g>
                    <g id="Group-24" transform="translate(0.000000, 220.000000)">
                        <g id="Rectangle">
                            <use fill="black" fill-opacity="1" filter="url(#filter-8)" xlink:href="#path-7"></use>
                            <use fill="#FFFFFF" fill-rule="evenodd" xlink:href="#path-7"></use>
                        </g>
                        <g id="Group-17" transform="translate(39.000000, 24.000000)">
                            <rect id="Rectangle" fill="#FFF7EA" x="0" y="0" width="35" height="35" rx="8"></rect>
                            <path d="M25,7 C26.1045695,7 27,7.8954305 27,9 L27,27.3594875 C27,27.5251729 26.8656854,27.6594875 26.7,27.6594875 C26.629819,27.6594875 26.5618592,27.6348827 26.5079447,27.5899539 L24.1920553,25.6600461 C24.0808015,25.5673346 23.9191985,25.5673346 23.8079447,25.6600461 L21.1920553,27.8399539 C21.0808015,27.9326654 20.9191985,27.9326654 20.8079447,27.8399539 L18.1920553,25.6600461 C18.0808015,25.5673346 17.9191985,25.5673346 17.8079447,25.6600461 L15.1920553,27.8399539 C15.0808015,27.9326654 14.9191985,27.9326654 14.8079447,27.8399539 L12.1920553,25.6600461 C12.0808015,25.5673346 11.9191985,25.5673346 11.8079447,25.6600461 L9.49205532,27.5899539 C9.36477225,27.6960231 9.17560284,27.6788259 9.06953362,27.5515428 C9.02460487,27.4976283 9,27.4296685 9,27.3594875 L9,9 C9,7.8954305 9.8954305,7 11,7 L25,7 Z M18.16,10.6 L17.627,10.6 C17.5316662,10.6 17.4493337,10.6346663 17.38,10.704 C17.3106663,10.7733337 17.276,10.8556662 17.276,10.951 L17.276,10.951 L17.276,11.809 C16.8599979,11.8610003 16.4960016,11.9649992 16.184,12.121 C15.8719984,12.2770008 15.6141677,12.4676655 15.4105,12.693 C15.2068323,12.9183345 15.0530005,13.1696653 14.949,13.447 C14.8449995,13.7243347 14.793,14.0059986 14.793,14.292 C14.793,14.5866681 14.8341663,14.8596654 14.9165,15.111 C14.9988337,15.3623346 15.1353324,15.591999 15.326,15.8 C15.5166676,16.008001 15.7636652,16.1921659 16.067,16.3525 C16.3703349,16.5128341 16.7386645,16.6493328 17.172,16.762 C17.4103345,16.822667 17.6362091,16.8817085 17.8496252,16.939125 L17.8496252,16.939125 L18.4525,17.1065 C18.8295019,17.2148339 19.1479987,17.3339993 19.408,17.464 C19.6680013,17.5940006 19.8673326,17.7391659 20.006,17.8995 C20.1446674,18.0598341 20.214,18.2526655 20.214,18.478 C20.214,18.7033345 20.1533339,18.9069991 20.032,19.089 C19.9106661,19.2710009 19.746001,19.4269993 19.538,19.557 C19.329999,19.6870006 19.0895014,19.7866663 18.8165,19.856 C18.5434986,19.9253337 18.2553349,19.96 17.952,19.96 C17.5966649,19.96 17.2890013,19.9166671 17.029,19.83 C16.7689987,19.7433329 16.5480009,19.6371673 16.366,19.5115 C16.1839991,19.3858327 16.0388339,19.2515007 15.9305,19.1085 C15.8221661,18.9654993 15.7420003,18.8333339 15.69,18.712 L15.69,18.712 L15.6497812,18.6291248 C15.6083437,18.5543747 15.5632502,18.5040001 15.5145,18.478 C15.4494997,18.4433332 15.3736671,18.426 15.287,18.426 L15.287,18.426 L14.754,18.426 C14.6759996,18.426 14.6088336,18.4541664 14.5525,18.5105 C14.4961664,18.5668336 14.468,18.6339996 14.468,18.712 C14.4766667,18.9546679 14.5503326,19.2038321 14.689,19.4595 C14.8276674,19.7151679 15.0204988,19.9513322 15.2675,20.168 C15.5145012,20.3846677 15.8069983,20.5753325 16.145,20.74 C16.4830017,20.9046675 16.8599979,21.017333 17.276,21.078 L17.276,21.078 L17.276,21.949 C17.276,22.0443338 17.3106663,22.1266663 17.38,22.196 C17.4493337,22.2653337 17.5316662,22.3 17.627,22.3 L17.627,22.3 L18.16,22.3 C18.2553338,22.3 18.3376663,22.2653337 18.407,22.196 C18.4763337,22.1266663 18.511,22.0443338 18.511,21.949 L18.511,21.949 L18.511,21.104 C18.9530022,21.0606664 19.3559982,20.9653341 19.72,20.818 C20.0840018,20.6706659 20.3938321,20.4843345 20.6495,20.259 C20.9051679,20.0336655 21.1023326,19.7693348 21.241,19.466 C21.3796674,19.1626651 21.449,18.8333351 21.449,18.478 C21.449,18.1573317 21.3991672,17.8691679 21.2995,17.6135 C21.1998328,17.3578321 21.0416678,17.132501 20.825,16.9375 C20.6083323,16.742499 20.328835,16.5670008 19.9865,16.411 C19.644165,16.2549992 19.2260025,16.1120006 18.732,15.982 L18.732,15.982 L17.93796,15.76204 L17.497,15.631 C17.1589983,15.5269995 16.8795011,15.4121673 16.6585,15.2865 C16.4374989,15.1608327 16.2771672,15.0200008 16.1775,14.864 C16.0778328,14.7079992 16.028,14.5173345 16.028,14.292 C16.028,14.0666655 16.0799995,13.8695008 16.184,13.7005 C16.2880005,13.5314992 16.4266658,13.3906672 16.6,13.278 C16.7733342,13.1653328 16.9704989,13.0808336 17.1915,13.0245 C17.4125011,12.9681664 17.6443321,12.94 17.887,12.94 C18.2076683,12.94 18.4893321,12.9854995 18.732,13.0765 C18.9746679,13.1675005 19.1804992,13.2758327 19.3495,13.4015 C19.5185008,13.5271673 19.6528328,13.657166 19.7525,13.7915 C19.8521672,13.925834 19.9236665,14.0363329 19.967,14.123 L19.967,14.123 L20.0120938,14.2058752 C20.0567813,14.2806253 20.1002498,14.3309999 20.1425,14.357 C20.1988336,14.3916668 20.2746662,14.409 20.37,14.409 L20.37,14.409 L20.903,14.409 C20.9810004,14.409 21.050333,14.3808336 21.111,14.3245 C21.171667,14.2681664 21.1976667,14.2010004 21.189,14.123 C21.1803333,13.9323324 21.1153339,13.7156679 20.994,13.473 C20.8726661,13.2303321 20.6993345,12.9963345 20.474,12.771 C20.2486655,12.5456655 19.971335,12.3463342 19.642,12.173 C19.312665,11.9996658 18.9356688,11.882667 18.511,11.822 L18.511,11.822 L18.511,10.951 C18.511,10.8556662 18.4763337,10.7733337 18.407,10.704 C18.3376663,10.6346663 18.2553338,10.6 18.16,10.6 L18.16,10.6 Z" id="Combined-Shape" fill="#FFC8A4"></path>
                        </g>
                        <path d="M95.076,33 L91.2,28.32 L94.74,24.132 L93.42,24.132 L89.244,29.052 L89.244,24.132 L88.14,24.132 L88.14,33 L89.244,33 L89.244,30.516 L90.468,29.064 L93.696,33 L95.076,33 Z M96.396,25.644 C96.828,25.644 97.176,25.296 97.176,24.852 C97.176,24.408 96.828,24.072 96.396,24.072 C95.928,24.072 95.592,24.408 95.592,24.852 C95.592,25.296 95.928,25.644 96.396,25.644 Z M96.912,26.58 L95.844,26.58 L95.844,33 L96.912,33 L96.912,26.58 Z M99.804,23.916 L98.736,23.916 L98.736,33 L99.804,33 L99.804,23.916 Z M102.696,23.916 L101.628,23.916 L101.628,33 L102.696,33 L102.696,23.916 Z M105.072,25.644 C105.504,25.644 105.852,25.296 105.852,24.852 C105.852,24.408 105.504,24.072 105.072,24.072 C104.604,24.072 104.268,24.408 104.268,24.852 C104.268,25.296 104.604,25.644 105.072,25.644 Z M105.588,26.58 L104.52,26.58 L104.52,33 L105.588,33 L105.588,26.58 Z M112.512,27.528 C111.924,26.796 111.156,26.424 110.22,26.424 C109.296,26.424 108.528,26.736 107.916,27.372 C107.304,27.996 107.004,28.788 107.004,29.748 C107.004,30.72 107.304,31.524 107.916,32.184 C108.528,32.832 109.296,33.156 110.22,33.156 C111.168,33.156 111.924,32.796 112.512,32.076 L112.512,33 L113.544,33 L113.544,26.58 L112.512,26.58 L112.512,27.528 Z M112.596,29.784 C112.596,30.456 112.38,31.02 111.96,31.488 C111.54,31.944 111,32.172 110.328,32.172 C109.656,32.172 109.116,31.944 108.696,31.488 C108.288,31.02 108.084,30.456 108.084,29.796 C108.084,29.124 108.288,28.56 108.696,28.104 C109.116,27.636 109.656,27.408 110.328,27.408 C111,27.408 111.54,27.636 111.96,28.104 C112.38,28.56 112.596,29.124 112.596,29.784 Z M116.436,33 L116.436,29.424 C116.436,28.836 116.604,28.344 116.94,27.972 C117.276,27.6 117.708,27.408 118.248,27.408 C119.244,27.408 119.928,28.128 119.928,29.424 L119.928,33 L120.996,33 L120.996,29.112 C120.996,28.236 120.756,27.576 120.264,27.108 C119.772,26.64 119.172,26.412 118.452,26.412 C117.504,26.412 116.82,26.772 116.412,27.492 L116.412,26.58 L115.368,26.58 L115.368,33 L116.436,33 Z M132.036,33 L129.516,29.268 C130.188,29.136 130.704,28.824 131.076,28.344 C131.448,27.864 131.628,27.336 131.628,26.748 C131.628,26.04 131.388,25.428 130.908,24.912 C130.428,24.396 129.756,24.132 128.88,24.132 L125.928,24.132 L125.928,33 L127.032,33 L127.032,29.34 L128.28,29.34 L130.656,33 L132.036,33 Z M128.892,25.2 C129.912,25.2 130.488,25.86 130.488,26.724 C130.488,27.6 129.888,28.284 128.64,28.284 L127.032,28.284 L127.032,25.2 L128.892,25.2 Z M132.732,29.784 C132.732,30.732 133.044,31.536 133.68,32.184 C134.316,32.832 135.12,33.156 136.092,33.156 C137.064,33.156 137.868,32.832 138.504,32.184 C139.14,31.536 139.452,30.732 139.452,29.784 C139.452,28.848 139.128,28.056 138.492,27.408 C137.856,26.748 137.064,26.424 136.092,26.424 C135.12,26.424 134.316,26.748 133.68,27.408 C133.044,28.056 132.732,28.848 132.732,29.784 Z M138.372,29.784 C138.372,30.444 138.156,31.008 137.712,31.476 C137.268,31.944 136.728,32.172 136.092,32.172 C135.456,32.172 134.916,31.944 134.472,31.476 C134.028,31.008 133.812,30.444 133.812,29.784 C133.812,29.136 134.028,28.584 134.472,28.116 C134.916,27.648 135.456,27.408 136.092,27.408 C136.728,27.408 137.268,27.648 137.712,28.116 C138.156,28.584 138.372,29.136 138.372,29.784 Z M144.24,26.424 C143.292,26.424 142.524,26.808 141.936,27.564 L141.936,23.916 L140.868,23.916 L140.868,33 L141.936,33 L141.936,32.052 C142.512,32.784 143.28,33.156 144.228,33.156 C145.152,33.156 145.908,32.832 146.52,32.184 C147.132,31.524 147.444,30.732 147.444,29.796 C147.444,28.86 147.132,28.068 146.52,27.408 C145.908,26.748 145.152,26.424 144.24,26.424 Z M144.12,32.148 C143.448,32.148 142.908,31.92 142.5,31.464 C142.092,31.008 141.888,30.444 141.888,29.784 C141.888,29.124 142.092,28.572 142.5,28.116 C142.908,27.66 143.448,27.432 144.12,27.432 C144.78,27.432 145.32,27.66 145.728,28.116 C146.148,28.56 146.352,29.124 146.352,29.784 C146.352,30.444 146.148,31.008 145.728,31.464 C145.32,31.92 144.78,32.148 144.12,32.148 Z M154.776,29.676 C154.776,28.68 154.488,27.888 153.912,27.3 C153.336,26.712 152.592,26.424 151.692,26.424 C150.744,26.424 149.964,26.736 149.364,27.372 C148.764,28.008 148.464,28.8 148.464,29.772 C148.464,31.452 149.46,33.144 151.872,33.144 C152.94,33.144 153.996,32.736 154.62,32.244 L154.164,31.416 C153.552,31.848 152.664,32.148 151.896,32.148 C150.504,32.148 149.772,31.356 149.592,30.24 L154.74,30.24 L154.772,29.7955556 C154.774667,29.744 154.776,29.704 154.776,29.676 Z M151.692,27.396 C152.76,27.396 153.588,28.128 153.648,29.28 L149.592,29.28 C149.772,28.164 150.588,27.396 151.692,27.396 Z M157.236,33 L157.236,29.544 C157.236,28.164 157.98,27.444 159.024,27.444 C159.228,27.444 159.456,27.48 159.684,27.552 L159.78,26.508 C159.528,26.448 159.288,26.412 159.036,26.412 C158.172,26.412 157.548,26.784 157.176,27.54 L157.176,26.58 L156.168,26.58 L156.168,33 L157.236,33 Z M164.664,31.788 C164.256,32.04 163.872,32.172 163.5,32.172 C162.792,32.172 162.444,31.74 162.444,30.876 L162.444,27.504 L164.736,27.504 L164.736,26.58 L162.444,26.58 L162.444,24.312 L161.388,24.312 L161.388,26.58 L160.236,26.58 L160.236,27.504 L161.376,27.504 L161.376,30.768 C161.376,32.292 162.06,33.156 163.404,33.156 C164.064,33.156 164.628,32.976 165.084,32.616 L164.664,31.788 Z M167.772,33.144 C166.812,33.144 165.912,32.676 165.432,31.728 L166.248,31.164 C166.62,31.848 167.22,32.196 167.808,32.196 C168.516,32.196 168.984,31.764 168.984,31.272 C168.984,30.924 168.78,30.636 168.372,30.408 L168.134274,30.2889796 C168.031732,30.2404898 167.905259,30.1831837 167.752968,30.1170612 L167.154647,29.8575044 C166.991755,29.7837551 166.870286,29.724 166.788,29.676 C166.152,29.328 165.828,28.812 165.828,28.14 C165.828,27.624 166.008,27.204 166.38,26.868 C166.752,26.532 167.256,26.364 167.868,26.364 C168.684,26.364 169.488,26.724 169.872,27.396 L169.152,28.032 C168.828,27.528 168.372,27.276 167.796,27.276 C167.184,27.276 166.848,27.648 166.848,28.092 C166.848,28.44 167.028,28.704 167.376,28.872 L168.108,29.208 L168.451111,29.3555556 C168.66,29.448 168.828,29.528 168.948,29.592 C169.68,29.976 170.04,30.516 170.04,31.212 C170.04,31.752 169.824,32.208 169.404,32.58 C168.984,32.952 168.432,33.144 167.772,33.144 Z" id="KillianRoberts" fill="#04004D" fill-rule="nonzero"></path>
                        <path d="M277.744,51.228 C277.744,50.234 277.254,49.436 276.288,48.848 L276.098376,48.7348093 C275.84121,48.5902963 275.458889,48.4015556 274.958,48.162 L274.250741,47.8094074 C274.011358,47.6866914 273.841111,47.5942222 273.74,47.532 C273.152,47.168 272.858,46.706 272.858,46.146 C272.858,45.264 273.586,44.69 274.538,44.69 C275.364,44.69 276.05,45.068 276.596,45.824 L277.52,45.012 C276.918,44.172 276.12,43.668 275.126,43.514 L275.126,42.198 L274.202,42.198 L274.202,43.486 C273.376,43.556 272.718,43.836 272.214,44.354 C271.724,44.872 271.472,45.488 271.472,46.23 C271.472,47.21 271.99,48.022 273.012,48.68 C273.278,48.848 273.67,49.058 274.202,49.31 L274.802252,49.5846228 C275.006395,49.6807407 275.152444,49.7533333 275.238,49.8 C275.966,50.206 276.33,50.696 276.33,51.298 C276.33,52.194 275.588,52.922 274.37,52.922 C273.362,52.922 272.466,52.376 271.92,51.242 L270.912,52.012 C271.514,53.3 272.732,54.042 274.076,54.154 L274.076,55.568 L275,55.568 L275,54.126 C275.812,54.014 276.47,53.692 276.974,53.174 C277.492,52.642 277.744,51.998 277.744,51.228 Z M284.856,50.22 L284.856,43.654 L284.156,43.654 L278.472,50.598 L278.738,51.368 L283.596,51.368 L283.596,54 L284.856,54 L284.856,51.368 L286.018,51.368 L286.018,50.22 L284.856,50.22 Z M283.596,46.118 L283.596,50.22 L280.25,50.22 L283.596,46.118 Z M290.554,47.238 C289.924,47.238 289.364,47.378 288.846,47.672 L289.21,44.802 L293.326,44.802 L293.326,43.654 L288.202,43.654 L287.6,48.82 L288.482,49.282 C289,48.722 289.644,48.442 290.414,48.442 C291.072,48.442 291.618,48.652 292.052,49.086 C292.486,49.52 292.71,50.052 292.71,50.696 C292.71,51.354 292.486,51.9 292.038,52.334 C291.604,52.768 291.03,52.978 290.344,52.978 C289.448,52.978 288.58,52.614 287.726,51.9 L287.096,52.908 C288.09,53.748 289.182,54.168 290.386,54.168 C291.436,54.168 292.304,53.846 292.99,53.188 C293.676,52.53 294.026,51.704 294.026,50.682 C294.026,49.688 293.69,48.862 293.032,48.218 C292.374,47.56 291.548,47.238 290.554,47.238 Z M298.534,47.238 C297.904,47.238 297.344,47.378 296.826,47.672 L297.19,44.802 L301.306,44.802 L301.306,43.654 L296.182,43.654 L295.58,48.82 L296.462,49.282 C296.98,48.722 297.624,48.442 298.394,48.442 C299.052,48.442 299.598,48.652 300.032,49.086 C300.466,49.52 300.69,50.052 300.69,50.696 C300.69,51.354 300.466,51.9 300.018,52.334 C299.584,52.768 299.01,52.978 298.324,52.978 C297.428,52.978 296.56,52.614 295.706,51.9 L295.076,52.908 C296.07,53.748 297.162,54.168 298.366,54.168 C299.416,54.168 300.284,53.846 300.97,53.188 C301.656,52.53 302.006,51.704 302.006,50.682 C302.006,49.688 301.67,48.862 301.012,48.218 C300.354,47.56 299.528,47.238 298.534,47.238 Z M303.308,53.356 C303.308,53.86 303.686,54.224 304.176,54.224 C304.666,54.224 305.03,53.86 305.03,53.356 C305.03,52.894 304.666,52.516 304.176,52.516 C303.686,52.516 303.308,52.894 303.308,53.356 Z M306.472,51.228 C306.472,52.082 306.822,52.782 307.508,53.342 C308.194,53.888 309.076,54.168 310.154,54.168 C311.232,54.168 312.1,53.888 312.786,53.342 C313.472,52.782 313.822,52.082 313.822,51.228 C313.822,50.066 313.01,48.988 311.764,48.54 L311.764,48.498 C312.772,48.036 313.388,47.154 313.388,46.188 C313.388,45.404 313.08,44.76 312.478,44.242 C311.876,43.724 311.106,43.472 310.154,43.472 C309.188,43.472 308.404,43.724 307.802,44.242 C307.2,44.76 306.906,45.404 306.906,46.188 C306.906,47.14 307.508,48.008 308.516,48.498 L308.516,48.526 C307.27,48.974 306.472,50.066 306.472,51.228 Z M310.14,48.008 C308.922,48.008 308.138,47.28 308.138,46.286 C308.138,45.292 308.964,44.564 310.154,44.564 C311.344,44.564 312.142,45.292 312.142,46.286 C312.142,47.28 311.372,48.008 310.14,48.008 Z M310.154,53.034 C309.44,53.034 308.866,52.852 308.404,52.474 C307.956,52.096 307.732,51.62 307.732,51.046 C307.732,49.94 308.684,49.128 310.154,49.128 C311.61,49.128 312.548,49.94 312.548,51.046 C312.548,51.62 312.324,52.096 311.876,52.474 C311.428,52.852 310.854,53.034 310.154,53.034 Z M321.144,53.692 C322.222,53.034 322.782,51.886 323.062,50.696 C323.342,49.506 323.342,48.134 323.062,46.944 C322.782,45.754 322.222,44.592 321.144,43.962 C320.598,43.64 319.968,43.472 319.254,43.472 C318.54,43.472 317.91,43.64 317.364,43.962 C316.286,44.592 315.726,45.754 315.446,46.944 C315.166,48.134 315.166,49.506 315.446,50.696 C315.726,51.886 316.286,53.034 317.364,53.692 C317.91,54.014 318.54,54.168 319.254,54.168 C319.968,54.168 320.598,54.014 321.144,53.692 Z M319.254,52.964 C317.424968,52.9369032 316.579286,51.1791093 316.564695,49.0355881 L316.566,48.82 C316.566,47.616 316.79,46.622 317.224,45.852 C317.672,45.068 318.344,44.676 319.254,44.676 C320.164,44.676 320.85,45.068 321.284,45.852 C321.732,46.622 321.956,47.616 321.956,48.82 C321.956,50.038 321.732,51.032 321.284,51.802 C320.85,52.572 320.164,52.964 319.254,52.964 Z" id="$455.80" fill="#04004D" fill-rule="nonzero"></path>
                        <g id="Group-36" transform="translate(249.000000, 17.000000)">
                            <rect id="Rectangle" fill="#FFF9E6" x="0" y="0" width="75" height="17" rx="2"></rect>
                            <path d="M14.284,13 C15.58,13 16.6,12.604 17.344,11.812 C18.088,11.02 18.46,9.94 18.46,8.584 C18.46,7.216 18.1,6.136 17.368,5.332 C16.636,4.528 15.652,4.132 14.404,4.132 L11.14,4.132 L11.14,13 L14.284,13 Z M12.244,5.188 L14.332,5.188 C15.268,5.188 16,5.5 16.516,6.136 C17.044,6.76 17.308,7.564 17.308,8.548 C17.308,9.544 17.044,10.36 16.516,10.996 C15.988,11.632 15.256,11.944 14.32,11.944 L12.244,11.944 L12.244,5.188 Z M22.624,13.156 C24.316,13.156 25.348,12.112 25.348,10.432 L25.348,6.58 L24.28,6.58 L24.28,10.396 C24.28,11.488 23.668,12.16 22.624,12.16 C21.58,12.16 20.968,11.488 20.968,10.396 L20.968,6.58 L19.9,6.58 L19.9,10.432 C19.9,11.26 20.14,11.932 20.632,12.424 C21.124,12.916 21.796,13.156 22.624,13.156 Z M33.004,9.676 C33.004,8.68 32.716,7.888 32.14,7.3 C31.564,6.712 30.82,6.424 29.92,6.424 C28.972,6.424 28.192,6.736 27.592,7.372 C26.992,8.008 26.692,8.8 26.692,9.772 C26.692,11.452 27.688,13.144 30.1,13.144 C31.168,13.144 32.224,12.736 32.848,12.244 L32.392,11.416 C31.78,11.848 30.892,12.148 30.124,12.148 C28.732,12.148 28,11.356 27.82,10.24 L32.968,10.24 L33,9.79555556 C33.0026667,9.744 33.004,9.704 33.004,9.676 Z M29.92,7.396 C30.988,7.396 31.816,8.128 31.876,9.28 L27.82,9.28 C28,8.164 28.816,7.396 29.92,7.396 Z M39.1,13.144 C39.76,13.144 40.312,12.952 40.732,12.58 C41.152,12.208 41.368,11.752 41.368,11.212 C41.368,10.516 41.008,9.976 40.276,9.592 C40.096,9.496 39.808,9.364 39.436,9.208 L38.704,8.872 C38.356,8.704 38.176,8.44 38.176,8.092 C38.176,7.648 38.512,7.276 39.124,7.276 C39.7,7.276 40.156,7.528 40.48,8.032 L41.2,7.396 C40.816,6.724 40.012,6.364 39.196,6.364 C38.584,6.364 38.08,6.532 37.708,6.868 C37.336,7.204 37.156,7.624 37.156,8.14 C37.156,8.812 37.48,9.328 38.116,9.676 L38.2690962,9.75709621 C38.3301108,9.78725364 38.4012012,9.82062974 38.4826472,9.85750437 L39.3516851,10.237551 C39.5099592,10.3100408 39.6245714,10.3668571 39.7,10.408 C40.108,10.636 40.312,10.924 40.312,11.272 C40.312,11.764 39.844,12.196 39.136,12.196 C38.548,12.196 37.948,11.848 37.576,11.164 L36.76,11.728 C37.24,12.676 38.14,13.144 39.1,13.144 Z M42.328,9.784 C42.328,10.732 42.64,11.536 43.276,12.184 C43.912,12.832 44.716,13.156 45.688,13.156 C46.66,13.156 47.464,12.832 48.1,12.184 C48.736,11.536 49.048,10.732 49.048,9.784 C49.048,8.848 48.724,8.056 48.088,7.408 C47.452,6.748 46.66,6.424 45.688,6.424 C44.716,6.424 43.912,6.748 43.276,7.408 C42.64,8.056 42.328,8.848 42.328,9.784 Z M47.968,9.784 C47.968,10.444 47.752,11.008 47.308,11.476 C46.864,11.944 46.324,12.172 45.688,12.172 C45.052,12.172 44.512,11.944 44.068,11.476 C43.624,11.008 43.408,10.444 43.408,9.784 C43.408,9.136 43.624,8.584 44.068,8.116 C44.512,7.648 45.052,7.408 45.688,7.408 C46.324,7.408 46.864,7.648 47.308,8.116 C47.752,8.584 47.968,9.136 47.968,9.784 Z M50.056,9.784 C50.056,10.732 50.368,11.536 51.004,12.184 C51.64,12.832 52.444,13.156 53.416,13.156 C54.388,13.156 55.192,12.832 55.828,12.184 C56.464,11.536 56.776,10.732 56.776,9.784 C56.776,8.848 56.452,8.056 55.816,7.408 C55.18,6.748 54.388,6.424 53.416,6.424 C52.444,6.424 51.64,6.748 51.004,7.408 C50.368,8.056 50.056,8.848 50.056,9.784 Z M55.696,9.784 C55.696,10.444 55.48,11.008 55.036,11.476 C54.592,11.944 54.052,12.172 53.416,12.172 C52.78,12.172 52.24,11.944 51.796,11.476 C51.352,11.008 51.136,10.444 51.136,9.784 C51.136,9.136 51.352,8.584 51.796,8.116 C52.24,7.648 52.78,7.408 53.416,7.408 C54.052,7.408 54.592,7.648 55.036,8.116 C55.48,8.584 55.696,9.136 55.696,9.784 Z M59.26,13 L58.192,13 L58.192,6.58 L59.236,6.58 L59.236,7.492 C59.644,6.772 60.328,6.412 61.276,6.412 C61.996,6.412 62.596,6.64 63.088,7.108 C63.58,7.576 63.82,8.236 63.82,9.112 L63.82,13 L62.752,13 L62.752,9.424 C62.752,8.128 62.068,7.408 61.072,7.408 C60.532,7.408 60.1,7.6 59.764,7.972 C59.428,8.344 59.26,8.836 59.26,9.424 L59.26,13 Z" id="Duesoon" fill="#FF9D42" fill-rule="nonzero"></path>
                        </g>
                        <path d="M88.14,54 L89.244,54 L89.244,45.132 L88.14,45.132 L88.14,54 Z M92.364,54 L92.364,50.424 C92.364,49.836 92.532,49.344 92.868,48.972 C93.204,48.6 93.636,48.408 94.176,48.408 C95.172,48.408 95.856,49.128 95.856,50.424 L95.856,54 L96.924,54 L96.924,50.112 C96.924,49.236 96.684,48.576 96.192,48.108 C95.7,47.64 95.1,47.412 94.38,47.412 C93.432,47.412 92.748,47.772 92.34,48.492 L92.34,47.58 L91.296,47.58 L91.296,54 L92.364,54 Z M100.896,52.476 L98.88,47.58 L97.692,47.58 L100.524,53.988 L101.244,53.988 L104.076,47.58 L102.9,47.58 L100.896,52.476 Z M104.484,50.784 C104.484,51.732 104.796,52.536 105.432,53.184 C106.068,53.832 106.872,54.156 107.844,54.156 C108.816,54.156 109.62,53.832 110.256,53.184 C110.892,52.536 111.204,51.732 111.204,50.784 C111.204,49.848 110.88,49.056 110.244,48.408 C109.608,47.748 108.816,47.424 107.844,47.424 C106.872,47.424 106.068,47.748 105.432,48.408 C104.796,49.056 104.484,49.848 104.484,50.784 Z M110.124,50.784 C110.124,51.444 109.908,52.008 109.464,52.476 C109.02,52.944 108.48,53.172 107.844,53.172 C107.208,53.172 106.668,52.944 106.224,52.476 C105.78,52.008 105.564,51.444 105.564,50.784 C105.564,50.136 105.78,49.584 106.224,49.116 C106.668,48.648 107.208,48.408 107.844,48.408 C108.48,48.408 109.02,48.648 109.464,49.116 C109.908,49.584 110.124,50.136 110.124,50.784 Z M113.172,46.644 C113.604,46.644 113.952,46.296 113.952,45.852 C113.952,45.408 113.604,45.072 113.172,45.072 C112.704,45.072 112.368,45.408 112.368,45.852 C112.368,46.296 112.704,46.644 113.172,46.644 Z M113.688,47.58 L112.62,47.58 L112.62,54 L113.688,54 L113.688,47.58 Z M118.488,54.144 C119.736,54.144 120.888,53.472 121.416,52.5 L120.528,51.984 C120.348,52.32 120.06,52.596 119.676,52.824 C119.292,53.052 118.896,53.16 118.488,53.16 C117.828,53.16 117.276,52.932 116.832,52.488 C116.4,52.032 116.184,51.468 116.184,50.796 C116.184,50.112 116.412,49.548 116.856,49.092 C117.3,48.636 117.864,48.408 118.548,48.408 C119.376,48.408 120.12,48.876 120.564,49.608 L121.452,49.092 C120.96,48.084 119.808,47.424 118.548,47.424 C117.54,47.424 116.712,47.736 116.064,48.372 C115.428,49.008 115.104,49.812 115.104,50.796 C115.104,51.768 115.416,52.572 116.052,53.208 C116.688,53.832 117.492,54.144 118.488,54.144 Z M128.604,50.676 C128.604,49.68 128.316,48.888 127.74,48.3 C127.164,47.712 126.42,47.424 125.52,47.424 C124.572,47.424 123.792,47.736 123.192,48.372 C122.592,49.008 122.292,49.8 122.292,50.772 C122.292,52.452 123.288,54.144 125.7,54.144 C126.768,54.144 127.824,53.736 128.448,53.244 L127.992,52.416 C127.38,52.848 126.492,53.148 125.724,53.148 C124.332,53.148 123.6,52.356 123.42,51.24 L128.568,51.24 L128.6,50.7955556 C128.602667,50.744 128.604,50.704 128.604,50.676 Z M125.52,48.396 C126.588,48.396 127.416,49.128 127.476,50.28 L123.42,50.28 C123.6,49.164 124.416,48.396 125.52,48.396 Z M134.028,54 L134.028,50.424 C134.028,49.836 134.196,49.344 134.532,48.972 C134.868,48.6 135.3,48.408 135.84,48.408 C136.836,48.408 137.52,49.128 137.52,50.424 L137.52,54 L138.588,54 L138.588,50.112 C138.588,49.236 138.348,48.576 137.856,48.108 C137.364,47.64 136.764,47.412 136.044,47.412 C135.096,47.412 134.412,47.772 134.004,48.492 L134.004,47.58 L132.96,47.58 L132.96,54 L134.028,54 Z M139.896,45.852 C139.896,46.308 140.064,46.692 140.388,47.016 C140.724,47.34 141.132,47.496 141.6,47.496 C142.068,47.496 142.476,47.34 142.8,47.016 C143.124,46.692 143.292,46.308 143.292,45.852 C143.292,45.384 143.124,45 142.8,44.676 C142.476,44.352 142.068,44.184 141.6,44.184 C141.132,44.184 140.724,44.352 140.388,44.676 C140.064,45 139.896,45.384 139.896,45.852 Z M140.916,46.536 C140.544,46.164 140.544,45.54 140.916,45.156 C141.3,44.772 141.9,44.772 142.272,45.156 C142.656,45.54 142.656,46.164 142.272,46.536 C141.9,46.908 141.3,46.908 140.916,46.536 Z M148.452,50.76 L148.452,45.132 L147.852,45.132 L142.98,51.084 L143.208,51.744 L147.372,51.744 L147.372,54 L148.452,54 L148.452,51.744 L149.448,51.744 L149.448,50.76 L148.452,50.76 Z M147.372,47.244 L147.372,50.76 L144.504,50.76 L147.372,47.244 Z M150.54,51.624 C150.54,52.356 150.84,52.956 151.428,53.436 C152.016,53.904 152.772,54.144 153.696,54.144 C154.62,54.144 155.364,53.904 155.952,53.436 C156.54,52.956 156.84,52.356 156.84,51.624 C156.84,50.628 156.144,49.704 155.076,49.32 L155.076,49.284 C155.94,48.888 156.468,48.132 156.468,47.304 C156.468,46.632 156.204,46.08 155.688,45.636 C155.172,45.192 154.512,44.976 153.696,44.976 C152.868,44.976 152.196,45.192 151.68,45.636 C151.164,46.08 150.912,46.632 150.912,47.304 C150.912,48.12 151.428,48.864 152.292,49.284 L152.292,49.308 C151.224,49.692 150.54,50.628 150.54,51.624 Z M153.684,48.864 C152.64,48.864 151.968,48.24 151.968,47.388 C151.968,46.536 152.676,45.912 153.696,45.912 C154.716,45.912 155.4,46.536 155.4,47.388 C155.4,48.24 154.74,48.864 153.684,48.864 Z M153.696,53.172 C153.084,53.172 152.592,53.016 152.196,52.692 C151.812,52.368 151.62,51.96 151.62,51.468 C151.62,50.52 152.436,49.824 153.696,49.824 C154.944,49.824 155.748,50.52 155.748,51.468 C155.748,51.96 155.556,52.368 155.172,52.692 C154.788,53.016 154.296,53.172 153.696,53.172 Z" id="Invoicen°48" fill="#93A9B7" fill-rule="nonzero"></path>
                    </g>
                    <g id="Group-33" opacity="0.329241071" transform="translate(38.000000, 43.000000)" fill="#B9CAD5">
                        <circle id="Oval" cx="1.5" cy="15.5" r="1.5"></circle>
                        <circle id="Oval" cx="15.5" cy="15.5" r="1.5"></circle>
                        <circle id="Oval" cx="28.5" cy="15.5" r="1.5"></circle>
                        <circle id="Oval" cx="42.5" cy="15.5" r="1.5"></circle>
                        <circle id="Oval" cx="1.5" cy="29.5" r="1.5"></circle>
                        <circle id="Oval" cx="15.5" cy="29.5" r="1.5"></circle>
                        <circle id="Oval" cx="28.5" cy="29.5" r="1.5"></circle>
                        <circle id="Oval" cx="42.5" cy="29.5" r="1.5"></circle>
                        <circle id="Oval" cx="1.5" cy="43.5" r="1.5"></circle>
                        <circle id="Oval" cx="15.5" cy="43.5" r="1.5"></circle>
                        <circle id="Oval" cx="28.5" cy="43.5" r="1.5"></circle>
                        <circle id="Oval" cx="42.5" cy="43.5" r="1.5"></circle>
                        <circle id="Oval" cx="1.5" cy="57.5" r="1.5"></circle>
                        <circle id="Oval" cx="15.5" cy="57.5" r="1.5"></circle>
                        <circle id="Oval" cx="28.5" cy="57.5" r="1.5"></circle>
                        <circle id="Oval" cx="42.5" cy="57.5" r="1.5"></circle>
                        <circle id="Oval" cx="55.5" cy="15.5" r="1.5"></circle>
                        <circle id="Oval" cx="1.5" cy="1.5" r="1.5"></circle>
                        <circle id="Oval" cx="15.5" cy="1.5" r="1.5"></circle>
                        <circle id="Oval" cx="28.5" cy="1.5" r="1.5"></circle>
                        <circle id="Oval" cx="42.5" cy="1.5" r="1.5"></circle>
                        <circle id="Oval" cx="55.5" cy="1.5" r="1.5"></circle>
                        <circle id="Oval" cx="55.5" cy="29.5" r="1.5"></circle>
                        <circle id="Oval" cx="55.5" cy="43.5" r="1.5"></circle>
                        <circle id="Oval" cx="55.5" cy="57.5" r="1.5"></circle>
                    </g>
                </g>
            </g>
        </g>
    </g>
</svg>