<?xml version="1.0" encoding="UTF-8"?>
<svg width="112px" height="39px" viewBox="0 0 112 39" version="1.1" xmlns="http://www.w3.org/2000/svg" xmlns:xlink="http://www.w3.org/1999/xlink">
    <!-- Generator: sketchtool 59.1 (101010) - https://sketch.com -->
    <title>6684F4C1-086C-4E4A-A89A-646C6C871C03</title>
    <desc>Created with sketchtool.</desc>
    <g id="Full-landing" stroke="none" stroke-width="1" fill="none" fill-rule="evenodd">
        <g id="landing-green-v1.3-2" transform="translate(-103.000000, -53.000000)" fill="#04004D" fill-rule="nonzero">
            <g id="hero" transform="translate(-15.000000, 53.000000)">
                <g id="logo-zest" transform="translate(118.000000, 0.000000)">
                    <path d="M30.0745551,31.6972112 L30.0745551,31.6972112 L30.0745551,31.6972112 L10.1823101,31.6972112 L26.8212431,8.80856737 C28.5604285,6.41613057 29.4972076,3.53433295 29.4972076,0.57654327 L29.4972076,0 L29.4972076,0 L0.787292019,0 C0.787292019,3.63275746 3.7322238,6.57768924 7.36498126,6.57768924 L19.6298143,6.57768924 L19.6298143,6.57768924 L2.70900838,29.6592423 C0.94893597,32.0601448 1.41178651e-15,34.9595883 0,37.936531 L0,38.2749004 L0,38.2749004 L23.4968659,38.2749004 C27.1296233,38.2749004 30.0745551,35.3299686 30.0745551,31.6972112 Z M62.0386111,23.6175299 C62.0386111,19.2669323 60.7264577,15.8486056 58.0496648,13.310757 C55.4253581,10.7729084 52.0662455,9.47808765 47.9198409,9.47808765 C43.5634917,9.47808765 39.9944345,10.876494 37.2126694,13.6733068 C34.4833904,16.4183267 33.1187509,19.940239 33.1187509,24.187251 C33.1187509,31.6454183 37.842503,38.8964143 48.5496745,38.8964143 C53.2734266,38.8964143 57.4198312,37.6015936 60.9364022,35.0119522 C59.4604995,32.4072242 56.3440126,31.2159752 53.5069865,32.1721029 C51.6802034,32.7877793 50.1152429,33.0956175 48.8121052,33.0956175 C43.9308946,33.0956175 40.9916711,30.5059761 40.0994068,26.6215139 L61.8286665,26.6215139 C61.9686296,25.1367862 62.0386111,24.1354582 62.0386111,23.6175299 Z M47.9198409,15.123506 C51.856301,15.123506 54.7430384,17.5577689 55.3203858,21.4940239 L40.0994068,21.4940239 C40.9916711,17.5577689 43.9308946,15.123506 47.9198409,15.123506 Z M76.4198119,39 C79.7264384,39 82.4032313,38.1713147 84.4501905,36.4621514 C86.4971498,34.752988 87.4943863,32.6294821 87.4943863,30.0916335 C87.4943863,27.1580876 85.9948785,24.8450614 83.0422991,23.1525546 L82.665662,22.9442231 C82.1932867,22.685259 79.8838968,21.752988 75.7899783,20.1474104 C74.1629082,19.5776892 73.32313,18.6454183 73.32313,17.4023904 C73.32313,15.9003984 74.6352834,14.7609562 76.7872149,14.7609562 C79.2015771,14.7609562 81.3535086,15.7450199 83.1905233,17.6613546 L84.1132786,16.2524663 C85.1605171,14.6535105 84.7313155,12.5100981 83.1491502,11.4376611 C80.9671458,9.95863605 78.9164822,9.21912351 76.9971594,9.21912351 C73.9004775,9.21912351 71.381143,9.99601594 69.4916422,11.5498008 C67.6021413,13.1035857 66.6573909,15.123506 66.6573909,17.5577689 C66.6573909,20.6454183 68.1131824,22.9669016 71.0714253,24.5222188 L71.4336292,24.7051793 C72.0634628,25.0159363 73.2706439,25.5338645 75.0551724,26.2071713 L76.6647472,26.811421 C77.4940282,27.1325365 78.077674,27.3790704 78.4156847,27.5510226 L78.5192573,27.6055777 C79.936383,28.2788845 80.6711888,29.2111554 80.6711888,30.2988048 C80.6711888,31.9561753 78.9391464,33.250996 76.4722981,33.250996 C73.6905329,33.250996 70.6988233,31.749004 68.8093224,29.2629482 L67.8150877,30.4967398 C66.6022126,32.0018629 66.8391188,34.2052366 68.3442377,35.4181169 C68.3481527,35.4212718 68.3520746,35.4244182 68.3560032,35.4275562 C71.337687,37.8091854 74.0256233,39 76.4198119,39 Z M110.325855,31.3346614 L110.954101,32.8769705 C111.787501,34.922886 110.804549,37.2570264 108.758629,38.0904145 C108.652464,38.13366 108.544489,38.1723217 108.435003,38.2062924 C106.8409,38.7009023 105.44172,38.9482072 104.237463,38.9482072 C97.7816687,38.9482072 94.4750422,35.1673307 94.4750422,27.9681275 L94.4750422,15.8486056 L89.7512901,15.8486056 L89.7512901,14.9801188 C89.7512901,12.313288 91.9131837,10.1513944 94.5800145,10.1513944 L94.5800145,10.1513944 L94.5800145,10.1513944 L94.5800145,6.20717131 C94.5800145,2.89346282 97.266306,0.207171315 100.580015,0.207171315 L101.350726,0.207171315 L101.350726,0.207171315 L101.350726,10.1513944 L110.903202,10.1513944 L110.903202,10.8486056 C110.903202,13.6100293 108.664626,15.8486056 105.903202,15.8486056 L101.350726,15.8486056 L101.350726,15.8486056 L101.350726,27.7091633 C101.350726,31.0756972 102.715365,32.7848606 105.49713,32.7848606 C107.071715,32.7848606 108.698785,32.3187251 110.325855,31.3346614 Z" id="Zest"></path>
                </g>
            </g>
        </g>
    </g>
</svg>