<?xml version="1.0" encoding="UTF-8"?>
<svg width="729px" height="779px" viewBox="0 0 729 779" version="1.1" xmlns="http://www.w3.org/2000/svg" xmlns:xlink="http://www.w3.org/1999/xlink">
    <!-- Generator: sketchtool 59.1 (101010) - https://sketch.com -->
    <title>8744F699-048A-4E2D-92F4-78B0FC984018</title>
    <desc>Created with sketchtool.</desc>
    <defs>
        <path d="M195,0 L467.83546,0 C481.642578,1.01638711e-15 492.83546,11.1928813 492.83546,25 L492.83546,502 L492.83546,502 C490.936701,502 486.156997,502 478.496349,502 C466.87475,502 458.52201,487.854211 444.486845,487.854211 C427.748025,487.854211 422.489207,502 407.171328,502 C391.85345,502 388.598571,487.854211 371.222427,487.854211 C353.846284,487.854211 346.148713,502 329.594304,502 C313.039895,502 309.071454,487.854211 291.214404,487.854211 C273.357354,487.854211 269.757174,502 251.820182,502 C233.883189,502 232.154424,487.854211 215.883949,487.854211 C200.023717,487.854211 194.354983,502 180.104009,502 L170,502 L170,25 C170,11.1928813 181.192881,6.08904025e-15 195,0 Z" id="path-1"></path>
        <filter x="-13.0%" y="-8.4%" width="129.7%" height="119.1%" filterUnits="objectBoundingBox" id="filter-2">
            <feOffset dx="6" dy="6" in="SourceAlpha" result="shadowOffsetOuter1"></feOffset>
            <feGaussianBlur stdDeviation="15" in="shadowOffsetOuter1" result="shadowBlurOuter1"></feGaussianBlur>
            <feColorMatrix values="0 0 0 0 0.822732228   0 0 0 0 0.841817932   0 0 0 0 0.907155797  0 0 0 0.18 0" type="matrix" in="shadowBlurOuter1"></feColorMatrix>
        </filter>
        <rect id="path-3" x="0" y="0" width="363" height="82" rx="10"></rect>
        <filter x="-6.5%" y="-26.2%" width="112.9%" height="157.3%" filterUnits="objectBoundingBox" id="filter-4">
            <feOffset dx="0" dy="2" in="SourceAlpha" result="shadowOffsetOuter1"></feOffset>
            <feGaussianBlur stdDeviation="7.5" in="shadowOffsetOuter1" result="shadowBlurOuter1"></feGaussianBlur>
            <feColorMatrix values="0 0 0 0 0.823529412   0 0 0 0 0.866666667   0 0 0 0 0.905882353  0 0 0 0.3 0" type="matrix" in="shadowBlurOuter1"></feColorMatrix>
        </filter>
        <rect id="path-5" x="0" y="0" width="363" height="82" rx="10"></rect>
        <filter x="-6.5%" y="-26.2%" width="112.9%" height="157.3%" filterUnits="objectBoundingBox" id="filter-6">
            <feOffset dx="0" dy="2" in="SourceAlpha" result="shadowOffsetOuter1"></feOffset>
            <feGaussianBlur stdDeviation="7.5" in="shadowOffsetOuter1" result="shadowBlurOuter1"></feGaussianBlur>
            <feColorMatrix values="0 0 0 0 0.823529412   0 0 0 0 0.866666667   0 0 0 0 0.905882353  0 0 0 0.3 0" type="matrix" in="shadowBlurOuter1"></feColorMatrix>
        </filter>
        <rect id="path-7" x="0" y="0" width="363" height="82" rx="10"></rect>
        <filter x="-6.5%" y="-26.2%" width="112.9%" height="157.3%" filterUnits="objectBoundingBox" id="filter-8">
            <feOffset dx="0" dy="2" in="SourceAlpha" result="shadowOffsetOuter1"></feOffset>
            <feGaussianBlur stdDeviation="7.5" in="shadowOffsetOuter1" result="shadowBlurOuter1"></feGaussianBlur>
            <feColorMatrix values="0 0 0 0 0.823529412   0 0 0 0 0.866666667   0 0 0 0 0.905882353  0 0 0 0.3 0" type="matrix" in="shadowBlurOuter1"></feColorMatrix>
        </filter>
        <rect id="path-9" x="0" y="0" width="363" height="82" rx="10"></rect>
        <filter x="-6.5%" y="-26.2%" width="112.9%" height="157.3%" filterUnits="objectBoundingBox" id="filter-10">
            <feOffset dx="0" dy="2" in="SourceAlpha" result="shadowOffsetOuter1"></feOffset>
            <feGaussianBlur stdDeviation="7.5" in="shadowOffsetOuter1" result="shadowBlurOuter1"></feGaussianBlur>
            <feColorMatrix values="0 0 0 0 0.823529412   0 0 0 0 0.866666667   0 0 0 0 0.905882353  0 0 0 0.3 0" type="matrix" in="shadowBlurOuter1"></feColorMatrix>
        </filter>
        <rect id="path-11" x="0" y="0" width="218" height="237" rx="28"></rect>
        <filter x="-14.7%" y="-11.8%" width="129.4%" height="127.0%" filterUnits="objectBoundingBox" id="filter-12">
            <feOffset dx="0" dy="4" in="SourceAlpha" result="shadowOffsetOuter1"></feOffset>
            <feGaussianBlur stdDeviation="10" in="shadowOffsetOuter1" result="shadowBlurOuter1"></feGaussianBlur>
            <feColorMatrix values="0 0 0 0 0.823529412   0 0 0 0 0.866666667   0 0 0 0 0.905882353  0 0 0 0.3 0" type="matrix" in="shadowBlurOuter1"></feColorMatrix>
        </filter>
        <linearGradient x1="50%" y1="-33.6899849%" x2="50%" y2="100%" id="linearGradient-13">
            <stop stop-color="#9184EC" stop-opacity="0.17" offset="0%"></stop>
            <stop stop-color="#FFFFFF" stop-opacity="0" offset="100%"></stop>
        </linearGradient>
        <rect id="path-14" x="40" y="0" width="319" height="110" rx="10"></rect>
        <filter x="-15.0%" y="-38.2%" width="130.1%" height="187.3%" filterUnits="objectBoundingBox" id="filter-15">
            <feOffset dx="0" dy="6" in="SourceAlpha" result="shadowOffsetOuter1"></feOffset>
            <feGaussianBlur stdDeviation="15" in="shadowOffsetOuter1" result="shadowBlurOuter1"></feGaussianBlur>
            <feColorMatrix values="0 0 0 0 0.823529412   0 0 0 0 0.866666667   0 0 0 0 0.905882353  0 0 0 0.3 0" type="matrix" in="shadowBlurOuter1"></feColorMatrix>
        </filter>
        <rect id="path-16" x="20" y="15" width="359" height="110" rx="10"></rect>
        <filter x="-13.4%" y="-38.2%" width="126.7%" height="187.3%" filterUnits="objectBoundingBox" id="filter-17">
            <feOffset dx="0" dy="6" in="SourceAlpha" result="shadowOffsetOuter1"></feOffset>
            <feGaussianBlur stdDeviation="15" in="shadowOffsetOuter1" result="shadowBlurOuter1"></feGaussianBlur>
            <feColorMatrix values="0 0 0 0 0.823529412   0 0 0 0 0.866666667   0 0 0 0 0.905882353  0 0 0 0.3 0" type="matrix" in="shadowBlurOuter1"></feColorMatrix>
        </filter>
        <rect id="path-18" x="0" y="30" width="399" height="110" rx="10"></rect>
        <filter x="-12.0%" y="-38.2%" width="124.1%" height="187.3%" filterUnits="objectBoundingBox" id="filter-19">
            <feOffset dx="0" dy="6" in="SourceAlpha" result="shadowOffsetOuter1"></feOffset>
            <feGaussianBlur stdDeviation="15" in="shadowOffsetOuter1" result="shadowBlurOuter1"></feGaussianBlur>
            <feColorMatrix values="0 0 0 0 0.823529412   0 0 0 0 0.866666667   0 0 0 0 0.905882353  0 0 0 0.3 0" type="matrix" in="shadowBlurOuter1"></feColorMatrix>
        </filter>
    </defs>
    <g id="Full-landing" stroke="none" stroke-width="1" fill="none" fill-rule="evenodd">
        <g id="landing-green-v1.3-2" transform="translate(-76.000000, -1214.000000)">
            <g id="Group-53" transform="translate(0.000000, 1024.000000)">
                <g id="Group-25" transform="translate(91.000000, 190.000000)">
                    <g id="Money-control">
                        <g id="bill" transform="translate(0.000000, 30.000000)">
                            <g>
                                <use fill="black" fill-opacity="1" filter="url(#filter-2)" xlink:href="#path-1"></use>
                                <use fill="#FFFFFF" fill-rule="evenodd" xlink:href="#path-1"></use>
                            </g>
                            <g id="Group-24" transform="translate(150.000000, 60.000000)">
                                <g id="Rectangle">
                                    <use fill="black" fill-opacity="1" filter="url(#filter-4)" xlink:href="#path-3"></use>
                                    <use fill="#FFFFFF" fill-rule="evenodd" xlink:href="#path-3"></use>
                                </g>
                                <g id="Group-17" transform="translate(39.000000, 24.000000)">
                                    <rect id="Rectangle" fill="#E8F6FF" x="0" y="0" width="35" height="35" rx="8"></rect>
                                    <g id="flight" transform="translate(17.500000, 17.500000) rotate(-315.000000) translate(-17.500000, -17.500000) translate(6.000000, 6.000000)" fill-rule="nonzero">
                                        <path d="M1.67575036,14.6539062 L9.46036575,12.1194096 L9.46036575,17.8028263 C9.46036575,18.1484395 9.29597014,18.4652516 9.00586025,18.6572589 L6.63662948,20.2989216 C6.35618992,20.4909289 6.18212399,20.8173413 6.18212399,21.1533541 L6.18212399,21.2493578 C6.18212399,21.9693853 6.90739871,22.4782047 7.59399212,22.2285952 L10.9592668,21.0285494 C11.1816844,20.9517465 11.4234427,20.9421461 11.6458603,21.018949 L15.0304756,22.1421919 C15.7073987,22.3630003 16.4133328,21.8637812 16.4133328,21.1533541 C16.4133328,20.807741 16.2489372,20.4909289 15.9588273,20.2989216 L13.5895965,18.6572589 C13.309157,18.4652516 13.135091,18.1388392 13.135091,17.8028263 L13.135091,12.1002088 L20.9197064,14.6539062 C21.5966295,14.8747147 22.2928932,14.3754956 22.2928932,13.6650685 C22.2928932,13.3194553 22.1188273,12.9930429 21.8287174,12.8010356 L13.135091,7.09841805 L13.135091,2.17343019 C13.135091,1.25179504 12.4678383,0.445364275 11.549157,0.310959148 C10.4564097,0.157353289 9.45069542,1.00218551 9.45069542,2.12542836 L9.45069542,7.12721914 L0.766739373,12.8010356 C0.476629483,12.9930429 0.292893219,13.3194553 0.292893219,13.6650685 C0.302563548,14.3754956 0.998827285,14.8747147 1.67575036,14.6539062 Z" id="Path" fill="#8DD2FD"></path>
                                        <path d="M20.9100361,14.6436463 L13.1254207,12.0897287 L13.1254207,17.8024392 C13.1254207,18.1480822 13.2898163,18.4649216 13.5799262,18.6569454 L15.949157,20.2987496 C16.2295965,20.4907735 16.4036624,20.8172141 16.4036624,21.1532559 L16.4036624,21.1532559 C16.4036624,21.8637442 15.6977284,22.3726075 15.0208053,22.1421789 L11.6361899,21.0188392 C11.4137723,20.9420296 11.1720141,20.9516308 10.9495965,21.0284404 L7.58432179,22.2285896 C6.89772838,22.4782207 6.17245366,21.9693574 6.17245366,21.2492678 L6.17245366,21.1532559 C6.17245366,20.8076129 6.33684926,20.4907735 6.62695915,20.2987496 L8.99618992,18.6569454 C9.27662948,18.4649216 9.45069542,18.138481 9.45069542,17.8024392 L9.45069542,12.1185323 L1.66608003,14.6532475 C0.989156955,14.874075 0.292893219,14.3748129 0.292893219,13.6643245 L0.292893219,13.6643245 C0.292893219,13.3186816 0.466959153,12.992241 0.766739373,12.8002171 L9.45069542,7.12591141 L9.45069542,2.12368932 C9.45069542,1.00034962 10.4564097,0.165045741 11.549157,0.309063652 C12.4678383,0.433879174 13.135091,1.24037947 13.135091,2.17169529 L13.135091,7.09710783 L21.8287174,12.8002171 C22.1188273,12.992241 22.2928932,13.3186816 22.2928932,13.6643245 L22.2928932,13.6643245 C22.2832229,14.3652117 21.5869592,14.8644738 20.9100361,14.6436463 Z" id="Path" fill="#7DCDFF"></path>
                                    </g>
                                </g>
                                <text id="British-Airways" font-family="Axiforma-Book, Axiforma" font-size="12" font-weight="300" fill="#04004D">
                                    <tspan x="87" y="33">British Airways</tspan>
                                </text>
                                <text id="$580.99" font-family="Axiforma-Book, Axiforma" font-size="15" font-weight="300" fill="#04004D">
                                    <tspan x="243.16" y="54">$580.99</tspan>
                                </text>
                                <text id="11:30-PM" font-family="Axiforma-Book, Axiforma" font-size="12" font-weight="300" fill="#93A9B7">
                                    <tspan x="87" y="54">11:30 PM</tspan>
                                </text>
                            </g>
                            <g id="Group-24" transform="translate(100.000000, 162.000000)">
                                <g id="Rectangle">
                                    <use fill="black" fill-opacity="1" filter="url(#filter-6)" xlink:href="#path-5"></use>
                                    <use fill="#FFFFFF" fill-rule="evenodd" xlink:href="#path-5"></use>
                                </g>
                                <g id="Group-17" transform="translate(39.000000, 24.000000)">
                                    <rect id="Rectangle" fill="#E2FFED" x="0" y="0" width="35" height="35" rx="8"></rect>
                                    <g id="fork-knife" transform="translate(11.000000, 6.000000)" fill="#60D298" fill-rule="nonzero">
                                        <path d="M5.63276322,0.352181333 C5.61345737,0.152381157 5.44708598,0 5.24823747,0 L5.22895505,0 C5.01558179,0 4.84260935,0.174627898 4.84260935,0.39004 L4.84260935,5.18644267 C4.87617982,5.33456715 4.81646459,5.48833302 4.69211908,5.57395299 C4.56777357,5.65957295 4.40417529,5.65957295 4.27982978,5.57395299 C4.15548427,5.48833302 4.09576904,5.33456715 4.1293395,5.18644267 L4.1293395,0.39004 C4.12878261,0.175021348 3.95596883,0.00101186579 3.74298456,0.00101186579 C3.53000029,0.00101186579 3.35718651,0.175021348 3.35662962,0.39004 L3.35662962,5.18644267 C3.3787665,5.40973741 3.22055589,5.61014455 3.00001054,5.638176 C2.77945881,5.61015244 2.62123927,5.4097429 2.64337562,5.18644267 L2.64337562,0.39004 C2.64281872,0.175021348 2.47000494,0.00101186579 2.25702067,0.00101186579 C2.04403641,0.00101186579 1.87122262,0.175021348 1.87066573,0.39004 L1.87066573,5.18644267 C1.89279629,5.40974118 1.73457959,5.61014713 1.51403081,5.638176 C1.29347907,5.61015244 1.13525953,5.4097429 1.15739588,5.18644267 L1.15739588,0.39004 C1.15739658,0.286594743 1.11669236,0.187386132 1.04423784,0.11423929 C0.971783325,0.0410924476 0.873513706,0 0.771047541,0 L0.751780971,0 C0.55292687,0 0.386546991,0.152375657 0.367239368,0.352181333 L0.110334165,3.01146667 C-0.157548808,5.78422133 0.0256130317,6.91329067 1.06869147,7.97810133 C1.76606472,8.61457857 2.15770527,9.52373641 2.14330327,10.4727147 C2.10090044,14.1634187 1.05477115,18.1880933 1.68811406,22.492488 C1.85573374,23.6317333 2.32143319,24 3,24 C3.67858261,24 4.14400999,23.633464 4.31188853,22.492496 C4.94522352,18.1881013 3.89909951,14.1634293 3.85669932,10.4727227 C3.84229732,9.52374441 4.23393787,8.61458657 4.93131112,7.97810933 C5.97438692,6.91330933 6.15754876,5.78424267 5.88966579,3.01147467 L5.63276322,0.352181333 Z" id="Path"></path>
                                        <path d="M12.0746515,0.173188475 C11.6228873,0.44815388 9.93667084,1.52263416 9.33464332,4.33127756 C8.38808335,8.74708137 9.6431271,11.6909461 10.6987588,12.6654744 C11.505227,13.4100079 11.2729605,13.9982241 11.0153569,15.3572724 C10.4220409,18.4873346 9.56836688,22.1664715 10.7521561,23.4944505 C11.0067607,23.7882701 11.3798673,23.9711499 11.7835649,24 C12.4553898,24 13,23.6207839 13,22.3861329 L13,0.476703221 C13,0.0683217813 12.6702876,-0.189339619 12.0746515,0.173188475 Z" id="Path"></path>
                                    </g>
                                </g>
                                <text id="Deliveroo" font-family="Axiforma-Book, Axiforma" font-size="12" font-weight="300" fill="#04004D">
                                    <tspan x="87" y="33">Deliveroo</tspan>
                                </text>
                                <text id="$24.50" font-family="Axiforma-Book, Axiforma" font-size="15" font-weight="300" fill="#04004D">
                                    <tspan x="253.45" y="54">$24.50</tspan>
                                </text>
                                <text id="9:24-PM" font-family="Axiforma-Book, Axiforma" font-size="12" font-weight="300" fill="#93A9B7">
                                    <tspan x="87" y="54">9:24 PM</tspan>
                                </text>
                            </g>
                            <g id="Group-24" transform="translate(50.000000, 264.000000)">
                                <g id="Rectangle">
                                    <use fill="black" fill-opacity="1" filter="url(#filter-8)" xlink:href="#path-7"></use>
                                    <use fill="#FFFFFF" fill-rule="evenodd" xlink:href="#path-7"></use>
                                </g>
                                <g id="Group-10" transform="translate(39.000000, 24.000000)">
                                    <rect id="Rectangle" fill="#FDF9E5" x="0" y="0" width="35" height="35" rx="8"></rect>
                                    <g id="icon/offices-grey" transform="translate(9.000000, 9.000000)">
                                        <path d="M0.186509811,16.8181978 L0.186509811,1.00569781 C0.187031872,0.453616872 0.634429086,0.00598608956 1.18650968,0.00517588395 L10.0963166,0.000525634871 C10.6486013,0.000237383809 11.0965501,0.447718899 11.0968384,1.00000357 C11.0968396,1.00236471 11.0968325,1.00472584 11.096817,1.00708692 L10.9930283,16.8247592 C10.9894213,17.3744715 10.5427739,17.8181978 9.99304985,17.8181978 L1.18650981,17.8181978 C0.634225061,17.8181978 0.186509811,17.3704826 0.186509811,16.8181978 Z" id="Path-3" fill="#FFDA91"></path>
                                        <rect id="Rectangle" fill="#FDF9E5" x="2.58650981" y="2.38069781" width="2.4" height="2.375" rx="0.5"></rect>
                                        <rect id="Rectangle" fill="#FDF9E5" x="2.58650981" y="5.94319781" width="2.4" height="2.375" rx="0.5"></rect>
                                        <rect id="Rectangle" fill="#FDF9E5" x="6.18650981" y="2.38069781" width="2.4" height="2.375" rx="0.5"></rect>
                                        <rect id="Rectangle" fill="#FDF9E5" x="6.18650981" y="5.94319781" width="2.4" height="2.375" rx="0.5"></rect>
                                        <rect id="Rectangle" fill="#FDF9E5" x="2.58650981" y="9.50569781" width="2.4" height="2.375" rx="0.5"></rect>
                                        <rect id="Rectangle" fill="#FDF9E5" x="6.18650981" y="9.50569781" width="2.4" height="2.375" rx="0.5"></rect>
                                        <path d="M9.79006669,17.8137349 L15.98651,17.8175777 C16.5387944,17.8182407 16.9867873,17.3708032 16.9871298,16.8185186 C16.9871298,16.8184117 16.9871299,16.8183048 16.9868093,16.8181979 L16.9897672,6.94319776 C16.9902321,6.39091313 16.5426509,5.9430638 15.9903662,5.94289837 C15.9902664,5.94289834 15.9901665,5.94289833 15.9900667,5.94319781 L9.79006669,5.94319781 L9.79006669,5.94319781 L9.79006669,17.8137349 Z" id="Path-4" fill="#FFDA91"></path>
                                        <rect id="Rectangle" fill="#FDF9E5" x="12.1865098" y="8.13069781" width="2.4" height="2.375" rx="0.5"></rect>
                                        <rect id="Rectangle" fill="#FDF9E5" x="12.1865098" y="11.6931978" width="2.4" height="2.375" rx="0.5"></rect>
                                    </g>
                                </g>
                                <text id="Coliving.Hub-Soho" font-family="Axiforma-Book, Axiforma" font-size="12" font-weight="300" fill="#04004D">
                                    <tspan x="87" y="33">Coliving.Hub Soho</tspan>
                                </text>
                                <text id="$210.80" font-family="Axiforma-Book, Axiforma" font-size="15" font-weight="300" fill="#04004D">
                                    <tspan x="245.785" y="54">$210.80</tspan>
                                </text>
                                <text id="6:15-PM" font-family="Axiforma-Book, Axiforma" font-size="12" font-weight="300" fill="#93A9B7">
                                    <tspan x="87" y="54">6:15 PM</tspan>
                                </text>
                            </g>
                            <g id="Group-24" transform="translate(0.000000, 366.000000)">
                                <g id="Rectangle">
                                    <use fill="black" fill-opacity="1" filter="url(#filter-10)" xlink:href="#path-9"></use>
                                    <use fill="#FFFFFF" fill-rule="evenodd" xlink:href="#path-9"></use>
                                </g>
                                <g id="Group-17" transform="translate(39.000000, 24.000000)">
                                    <rect id="Rectangle" fill="#F0EFFF" x="0" y="0" width="35" height="35" rx="8"></rect>
                                    <g id="metro" transform="translate(10.000000, 6.000000)" fill="#9D98EC" fill-rule="nonzero">
                                        <path d="M4.00383796,1.74860312 C4.41946728,1.30529106 4.95793684,1.03359336 5.54381318,0.96055957 L5.91680621,1.64190768 C5.92008592,1.64130658 5.92306748,1.64070547 5.9263472,1.64010437 C6.14280838,1.61095097 6.57990493,1.6010328 6.95468689,1.59772674 C6.95110902,1.59081408 6.94961824,1.58360087 6.94574222,1.57668821 L6.5963035,0.938318829 L8.40372456,0.938318829 L8.05428585,1.57668821 C8.05040982,1.58330032 8.04891904,1.59051353 8.04563933,1.59772674 C8.42012314,1.60073225 8.85751784,1.61065042 9.07338271,1.64010437 C9.07696058,1.64040492 9.07994214,1.64130658 9.08322186,1.64190768 L9.45621489,0.96055957 C10.0423894,1.03359336 10.5805608,1.30529106 10.9964883,1.74860312 C11.0880221,1.8459815 11.2114587,1.89497124 11.3351934,1.89497124 C11.4499834,1.89497124 11.5650716,1.85229306 11.6554128,1.76633561 C11.8420584,1.58810913 11.8504068,1.29116518 11.6736003,1.10241943 C11.0337577,0.421071326 10.1798393,0.0369677181 9.25973015,0.00601101108 C9.23289612,0.00210385388 9.20606209,0.00120220222 9.17952621,0.00180330332 C9.16581104,0.00180330332 9.15328849,0 9.13987148,0 L5.86015659,0 C5.84733588,0 5.83511149,0.00180330332 5.82199263,0.00180330332 C5.79486045,0.000901651662 5.76772826,0.00180330332 5.74089423,0.00601101108 C4.82078512,0.0372682687 3.96716479,0.421071326 3.32732223,1.10241943 C3.15081393,1.29116518 3.15886414,1.58810913 3.34550974,1.76633561 C3.53155902,1.94486263 3.82703151,1.93674777 4.00383796,1.74860312 Z M10.1637388,19.3509474 L10.7233775,19.8814191 L4.27665061,19.8814191 L4.85835277,19.3509474 L3.38665525,19.3509474 L0.252738595,22 L1.92837475,22 L2.88068469,21.140726 L12.1190452,21.140726 L13.0713552,22 L14.7466932,22 L11.6133728,19.351248 L10.1637388,19.351248 L10.1637388,19.3509474 Z M3.75875381,18.6167024 L11.2412743,18.6167024 C15.1357866,18.6167024 15.161428,14.4492684 14.9121697,11.908414 C14.7914165,10.6722496 14.6286234,9.4390907 14.5332135,8.20022131 C14.3015464,5.19501633 11.9285236,2.66347901 8.96187241,2.26344622 C8.64046035,2.21986639 7.79310128,2.22166969 7.50031219,2.223473 C7.20692678,2.22136914 6.35926956,2.21986639 6.03845382,2.26344622 C3.07180262,2.66347901 0.69877982,5.19501633 0.467112687,8.20022131 C0.371404643,9.4390907 0.208909678,10.6722496 0.0878583833,11.908414 C-0.161399948,14.4492684 -0.136056697,18.6167024 3.75875381,18.6167024 Z M11.7487356,16.078553 C11.0901092,16.078553 10.556112,15.5402669 10.556112,14.8763508 C10.556112,14.2124346 11.0901092,13.6741486 11.7487356,13.6741486 C12.407362,13.6741486 12.9413592,14.2124346 12.9413592,14.8763508 C12.9413592,15.5405675 12.407362,16.078553 11.7487356,16.078553 Z M6.00148248,3.43559338 L8.99824743,3.43559338 C9.32144842,3.43559338 9.58352746,3.70007787 9.58352746,4.02617522 C9.58352746,4.35257312 9.32144842,4.61675706 8.99824743,4.61675706 L6.00148248,4.61675706 C5.67828149,4.61675706 5.4159043,4.35257312 5.4159043,4.02617522 C5.4159043,3.70007787 5.67828149,3.43559338 6.00148248,3.43559338 Z M2.18180726,7.53720679 C2.28467105,6.50421454 3.14544713,5.71887594 4.17348867,5.68731813 C4.17497945,5.68731813 4.17617207,5.68821978 4.17766285,5.68821978 L4.17766285,5.68701758 L10.8223652,5.68701758 L10.8223652,5.68821978 C10.823856,5.68821978 10.8253468,5.68761868 10.8268376,5.68731813 C11.8545809,5.71887594 12.7156552,6.50451509 12.8188171,7.53720679 C12.8805354,8.15724259 12.8811317,8.79410921 12.8146429,9.41324335 C12.7046234,10.4378202 11.8089631,11.2222571 10.7844994,11.2408913 L10.7844994,11.2414924 L4.21552865,11.2414924 L4.21552865,11.2408913 C3.19106498,11.2219566 2.29540466,10.4375196 2.18538513,9.41324335 C2.11889637,8.79410921 2.11949268,8.15724259 2.18180726,7.53720679 Z M3.25129247,13.6741486 C3.9096207,13.6741486 4.44391607,14.2124346 4.44391607,14.8763508 C4.44391607,15.5402669 3.9096207,16.078553 3.25129247,16.078553 C2.59296425,16.078553 2.05866888,15.5402669 2.05866888,14.8763508 C2.05866888,14.2124346 2.59296425,13.6741486 3.25129247,13.6741486 Z" id="Shape"></path>
                                    </g>
                                </g>
                                <text id="Transport-in-London" font-family="Axiforma-Book, Axiforma" font-size="12" font-weight="300" fill="#04004D">
                                    <tspan x="87" y="33">Transport in London</tspan>
                                </text>
                                <text id="$580.99" font-family="Axiforma-Book, Axiforma" font-size="15" font-weight="300" fill="#04004D">
                                    <tspan x="243" y="54">$580.99</tspan>
                                </text>
                                <text id="11:30-PM" font-family="Axiforma-Book, Axiforma" font-size="12" font-weight="300" fill="#93A9B7">
                                    <tspan x="87" y="54">11:30 PM</tspan>
                                </text>
                            </g>
                            <line x1="170" y1="462.823089" x2="492.83546" y2="462.823089" id="Path-13" stroke="#DFE5E9" stroke-dasharray="5"></line>
                        </g>
                        <g id="Group-34" transform="translate(382.000000, 0.000000)" fill="#B9CAD5">
                            <g id="Group-33" opacity="0.332752046" transform="translate(0.000000, 580.000000)">
                                <circle id="Oval" cx="1.5" cy="15.5" r="1.5"></circle>
                                <circle id="Oval" cx="15.5" cy="15.5" r="1.5"></circle>
                                <circle id="Oval" cx="28.5" cy="15.5" r="1.5"></circle>
                                <circle id="Oval" cx="42.5" cy="15.5" r="1.5"></circle>
                                <circle id="Oval" cx="1.5" cy="29.5" r="1.5"></circle>
                                <circle id="Oval" cx="15.5" cy="29.5" r="1.5"></circle>
                                <circle id="Oval" cx="28.5" cy="29.5" r="1.5"></circle>
                                <circle id="Oval" cx="42.5" cy="29.5" r="1.5"></circle>
                                <circle id="Oval" cx="1.5" cy="43.5" r="1.5"></circle>
                                <circle id="Oval" cx="15.5" cy="43.5" r="1.5"></circle>
                                <circle id="Oval" cx="28.5" cy="43.5" r="1.5"></circle>
                                <circle id="Oval" cx="42.5" cy="43.5" r="1.5"></circle>
                                <circle id="Oval" cx="1.5" cy="57.5" r="1.5"></circle>
                                <circle id="Oval" cx="15.5" cy="57.5" r="1.5"></circle>
                                <circle id="Oval" cx="28.5" cy="57.5" r="1.5"></circle>
                                <circle id="Oval" cx="42.5" cy="57.5" r="1.5"></circle>
                                <circle id="Oval" cx="55.5" cy="15.5" r="1.5"></circle>
                                <circle id="Oval" cx="1.5" cy="1.5" r="1.5"></circle>
                                <circle id="Oval" cx="15.5" cy="1.5" r="1.5"></circle>
                                <circle id="Oval" cx="28.5" cy="1.5" r="1.5"></circle>
                                <circle id="Oval" cx="42.5" cy="1.5" r="1.5"></circle>
                                <circle id="Oval" cx="55.5" cy="1.5" r="1.5"></circle>
                                <circle id="Oval" cx="55.5" cy="29.5" r="1.5"></circle>
                                <circle id="Oval" cx="55.5" cy="43.5" r="1.5"></circle>
                                <circle id="Oval" cx="55.5" cy="57.5" r="1.5"></circle>
                            </g>
                            <g id="small-dots" opacity="0.332752046" transform="translate(267.000000, 720.000000)">
                                <circle id="Oval" cx="1.5" cy="15.5" r="1.5"></circle>
                                <circle id="Oval" cx="15.5" cy="15.5" r="1.5"></circle>
                                <circle id="Oval" cx="28.5" cy="15.5" r="1.5"></circle>
                                <circle id="Oval" cx="42.5" cy="15.5" r="1.5"></circle>
                                <circle id="Oval" cx="1.5" cy="29.5" r="1.5"></circle>
                                <circle id="Oval" cx="15.5" cy="29.5" r="1.5"></circle>
                                <circle id="Oval" cx="28.5" cy="29.5" r="1.5"></circle>
                                <circle id="Oval" cx="42.5" cy="29.5" r="1.5"></circle>
                                <circle id="Oval" cx="1.5" cy="43.5" r="1.5"></circle>
                                <circle id="Oval" cx="15.5" cy="43.5" r="1.5"></circle>
                                <circle id="Oval" cx="28.5" cy="43.5" r="1.5"></circle>
                                <circle id="Oval" cx="42.5" cy="43.5" r="1.5"></circle>
                                <circle id="Oval" cx="1.5" cy="57.5" r="1.5"></circle>
                                <circle id="Oval" cx="15.5" cy="57.5" r="1.5"></circle>
                                <circle id="Oval" cx="28.5" cy="57.5" r="1.5"></circle>
                                <circle id="Oval" cx="42.5" cy="57.5" r="1.5"></circle>
                                <circle id="Oval" cx="55.5" cy="15.5" r="1.5"></circle>
                                <circle id="Oval" cx="1.5" cy="1.5" r="1.5"></circle>
                                <circle id="Oval" cx="15.5" cy="1.5" r="1.5"></circle>
                                <circle id="Oval" cx="28.5" cy="1.5" r="1.5"></circle>
                                <circle id="Oval" cx="42.5" cy="1.5" r="1.5"></circle>
                                <circle id="Oval" cx="55.5" cy="1.5" r="1.5"></circle>
                                <circle id="Oval" cx="55.5" cy="29.5" r="1.5"></circle>
                                <circle id="Oval" cx="55.5" cy="43.5" r="1.5"></circle>
                                <circle id="Oval" cx="55.5" cy="57.5" r="1.5"></circle>
                            </g>
                            <g id="Group-33" opacity="0.329241071" transform="translate(70.000000, 0.000000)">
                                <circle id="Oval" cx="1.5" cy="15.5" r="1.5"></circle>
                                <circle id="Oval" cx="15.5" cy="15.5" r="1.5"></circle>
                                <circle id="Oval" cx="28.5" cy="15.5" r="1.5"></circle>
                                <circle id="Oval" cx="42.5" cy="15.5" r="1.5"></circle>
                                <circle id="Oval" cx="1.5" cy="29.5" r="1.5"></circle>
                                <circle id="Oval" cx="15.5" cy="29.5" r="1.5"></circle>
                                <circle id="Oval" cx="28.5" cy="29.5" r="1.5"></circle>
                                <circle id="Oval" cx="42.5" cy="29.5" r="1.5"></circle>
                                <circle id="Oval" cx="1.5" cy="43.5" r="1.5"></circle>
                                <circle id="Oval" cx="15.5" cy="43.5" r="1.5"></circle>
                                <circle id="Oval" cx="28.5" cy="43.5" r="1.5"></circle>
                                <circle id="Oval" cx="42.5" cy="43.5" r="1.5"></circle>
                                <circle id="Oval" cx="1.5" cy="57.5" r="1.5"></circle>
                                <circle id="Oval" cx="15.5" cy="57.5" r="1.5"></circle>
                                <circle id="Oval" cx="28.5" cy="57.5" r="1.5"></circle>
                                <circle id="Oval" cx="42.5" cy="57.5" r="1.5"></circle>
                                <circle id="Oval" cx="55.5" cy="15.5" r="1.5"></circle>
                                <circle id="Oval" cx="1.5" cy="1.5" r="1.5"></circle>
                                <circle id="Oval" cx="15.5" cy="1.5" r="1.5"></circle>
                                <circle id="Oval" cx="28.5" cy="1.5" r="1.5"></circle>
                                <circle id="Oval" cx="42.5" cy="1.5" r="1.5"></circle>
                                <circle id="Oval" cx="55.5" cy="1.5" r="1.5"></circle>
                                <circle id="Oval" cx="55.5" cy="29.5" r="1.5"></circle>
                                <circle id="Oval" cx="55.5" cy="43.5" r="1.5"></circle>
                                <circle id="Oval" cx="55.5" cy="57.5" r="1.5"></circle>
                            </g>
                        </g>
                        <g id="income" transform="translate(443.000000, 295.000000)">
                            <g id="Rectangle">
                                <use fill="black" fill-opacity="1" filter="url(#filter-12)" xlink:href="#path-11"></use>
                                <use fill="#FFFFFF" fill-rule="evenodd" xlink:href="#path-11"></use>
                            </g>
                            <g id="Group-16" transform="translate(23.000000, 26.000000)">
                                <g id="Group-14" transform="translate(13.000000, 0.000000)">
                                    <text id="Income" font-family="Axiforma-Book, Axiforma" font-size="12" font-weight="300" fill="#ABB3BB">
                                        <tspan x="0" y="9">Income</tspan>
                                    </text>
                                    <circle id="Oval" fill="#04004D" cx="92" cy="17" r="2"></circle>
                                    <text id="Expenses" font-family="Axiforma-Book, Axiforma" font-size="12" font-weight="300" fill="#04004D">
                                        <tspan x="65" y="9">Expenses</tspan>
                                    </text>
                                </g>
                                <g id="Group-15" transform="translate(0.000000, 38.000000)">
                                    <g id="Group-12" transform="translate(24.500000, 0.000000)" stroke-width="0.5">
                                        <line x1="0.5" y1="0" x2="0.5" y2="146" id="Path-66" stroke="#E2E8EF"></line>
                                        <line x1="35.5" y1="0" x2="35.5" y2="146" id="Path-66" stroke="#E2E8EF"></line>
                                        <line x1="70.5" y1="0" x2="70.5" y2="146" id="Path-66" stroke="#312D70"></line>
                                        <line x1="105.5" y1="0" x2="105.5" y2="146" id="Path-66" stroke="#E2E8EF"></line>
                                        <line x1="140.5" y1="0" x2="140.5" y2="146" id="Path-66" stroke="#E2E8EF"></line>
                                    </g>
                                    <path d="M25,90.5 C34.3333333,88.8333333 44,90.6666667 54,96 C61.9524724,100.241319 74.8496156,102.272331 83.5,92 C91.5,82.5 91.5,67.5 104,57 C113.261912,49.2199936 133.595246,47.5533269 165,52 L165,146 L25,146 L25,90.5 Z" id="Path-67" fill="url(#linearGradient-13)"></path>
                                    <path d="M25.5,90.5 C34.5,88.8333333 44,90.6666667 54,96 C61.9524724,100.241319 74.8496156,102.272331 83.5,92 C91.5,82.5 91.5,67.5 104,57 C113.261912,49.2199936 133.428579,47.5533269 164.5,52" id="Path-67" stroke="#9D98EC" stroke-linecap="round"></path>
                                    <g id="Group-13" transform="translate(87.000000, 59.000000)">
                                        <circle id="Oval" fill="#312D70" cx="8" cy="8" r="8"></circle>
                                        <circle id="Oval" fill="#FFFFFF" cx="8" cy="8" r="2"></circle>
                                    </g>
                                    <g id="Group-11" transform="translate(0.000000, 7.000000)" fill="#ABB3BB" font-family="Axiforma-Book, Axiforma" font-size="7" font-weight="300">
                                        <text id="10k">
                                            <tspan x="1" y="5">10k</tspan>
                                        </text>
                                        <text id="8k">
                                            <tspan x="5" y="28">8k</tspan>
                                        </text>
                                        <text id="6k">
                                            <tspan x="5" y="51">6k</tspan>
                                        </text>
                                        <text id="4k">
                                            <tspan x="5" y="74">4k</tspan>
                                        </text>
                                        <text id="2k">
                                            <tspan x="5" y="97">2k</tspan>
                                        </text>
                                        <text id="0k">
                                            <tspan x="5" y="120">0k</tspan>
                                        </text>
                                        <text id="March">
                                            <tspan x="0" y="138">March</tspan>
                                        </text>
                                        <text id="April">
                                            <tspan x="41" y="138">April</tspan>
                                        </text>
                                        <text id="May">
                                            <tspan x="77" y="138">May</tspan>
                                        </text>
                                        <text id="June">
                                            <tspan x="110" y="138">June</tspan>
                                        </text>
                                        <text id="July">
                                            <tspan x="148" y="138">July</tspan>
                                        </text>
                                    </g>
                                    <text id="$4,327" font-family="Axiforma-Book, Axiforma" font-size="14" font-weight="300" fill="#04004D">
                                        <tspan x="38" y="55">$4,327</tspan>
                                    </text>
                                    <text id="spent" font-family="Axiforma-Book, Axiforma" font-size="10" font-weight="300" fill="#ABB3BB">
                                        <tspan x="52.45" y="70">spent</tspan>
                                    </text>
                                </g>
                            </g>
                        </g>
                        <g id="Group-32" transform="translate(285.000000, 557.000000)">
                            <g id="Rectangle">
                                <use fill="black" fill-opacity="1" filter="url(#filter-15)" xlink:href="#path-14"></use>
                                <use fill="#FFFFFF" fill-rule="evenodd" xlink:href="#path-14"></use>
                            </g>
                            <g id="Rectangle">
                                <use fill="black" fill-opacity="1" filter="url(#filter-17)" xlink:href="#path-16"></use>
                                <use fill="#FFFFFF" fill-rule="evenodd" xlink:href="#path-16"></use>
                            </g>
                            <g id="Rectangle">
                                <use fill="black" fill-opacity="1" filter="url(#filter-19)" xlink:href="#path-18"></use>
                                <use fill="#FFFFFF" fill-rule="evenodd" xlink:href="#path-18"></use>
                            </g>
                            <g id="Zest-2" transform="translate(25.000000, 50.000000)">
                                <path d="M11.660672,12.1912351 L11.660672,12.1912351 L11.660672,12.1912351 L3.94794132,12.1912351 L10.2711055,3.56281403 C11.0284934,2.52930266 11.4368197,1.28132051 11.4368197,0 L11.4368197,0 L11.4368197,0 L0.305253195,0 C0.305253195,1.39721441 1.43791927,2.52988048 2.83513367,2.52988048 L7.61097965,2.52988048 L7.61097965,2.52988048 L1.12473083,11.3067546 C0.394217394,12.2952496 -1.50525594e-16,13.4919808 0,14.7211155 L0,14.7211155 L0,14.7211155 L9.13079155,14.7211155 C10.528006,14.7211155 11.660672,13.5884495 11.660672,12.1912351 Z M24.0539517,9.08366534 C24.0539517,7.41035857 23.5451964,6.09561753 22.5073355,5.11952191 C21.4898249,4.14342629 20.1874113,3.64541833 18.5797444,3.64541833 C16.8906768,3.64541833 15.5068623,4.18326693 14.428301,5.25896414 C13.3700899,6.31474104 12.8409844,7.66932271 12.8409844,9.30278884 C12.8409844,12.1713147 14.6725035,14.9601594 18.823947,14.9601594 C20.6554662,14.9601594 22.263133,14.4621514 23.6265973,13.4661355 C23.0531938,12.462289 21.8501993,12.003726 20.7540829,12.3711876 C20.0423348,12.609785 19.4328732,12.7290837 18.9256981,12.7290837 C17.0331283,12.7290837 15.8935163,11.7330677 15.5475627,10.2390438 L23.9725509,10.2390438 C24.0268181,9.66799469 24.0539517,9.28286853 24.0539517,9.08366534 Z M18.5797444,5.81673307 C20.1060104,5.81673307 21.2252721,6.75298805 21.4491245,8.26693227 L15.5475627,8.26693227 C15.8935163,6.75298805 17.0331283,5.81673307 18.5797444,5.81673307 Z M29.6299101,15 C30.9119735,15 31.9498344,14.6812749 32.7434927,14.0239044 C33.537151,13.3665339 33.923805,12.5498008 33.923805,11.5737052 C33.923805,10.4454183 33.3424076,9.55579283 32.1976172,8.90482869 L32.0515854,8.8247012 C31.8684335,8.7250996 30.9730241,8.36653386 29.3857075,7.74900398 C28.7548509,7.52988048 28.4292475,7.17131474 28.4292475,6.69322709 C28.4292475,6.11553785 28.9380028,5.67729084 29.7723616,5.67729084 C30.7084714,5.67729084 31.5428301,6.05577689 32.2550876,6.79282869 C32.849943,5.89187237 32.6017993,4.67927732 31.7008429,4.08442186 C31.6287171,4.03680087 31.5535125,3.99401564 31.4757377,3.9563199 C30.9105804,3.68265112 30.3699219,3.54581673 29.8537624,3.54581673 C28.6530999,3.54581673 27.6762896,3.84462151 26.943682,4.44223108 C26.2110743,5.03984064 25.8447705,5.81673307 25.8447705,6.75298805 C25.8447705,7.94054551 26.4092179,8.8334237 27.5562042,9.43162262 L27.6966398,9.50199203 C27.9408424,9.62151394 28.4088973,9.82071713 29.1008045,10.0796813 L29.7248777,10.312085 C30.0464111,10.435591 30.2727055,10.5304117 30.4037608,10.5965471 L30.4439186,10.6175299 C30.9933743,10.876494 31.2782773,11.2350598 31.2782773,11.6533865 C31.2782773,12.2908367 30.6067203,12.7888446 29.6502603,12.7888446 C28.571699,12.7888446 27.4117369,12.2111554 26.6791292,11.2549801 C26.0092818,12.0795567 26.1347146,13.2910268 26.9592912,13.9608742 C27.0020947,13.9956458 27.0463737,14.0285606 27.0920188,14.0595076 C28.0159408,14.6865025 28.8619046,15 29.6299101,15 Z M42.7761477,12.0517928 C43.2144124,13.1190772 42.7044912,14.3395658 41.6372069,14.7778305 C41.5036274,14.832683 41.3647205,14.8735376 41.2227113,14.8997223 C40.9323655,14.9532939 40.6633027,14.9800797 40.415523,14.9800797 C37.9124468,14.9800797 36.6303833,13.5258964 36.6303833,10.7569721 L36.6303833,6.09561753 L34.7988642,6.09561753 L34.7988642,5.77660206 C34.7988642,4.74260373 35.6370854,3.90438247 36.6710838,3.90438247 L36.6710838,3.90438247 L36.6710838,3.90438247 L36.6710838,2.70485875 C36.6710838,1.25501326 37.8464158,0.0796812749 39.2962612,0.0796812749 L39.2962612,0.0796812749 L39.2962612,0.0796812749 L39.2962612,3.90438247 L43,3.90438247 C43,5.11456818 42.0189506,6.09561753 40.8087649,6.09561753 L39.2962612,6.09561753 L39.2962612,6.09561753 L39.2962612,10.6573705 C39.2962612,11.9521912 39.8253668,12.6095618 40.9039281,12.6095618 C41.5144345,12.6095618 42.1452911,12.4302789 42.7761477,12.0517928 Z" id="Zest" fill="#04004D" fill-rule="nonzero"></path>
                                <g id="Group-27" transform="translate(50.000000, 38.000000)">
                                    <text id="You-got-paid-$3,470" font-family="Axiforma-Book, Axiforma" font-size="12" font-weight="300" fill="#04004D">
                                        <tspan x="0" y="20">You got paid $3,470 by Miles Grant! </tspan>
                                    </text>
                                    <text id="🎉" font-family="AppleColorEmoji, Apple Color Emoji" font-size="14" font-weight="normal" fill="#93A9B7">
                                        <tspan x="211" y="18">🎉</tspan>
                                    </text>
                                    <text id="💸" font-family="AppleColorEmoji, Apple Color Emoji" font-size="14" font-weight="normal" fill="#93A9B7">
                                        <tspan x="229" y="20">💸</tspan>
                                    </text>
                                </g>
                                <rect id="Rectangle" fill="#DAF7E8" x="0" y="35" width="35" height="35" rx="8"></rect>
                                <g id="Group-3" transform="translate(11.000000, 44.000000)" stroke="#20995B" stroke-linecap="round" stroke-width="2.5">
                                    <line x1="7" y1="0" x2="7" y2="18" id="Path-60"></line>
                                    <line x1="7" y1="18" x2="0" y2="12" id="Path-61"></line>
                                    <line x1="14" y1="18" x2="7" y2="12" id="Path-61" transform="translate(10.500000, 15.000000) scale(-1, 1) translate(-10.500000, -15.000000) "></line>
                                </g>
                                <text id="NOW" font-family="Axiforma-Book, Axiforma" font-size="12" font-weight="300" fill="#93A9B7">
                                    <tspan x="317" y="11">NOW</tspan>
                                </text>
                            </g>
                        </g>
                    </g>
                </g>
            </g>
        </g>
    </g>
</svg>