<?xml version="1.0" encoding="UTF-8"?>
<svg width="24px" height="28px" viewBox="0 0 24 28" version="1.1" xmlns="http://www.w3.org/2000/svg" xmlns:xlink="http://www.w3.org/1999/xlink">
    <!-- Generator: sketchtool 59.1 (101010) - https://sketch.com -->
    <title>C8C98A11-899A-49DC-84D1-067A795A0BF5</title>
    <desc>Created with sketchtool.</desc>
    <g id="Full-landing" stroke="none" stroke-width="1" fill="none" fill-rule="evenodd">
        <g id="landing-green-v1.3-2" transform="translate(-776.000000, -5583.000000)" fill="#B3AFE3">
            <g id="Group-51" transform="translate(0.000000, 5058.000000)">
                <g id="Group-52" transform="translate(473.000000, 181.000000)">
                    <g id="Group-50" transform="translate(47.000000, 325.000000)">
                        <g id="Group-49" transform="translate(230.000000, 0.000000)">
                            <g id="play-store-logo" transform="translate(26.000000, 19.000000)">
                                <path d="M0,2.04722786 L0,25.9525305 C8.11624501e-17,26.6152722 0.5372583,27.1525305 1.2,27.1525305 C1.40533214,27.1525305 1.60722959,27.0998427 1.78637795,26.9995075 L23.1303982,15.0454125 C23.7086276,14.7215649 23.9148448,13.990287 23.5909972,13.4120575 C23.4828479,13.218957 23.323402,13.0595275 23.1302903,12.9513981 L1.78627013,1.00019045 C1.20800733,0.676402398 0.476750642,0.882694937 0.152962591,1.46095773 C0.0526662983,1.64007989 -2.47185412e-16,1.84193759 0,2.04722786 Z"></path>
                            </g>
                        </g>
                    </g>
                </g>
            </g>
        </g>
    </g>
</svg>