<?xml version="1.0" encoding="UTF-8"?>
<svg width="57px" height="59px" viewBox="0 0 57 59" version="1.1" xmlns="http://www.w3.org/2000/svg" xmlns:xlink="http://www.w3.org/1999/xlink">
    <!-- Generator: sketchtool 59.1 (101010) - https://sketch.com -->
    <title>EDD4B225-B425-4EF4-AE1F-052010DEE5BE</title>
    <desc>Created with sketchtool.</desc>
    <g id="Full-landing" stroke="none" stroke-width="1" fill="none" fill-rule="evenodd" opacity="0.332752046">
        <g id="landing-green-v1.3-2" transform="translate(-740.000000, -1934.000000)" fill="#B9CAD5">
            <g id="Group-53" transform="translate(0.000000, 1024.000000)">
                <g id="Group-25" transform="translate(91.000000, 190.000000)">
                    <g id="Money-control">
                        <g id="Group-34" transform="translate(382.000000, 0.000000)">
                            <g id="small-dots" transform="translate(267.000000, 720.000000)">
                                <circle id="Oval" cx="1.5" cy="15.5" r="1.5"></circle>
                                <circle id="Oval" cx="15.5" cy="15.5" r="1.5"></circle>
                                <circle id="Oval" cx="28.5" cy="15.5" r="1.5"></circle>
                                <circle id="Oval" cx="42.5" cy="15.5" r="1.5"></circle>
                                <circle id="Oval" cx="1.5" cy="29.5" r="1.5"></circle>
                                <circle id="Oval" cx="15.5" cy="29.5" r="1.5"></circle>
                                <circle id="Oval" cx="28.5" cy="29.5" r="1.5"></circle>
                                <circle id="Oval" cx="42.5" cy="29.5" r="1.5"></circle>
                                <circle id="Oval" cx="1.5" cy="43.5" r="1.5"></circle>
                                <circle id="Oval" cx="15.5" cy="43.5" r="1.5"></circle>
                                <circle id="Oval" cx="28.5" cy="43.5" r="1.5"></circle>
                                <circle id="Oval" cx="42.5" cy="43.5" r="1.5"></circle>
                                <circle id="Oval" cx="1.5" cy="57.5" r="1.5"></circle>
                                <circle id="Oval" cx="15.5" cy="57.5" r="1.5"></circle>
                                <circle id="Oval" cx="28.5" cy="57.5" r="1.5"></circle>
                                <circle id="Oval" cx="42.5" cy="57.5" r="1.5"></circle>
                                <circle id="Oval" cx="55.5" cy="15.5" r="1.5"></circle>
                                <circle id="Oval" cx="1.5" cy="1.5" r="1.5"></circle>
                                <circle id="Oval" cx="15.5" cy="1.5" r="1.5"></circle>
                                <circle id="Oval" cx="28.5" cy="1.5" r="1.5"></circle>
                                <circle id="Oval" cx="42.5" cy="1.5" r="1.5"></circle>
                                <circle id="Oval" cx="55.5" cy="1.5" r="1.5"></circle>
                                <circle id="Oval" cx="55.5" cy="29.5" r="1.5"></circle>
                                <circle id="Oval" cx="55.5" cy="43.5" r="1.5"></circle>
                                <circle id="Oval" cx="55.5" cy="57.5" r="1.5"></circle>
                            </g>
                        </g>
                    </g>
                </g>
            </g>
        </g>
    </g>
</svg>