<?xml version="1.0" encoding="UTF-8"?>
<svg width="98px" height="81px" viewBox="0 0 98 81" version="1.1" xmlns="http://www.w3.org/2000/svg" xmlns:xlink="http://www.w3.org/1999/xlink">
    <!-- Generator: sketchtool 59.1 (101010) - https://sketch.com -->
    <title>E8B29C04-2BAB-4761-873E-B14911E3EB27</title>
    <desc>Created with sketchtool.</desc>
    <g id="Full-landing" stroke="none" stroke-width="1" fill="none" fill-rule="evenodd">
        <g id="landing-green-v1.3-2" transform="translate(-719.000000, -3908.000000)">
            <g id="Group-55" transform="translate(-24.000000, 3470.000000)">
                <g id="mobile-accounts" transform="translate(195.000000, 0.000000)">
                    <g id="icon/travel-carefree" transform="translate(547.694829, 436.000000)">
                        <g id="Group-39" transform="translate(50.000000, 42.000000) rotate(-300.000000) translate(-50.000000, -42.000000) translate(28.000000, -3.000000)">
                            <rect id="Rectangle" fill="#C8EAFF" x="0" y="1.36424205e-12" width="44" height="90" rx="5"></rect>
                            <path d="M31.6171429,71.3507531 L23.8325275,68.7968355 L23.8325275,74.509546 C23.8325275,74.8551889 23.9969231,75.1720283 24.287033,75.3640522 L26.6562637,77.0058564 C26.9367033,77.1978803 27.1107692,77.5243209 27.1107692,77.8603627 L27.1107692,77.8603627 C27.1107692,78.570851 26.4048352,79.0797143 25.7279121,78.8492857 L22.3432967,77.725946 C22.1208791,77.6491364 21.8791209,77.6587376 21.6567033,77.7355471 L18.2914286,78.9356964 C17.6048352,79.1853274 16.8795604,78.6764642 16.8795604,77.9563746 L16.8795604,77.8603627 C16.8795604,77.5147197 17.043956,77.1978803 17.3340659,77.0058564 L19.7032967,75.3640522 C19.9837363,75.1720283 20.1578022,74.8455877 20.1578022,74.509546 L20.1578022,68.8256391 L12.3731868,71.3603543 C11.6962637,71.5811818 11,71.0819197 11,70.3714313 L11,70.3714313 C11,70.0257883 11.1740659,69.6993477 11.4738462,69.5073239 L20.1578022,63.8330182 L20.1578022,58.8307961 C20.1578022,57.7074564 21.1635165,56.8721525 22.2562637,57.0161704 C23.1749451,57.140986 23.8421978,57.9474863 23.8421978,58.8788021 L23.8421978,63.8042146 L32.5358242,69.5073239 C32.8259341,69.6993477 33,70.0257883 33,70.3714313 L33,70.3714313 C32.9903297,71.0723185 32.2940659,71.5715806 31.6171429,71.3507531 Z" id="Path" fill="#7DCDFF" fill-rule="nonzero" opacity="0.695684524" transform="translate(22.000000, 68.000000) rotate(-30.000000) translate(-22.000000, -68.000000) "></path>
                            <line x1="0" y1="19.5" x2="44" y2="19.5" id="Path-17" stroke="#FFFFFF" stroke-width="1.2" stroke-linecap="round" stroke-dasharray="4"></line>
                            <line x1="13.5" y1="47.5" x2="13.5" y2="27" id="Path-18" stroke="#7DCDFF" stroke-width="2" opacity="0.399111793" stroke-linecap="round"></line>
                            <line x1="19.5" y1="47.5" x2="19.5" y2="27" id="Path-18" stroke="#7DCDFF" stroke-width="2" opacity="0.399111793" stroke-linecap="round"></line>
                            <line x1="25.5" y1="47.5" x2="25.5" y2="37" id="Path-18" stroke="#7DCDFF" stroke-width="2" opacity="0.399111793" stroke-linecap="round"></line>
                            <line x1="32.75" y1="10.25" x2="11.25" y2="10.25" id="Path-18" stroke-opacity="0.4" stroke="#7DCDFF" stroke-width="2" stroke-linecap="round"></line>
                        </g>
                        <g id="Group-39" transform="translate(46.000000, 60.000000) rotate(-270.000000) translate(-46.000000, -60.000000) translate(24.000000, 15.000000)">
                            <rect id="Rectangle" fill="#DFF3FF" x="0" y="1.36424205e-12" width="44" height="90" rx="5"></rect>
                            <path d="M31.6171429,71.3507531 L23.8325275,68.7968355 L23.8325275,74.509546 C23.8325275,74.8551889 23.9969231,75.1720283 24.287033,75.3640522 L26.6562637,77.0058564 C26.9367033,77.1978803 27.1107692,77.5243209 27.1107692,77.8603627 L27.1107692,77.8603627 C27.1107692,78.570851 26.4048352,79.0797143 25.7279121,78.8492857 L22.3432967,77.725946 C22.1208791,77.6491364 21.8791209,77.6587376 21.6567033,77.7355471 L18.2914286,78.9356964 C17.6048352,79.1853274 16.8795604,78.6764642 16.8795604,77.9563746 L16.8795604,77.8603627 C16.8795604,77.5147197 17.043956,77.1978803 17.3340659,77.0058564 L19.7032967,75.3640522 C19.9837363,75.1720283 20.1578022,74.8455877 20.1578022,74.509546 L20.1578022,68.8256391 L12.3731868,71.3603543 C11.6962637,71.5811818 11,71.0819197 11,70.3714313 L11,70.3714313 C11,70.0257883 11.1740659,69.6993477 11.4738462,69.5073239 L20.1578022,63.8330182 L20.1578022,58.8307961 C20.1578022,57.7074564 21.1635165,56.8721525 22.2562637,57.0161704 C23.1749451,57.140986 23.8421978,57.9474863 23.8421978,58.8788021 L23.8421978,63.8042146 L32.5358242,69.5073239 C32.8259341,69.6993477 33,70.0257883 33,70.3714313 L33,70.3714313 C32.9903297,71.0723185 32.2940659,71.5715806 31.6171429,71.3507531 Z" id="Path" fill="#7DCDFF" fill-rule="nonzero" opacity="0.695684524" transform="translate(22.000000, 68.000000) rotate(-30.000000) translate(-22.000000, -68.000000) "></path>
                            <line x1="0" y1="19.5" x2="44" y2="19.5" id="Path-17" stroke="#FFFFFF" stroke-width="1.2" stroke-linecap="round" stroke-dasharray="4"></line>
                            <line x1="13.5" y1="47.5" x2="13.5" y2="27" id="Path-18" stroke="#7DCDFF" stroke-width="2" opacity="0.399111793" stroke-linecap="round"></line>
                            <line x1="19.5" y1="47.5" x2="19.5" y2="27" id="Path-18" stroke="#7DCDFF" stroke-width="2" opacity="0.399111793" stroke-linecap="round"></line>
                            <line x1="25.5" y1="47.5" x2="25.5" y2="37" id="Path-18" stroke="#7DCDFF" stroke-width="2" opacity="0.399111793" stroke-linecap="round"></line>
                            <line x1="32.75" y1="10.25" x2="11.25" y2="10.25" id="Path-18" stroke-opacity="0.4" stroke="#7DCDFF" stroke-width="2" stroke-linecap="round"></line>
                        </g>
                    </g>
                </g>
            </g>
        </g>
    </g>
</svg>